<svg xmlns="http://www.w3.org/2000/svg" viewBox="0 0 56 51"><title>Shape + Shape</title><path d="M21.134 34.152H35.28v12.645c0 2.078 1.677 3.756 3.755 3.756s3.73-1.678 3.73-3.756V34.152c1.127 0 1.253-.726 1.253-1.577V23.13l-11.843-5.783H7.013l-3.23-1.84c-1.05-.59-2.378-.214-2.954.813a2.147 2.147 0 0 0 .82 2.955l5.102 2.93v24.593a3.75 3.75 0 0 0 3.755 3.756c2.054 0 3.73-1.678 3.73-3.756v-9.64L21 48.626c1.08 1.777 3.38 2.354 5.135 1.302a3.754 3.754 0 0 0 1.302-5.133l-6.31-10.643zm12.193-19.384l10.666 5.082v-2.003h8.663l3.18-6.86L33.326.27v14.5z" fill-rule="evenodd"/></svg>