<svg xmlns="http://www.w3.org/2000/svg" viewBox="0 0 100 30"><title>Shape</title><path d="M17.198 13.194c1.823 0 3.368-1.508 3.368-3.33 0-1.834-1.545-3.34-3.368-3.34-1.808 0-3.366 1.506-3.366 3.34 0 1.823 1.558 3.33 3.366 3.33M.1 18.12a.39.39 0 0 1-.1-.253c0-.188.176-.34.365-.34h10.653c.515 0 .93-.414.93-.93 0-.402-.176-.666-.566-.89L1.746 11.12a.607.607 0 0 1-.3-.54c0-.163.048-.313.174-.44 0 0 25.29-22.348 81.308-.69l15.376-7.5c.15-.075.326-.125.49-.125.666 0 1.206.54 1.206 1.206a1.3 1.3 0 0 1-.176.61l-9.07 11.298 9.07 11.257c.1.2.176.4.176.64 0 .64-.54 1.18-1.206 1.18-.164 0-.34-.05-.49-.125l-15.376-7.5S29.384 41.65.1 18.12" fill-rule="evenodd"/></svg>