<svg xmlns="http://www.w3.org/2000/svg" viewBox="0 0 6 6"><title>Shape</title><path d="M2.934 2.188l1.48-1.53-.045.397.725.487a.25.25 0 0 1 .096.343.247.247 0 0 1-.262.123l-.06-.012a.65.65 0 0 1-.802.47l-.553 1.127L3.51 5.14a.24.24 0 0 1-.48 0V3.555H1.816l-.217.373.454 1.087a.24.24 0 0 1-.417.238L1.103 4v-.396l-.238.373V5.14a.24.24 0 0 1-.483 0V3.796l.2-.31V2.43l-.2.303v.88h-.38v-.89c0-.295.24-.535.536-.535h2.396zm1.804-.217L4.35 1.9l-.223.444a.512.512 0 0 0 .612-.373h-.002z" fill="#1A1918" fill-rule="evenodd"/></svg>