<svg xmlns="http://www.w3.org/2000/svg" version="1" viewBox="0 0 99.992 94.066"><path d="M85.95 17.792V43.7c0 6.346-1.896 12.225-5.22 17.143a13.39 13.39 0 0 1 1.84 3.078A9.775 9.775 0 0 1 80.812 74.5L67.57 88.238c-.22.3-.55.574-.935.74a2.17 2.17 0 0 1-2.878-1.127 2.14 2.14 0 0 1-.11-1.482l2.77-14.012a31.078 31.078 0 0 1-11.23 2.088l-29.755-.027c7.967 5.44 7.967 16.018 7.94 16.21-.055.74-.137 1.29-.357 1.95-.302.852-.852 1.786-2.115 1.4l-18.093-14.23C4.51 73.812-2.58 63.977.91 53.867c2.418-6.898 9.287-9.78 15.99-10.963l37.71-7.583L71.03 5.788c2.008-3.49 7.283-6.017 10.8-5.77 3.545.246 6.1 1.207 8.6 3.38l8.133 1.73c.853.054 1.484.77 1.43 1.62l-.907 3.297c-.302.742-.632 1.29-1.318 1.758l-11.816 5.99z"/></svg>