<svg xmlns="http://www.w3.org/2000/svg" version="1" viewBox="0 0 83.257 100"><path d="M63.717 14.71h9.065a2.19 2.19 0 0 1 0 4.377h-8.97c-.574 0-1.147.19-1.58.62-.67.694-.836 1.675-.453 2.488.33.718.79 1.46 1.29 2.08l5.16-.023c.38.024.81.12 1.17.31l12.15 6.507c1.002.62 1.695 1.74 1.695 3.01a3.556 3.556 0 0 1-3.56 3.56h-7.92L61.15 63.69l-6.814 6.817v24.92c0 2.513-2.057 4.57-4.59 4.57s-4.57-2.058-4.57-4.57V68.62H26.79l-4.14 6.29 10.167 17.7c1.243 2.2.454 4.998-1.746 6.24-2.2 1.245-5 .456-6.24-1.745L14.4 79.215v-7.94l-5.19 6.96v16.862c0 2.535-2.057 4.568-4.59 4.568a4.567 4.567 0 0 1-4.57-4.568L.024 77.23l4.28-6.793v-8.084L.98 67.543a.5.5 0 0 1-.478.312.505.505 0 0 1-.502-.502v-18.01c.167-3.54 3.133-6.48 6.696-6.48h45.037l7.152-11.003-5.932-5.907a.89.89 0 0 1-.31-.67c0-.526.405-.933.907-.933l4.33.024a17.137 17.137 0 0 1-1.7-7.415C56.184 7.6 63.79 0 73.165 0c1.22 0 2.2.98 2.2 2.2 0 1.197-.98 2.225-2.2 2.225-6.41 0-11.72 4.832-12.437 11.05.885-.502 1.89-.766 2.99-.766z"/></svg>