<svg xmlns="http://www.w3.org/2000/svg" viewBox="0 0 15 16"><title>Fill 1548</title><path fill="#000" d="M14.643 3.297L12.92 2.57c-.7-.265-.057-.792-.963-1.24-.4-.19-1.898-.515-1.898-.515-.352-.122-1.376.23-1.376.935 0 .7-.172.755-.172.755-.734 1.576-.294.874-.645 2.42-.014.08-.06.295-.265.7C6.875 7.06 5 8.704 3.398 9.627c-1.87 1.09-1.84 3.95-1.84 3.95-1.372-.09-1.344-2.16-1.344-2.16-.992 2.54 1.784 3.238 1.784 3.238.67.67 1.984.498 1.984.498.498-.064.555.025.555.025s.06.268.877.293c.817.03 1.547-.054 1.898.122.35.164 1.11.2 1.11.2.556.147.495-.47.495-.47-.29-.67-.992-.608-.992-.608l-1.372-.06c1.927-.61 1.604-1.748 1.604-1.748-.168-.646-.77-.75-1.192-.764-.068-.007 0-.086 0-.086 1.178-.34 2.245-1.117 2.245-1.117-.028.587.527 1.49.788 1.9.265.413.702 2.078.702 2.078.322.352.437.646.437.646.265.175 1.17.14 1.17.14.234-.03.29-.11.29-.11l.033-.564c-.15-.64-.877-.64-.877-.64l-.763-3.267c-.086-.526.294-1.17.294-1.17.44-1.397-.32-2.834-.32-2.834-.088-.206.263-.206.263-.206s.204-.094.702-.262c.493-.172.23-.788.23-.788l-.264-.873c-.086-.408.734.054.734.054.874.498 1.576-.236 1.752-.376.175-.147.118-.322.494-.673.38-.348-.233-.698-.233-.698" fill-rule="evenodd"/></svg>