<svg xmlns="http://www.w3.org/2000/svg" version="1" viewBox="0 0 100 95.976"><path d="M10.04 95.976H100v-9.34H19.38v-40.49L100 9.716V0L0 45.168v9.715l10.04-4.507z"/><path d="M56.134 64.152H70.28v12.645c0 2.078 1.677 3.756 3.755 3.756s3.73-1.678 3.73-3.756V64.152c1.127 0 1.253-.726 1.253-1.577V53.13l-11.843-5.783H42.013l-3.23-1.84c-1.05-.59-2.378-.214-2.954.813a2.147 2.147 0 0 0 .824 2.955l5.107 2.93v24.593a3.75 3.75 0 0 0 3.756 3.756c2.054 0 3.73-1.678 3.73-3.756v-9.64l6.76 11.468c1.078 1.777 3.38 2.354 5.134 1.302a3.754 3.754 0 0 0 1.303-5.133l-6.31-10.643zm12.193-19.384l10.666 5.082v-2.003h8.663l3.18-6.86-22.51-10.716z"/></svg>