<svg xmlns="http://www.w3.org/2000/svg" viewBox="0 0 29 26"><title>rect13661 + polygon13663 + path13665</title><g fill="#000" fill-rule="evenodd"><path d="M15.48 18.176h1.814v1.813H15.48zM14.94 25.432H18.2v-3.628h-3.628v3.628h.365z"/><path d="M25.783 15.323V4.44l-5.054 3.11v4.664h-1.934V5.977h-2.343V.552h-6.22v8.88h-3.11v-3.05L4.597 4.83 2.07 6.383v5.442H.126v13.607h5.83V15a2.72 2.72 0 0 1 5.444 0v2.146l-2.05 5.208h1.273v3.078h.777v-3.855h-.908l1.53-3.89 4.365-1.78 4.367 1.78 1.53 3.89h-.907v3.855h1.533l5.205-.002V15.323h-2.332z"/></g></svg>