<svg xmlns="http://www.w3.org/2000/svg" version="1" viewBox="0 0 100 73.939"><path d="M34.284 73.94H0l.024-6.713h34.26zm0-10.167H0l.024-6.712h34.26zm0-10.19H0l.024-6.712h34.26zm0-10.188H0l.024-6.713h34.26zM48.166 2.542A4.157 4.157 0 0 0 44.354 0l-5.516.024V73.94h26.11L48.165 2.54zM34.284 33.206H0l.024-6.69h34.26zm0-10.166H0l.024-6.713h34.26zm0-10.19H0l.024-6.71h34.26zm33.854 55.24a8.035 8.035 0 0 0 1.51.144 9.184 9.184 0 0 0 3.74-.815 9.022 9.022 0 0 1 3.86-.87c1.366 0 2.66.31 3.835.86 1.127.502 2.422.813 3.74.813s2.59-.31 3.74-.815a8.916 8.916 0 0 1 3.836-.864 9.1 9.1 0 0 1 3.86.863 9.168 9.168 0 0 0 3.74.814v5.585a9.17 9.17 0 0 1-3.74-.79 9.09 9.09 0 0 0-3.86-.866 8.916 8.916 0 0 0-3.84.863 9.245 9.245 0 0 1-7.48 0 9.016 9.016 0 0 0-7.7 0 9.17 9.17 0 0 1-3.74.79h-.218l-1.294-5.73zm-2.23-10.957c1.15.504 2.42.815 3.74.815a9.184 9.184 0 0 0 3.74-.815 9.008 9.008 0 0 1 7.694 0c1.127.504 2.422.815 3.74.815s2.59-.312 3.74-.815a8.902 8.902 0 0 1 3.836-.863 9.1 9.1 0 0 1 3.86.863 9.168 9.168 0 0 0 3.74.815v5.586a9.17 9.17 0 0 1-3.74-.79 9.09 9.09 0 0 0-3.86-.864 8.916 8.916 0 0 0-3.836.863c-1.15.503-2.422.79-3.74.79s-2.613-.287-3.74-.79a9.016 9.016 0 0 0-7.695 0 9.17 9.17 0 0 1-3.74.79 8.71 8.71 0 0 1-2.373-.31l-1.367-6.09z"/></svg>