<svg xmlns="http://www.w3.org/2000/svg" version="1" viewBox="0 0 99.994 90.818"><path d="M35.524 66.436a6.988 6.988 0 0 0 6.985-6.984 6.986 6.986 0 0 0-13.97 0 6.988 6.988 0 0 0 6.982 6.984zm58.863-9.964a5.55 5.55 0 0 1 5.557 5.507l.025 14.67H56.61V56.47h37.777z"/><path d="M10.04 90.818h89.954V81.48H19.377V46.114L99.994 9.688V0L0 45.137v9.714l10.04-4.505z"/><path d="M45.938 69.766h-12.53a3.45 3.45 0 0 0-3.442 3.454c0 1.878 1.54 3.43 3.442 3.43h15.947a3.446 3.446 0 0 0 3.442-3.43V59.4a3.436 3.436 0 0 0-6.872 0l.013 10.366z"/></svg>