<svg xmlns="http://www.w3.org/2000/svg" viewBox="0 0 29 25"><title>Group</title><g fill="#000" fill-rule="evenodd"><path d="M.022 11.384c0 .025.01.05.013.075v-.15c-.003.023-.013.048-.013.074z"/><circle cy="9.091" cx="8.453" r=".971"/><path d="M19.17 13.932zM25.29 21.027c-1.286 0-2.825-1.45-4.455-2.983a142.89 142.89 0 0 0-.54-.507l-.554-2.366a1.04 1.04 0 0 0-2.052.155c-1.624-1.185-3.45-2.073-5.616-2.073v-9.33L5.852.425l-5.83 3.5v20.99h1.166V23.36h3.888v1.554h1.166V23.36h4.665v1.554h1.166V15.585c2.748 0 4.993 2.113 7.164 4.157 1.977 1.86 3.843 3.618 6.053 3.618h.39v1.554h1.165V23.36h1.165v-2.333h-2.72zM5.075 22.582H1.19v-1.555h3.886v1.555zm0-2.333H1.19v-1.556h3.886v1.555zm0-2.333H1.19v-1.555h3.886v1.555zm5.83-4.665H9.71l-.463-1.977a1.043 1.043 0 0 0-2.032.476l.352 1.502H1.19V4.7h9.717v8.552z"/></g></svg>