<svg xmlns="http://www.w3.org/2000/svg" viewBox="0 0 9 9"><title>Fill 2492 + Fill 2493</title><g fill="#1A1918" fill-rule="evenodd"><path d="M5.934 4.188l1.48-1.53-.045.397.725.487a.25.25 0 0 1 .096.343.247.247 0 0 1-.262.123l-.06-.012a.65.65 0 0 1-.802.47l-.553 1.127L6.51 7.14a.24.24 0 0 1-.48 0V5.555H4.816l-.217.373.454 1.087a.24.24 0 1 1-.417.238L4.103 6v-.396l-.238.373V7.14a.24.24 0 0 1-.483 0V5.796l.2-.31V4.43l-.2.303v.88h-.38v-.89c0-.295.24-.535.536-.535h2.396zm1.804-.217L7.35 3.9l-.223.444a.512.512 0 0 0 .612-.373z"/><path d="M1.307 3.756l-.783.3v-.76L8.327.32v.758l-6.293 2.4.002 4.42h6.29v.727h-7.02v-4.87z"/></g></svg>