<svg xmlns="http://www.w3.org/2000/svg" version="1" viewBox="0 0 100 93.905"><path d="M.023 55.587h63.212v5.925H.023zM49.637 43.13a7.498 7.498 0 0 1 7.498-7.497c4.134 0 7.503 3.354 7.503 7.498 0 4.133-3.37 7.5-7.503 7.5-4.138 0-7.498-3.367-7.498-7.5zm-9.587-7.76H14.934L0 37.658V50.62l7.537.005a6.286 6.286 0 0 1-.96-3.313 6.35 6.35 0 0 1 6.344-6.344h13.757l11.15-2.33.617 2.96-11.455 2.394H12.92a3.318 3.318 0 0 0-3.32 3.32 3.315 3.315 0 0 0 3.277 3.313l27.233.003c4.21-.033 7.59-3.426 7.59-7.62a7.636 7.636 0 0 0-7.65-7.637z"/><path d="M53.047 77.418c16.756 0 30.337-13.583 30.337-30.34 0-16.756-13.58-30.338-30.337-30.338-10.953 0-20.523 5.83-25.857 14.533h12.705a20.53 20.53 0 0 1 13.23-4.812c11.385 0 20.616 9.234 20.616 20.62 0 11.39-9.23 20.62-20.614 20.62a20.51 20.51 0 0 1-8.996-2.087H29.066c5.547 7.17 14.213 11.806 23.98 11.806z"/><path d="M53.047 0C32.287 0 14.687 13.483 8.49 32.164l5.787-.9 9.388.002C29.3 20.814 40.343 13.71 53.047 13.71c18.43 0 33.367 14.94 33.367 33.37S71.476 80.447 53.047 80.447c-11.57 0-21.76-5.896-27.745-14.842H9.96c7.213 16.646 23.786 28.3 43.086 28.3 25.932 0 46.954-21.02 46.954-46.953C100 21.022 78.978 0 53.047 0zM63.7 10.678a1.488 1.488 0 0 1-1.803 1.084 36.455 36.455 0 0 0-17.55 0c-.796.213-1.604-.286-1.804-1.083a1.488 1.488 0 0 1 1.087-1.806 39.374 39.374 0 0 1 18.988 0 1.486 1.486 0 0 1 1.083 1.803z"/></svg>