<svg xmlns="http://www.w3.org/2000/svg" version="1" viewBox="0 0 100 99.178"><path d="M86.598 45.604c8.4 0 13.402 5.005 13.402 12.67v35.874c0 2.778-.25 5.03-.25 5.03H61.388V64.31h-1.564l-7.12 10.625c-1.16 1.58-3.514 2.347-5.39 2.347H30.598a5.027 5.027 0 0 1-5.03-5.024c0-2.77 2.252-4.956 5.03-4.956h15.205L56.348 51.35c2.53-3.857 7.216-5.696 11.45-5.696 0 11.217 2.797 15.964 7.85 15.964v18.647a4.002 4.002 0 0 0-2.418 3.674 3.952 3.952 0 0 0 3.966 3.97c2.207 0 3.972-1.82 3.972-4.03 0-1.65-1-3.06-2.42-3.67V61.56c5.05 0 7.85-4.742 7.85-15.96"/><path d="M83.447 45.604c-.09 11.5-2.077 13.013-6.25 13.013-4.17 0-6.16-1.513-6.25-13.013h12.5zm-6.32-25.896c6.336 0 11.472 5.137 11.472 11.477 0 6.334-5.14 11.474-11.48 11.474-6.34 0-11.48-5.14-11.48-11.48S70.78 19.7 77.12 19.7m-28.2 1.57c1.4 0 2.54-1.14 2.54-2.54s-1.14-2.54-2.54-2.54a2.54 2.54 0 0 0 0 5.082M30.76 7.27a3.62 3.62 0 0 0 3.62-3.62c0-2-1.62-3.624-3.62-3.624a3.624 3.624 0 0 0-3.62 3.624c0 2 1.62 3.62 3.623 3.62m-19.66.023c2.03 0 3.68-1.633 3.68-3.647 0-2.013-1.65-3.646-3.68-3.646C9.077 0 7.43 1.633 7.43 3.646c0 2.014 1.646 3.647 3.674 3.647"/><path d="M45.477 43.21a1.5 1.5 0 0 0 1.502 1.49c.82 0 1.48-.67 1.48-1.49v-8.915h1.164v8.914c0 .82.67 1.49 1.492 1.49s1.5-.67 1.5-1.49V26.54h1.15v5.65a1.11 1.11 0 0 0 1.11 1.113 1.1 1.1 0 0 0 1.097-1.114v-6.42c0-1.8-1.582-3.26-3.375-3.26 0 0-6.896.004-6.923.01l-2.23-.217-2.866-9.992c-1.157-4.03-4.53-3.902-4.53-3.902h-9.29s-3.373-.13-4.53 3.903l-1.5 5.235-1.504-5.235c-1.156-4.03-4.53-3.9-4.53-3.9h-7.19s-3.375-.13-4.532 3.9L.082 22.4c-.28.94.183 1.82 1.006 2.058.823.233 1.727-.338 1.942-1.092l2.812-9.83h1.375l-4.113 17.02H6.74v12.087a1.8 1.8 0 0 0 1.797 1.805c1 0 1.814-.808 1.814-1.805v-12.09h1.53v12.09a1.805 1.805 0 0 0 3.61 0v-12.09h3.578L14.99 13.537h1.372l2.81 9.83c.19.653.79 1.182 1.5 1.12.708.063 1.43-.467 1.615-1.12l2.816-9.83h1.267v28.756a2.13 2.13 0 0 0 2.135 2.122c1.17 0 2.128-.95 2.128-2.122V25.93h1.57v16.363a2.13 2.13 0 0 0 4.257 0V13.537h1.375l2.613 9.5c.165.573.757 1.128 1.39 1.318l3.647 1.02V43.21z"/></svg>