<svg xmlns="http://www.w3.org/2000/svg" version="1" viewBox="0 0 99.47 100"><path d="M53.526 11.186a5.575 5.575 0 0 0 5.572-5.573A5.578 5.578 0 0 0 53.526.04a5.574 5.574 0 0 0 0 11.146zm-30.232.036c-3.127 0-5.653-2.512-5.653-5.613C17.65 2.51 20.17 0 23.3 0c3.123 0 5.656 2.51 5.656 5.61s-2.532 5.61-5.655 5.61z"/><circle cy="28.821" cx="81.209" r="3.909"/><path d="M86.873 34.66H76.325c-.048 0-3.526-.317-3.526-.317l-4.42-15.397C66.6 12.75 61.4 12.94 61.4 12.94H47.11s-5.19-.19-6.97 6.006l-2.178 7.582-2.177-7.582c-1.785-6.195-6.97-6.006-6.97-6.006h-11.06s-5.195-.19-6.97 6.006L6.33 34.46c-.422 1.45.37 2.555 1.64 2.922 1.268.364 2.563-.276 2.89-1.434l4.336-15.12 2.114-.004-6.33 26.183h5.595v18.596a2.77 2.77 0 0 0 2.77 2.777 2.785 2.785 0 0 0 2.784-2.777V47.006h2.35v18.596a2.773 2.773 0 0 0 2.77 2.777 2.783 2.783 0 0 0 2.783-2.78V47h5.5l-6.266-26.18 2.107.005 4.283 14.962c.07.256.186.485.334.693.42.63 1.155.988 1.974.96.815.028 1.543-.322 1.962-.95a2.03 2.03 0 0 0 .364-.77l4.26-14.89 1.95-.004v44.24a3.28 3.28 0 0 0 3.286 3.27 3.27 3.27 0 0 0 3.27-3.27v-25.17h2.416v25.17a3.27 3.27 0 0 0 3.266 3.27c1.81 0 3.29-1.464 3.29-3.27v-44.24l2.114.004 4.15 15.12c.22.747.85 1.238 1.59 1.423.03.008.05.03.08.034.66.15 3.706 1.012 5.95 1.653v27.438a2.3 2.3 0 0 0 4.6 0v-13.71h1.797v13.707c0 1.267 1.024 2.297 2.29 2.297s2.308-1.03 2.308-2.296v-25.63h1.765v8.69c0 .946.77 1.718 1.71 1.718.946 0 1.69-.772 1.69-1.718V39.67c-.002-2.765-2.434-5.01-5.2-5.01zm-11.96 54.373a292.18 292.18 0 0 1-3.254-2.57c-.91-.724-1.83-1.456-2.75-2.173-5.51-4.303-11.237-8.227-17.61-8.798a17.592 17.592 0 0 0-1.595-.076c-.54 0-1.066.07-1.594.116-6.39.58-12.14 4.48-17.66 8.798l.58.46c.673.534 1.333 1.047 2 1.57 5.49-4.254 10.84-7.76 16.676-7.76 5.813 0 11.153 3.487 16.624 7.725a219.36 219.36 0 0 1 3.334 2.63c.883.704 1.77 1.414 2.662 2.112C78.316 95.747 84.56 100 91.61 100c2.73 0 5.335-.65 7.853-1.707v-3.48c-2.556 1.23-5.155 2.002-7.855 2.002-5.84 0-11.2-3.516-16.7-7.782z"/><path d="M72.34 84.353c.182.146.367.29.55.437.68.546 1.353 1.062 2.026 1.598 1.99-1.54 3.968-2.978 5.95-4.19v8.562c1.063.695 2.126 1.34 3.188 1.882V80.486c1.966-.918 3.96-1.547 6.003-1.766v15.855c.49.06.982.113 1.478.113.57 0 1.143-.055 1.71-.13v-15.86c2.123.23 4.187.903 6.225 1.88v-3.474c-2.508-1.045-5.103-1.688-7.818-1.688-7.05 0-13.31 4.25-19.313 8.937zm-45.3 6.75c-.21-.167-.426-.334-.637-.506-.65-.52-1.292-1.015-1.94-1.528-5.48 4.24-10.832 7.74-16.655 7.74C5.125 96.81 2.544 96 0 94.7v3.513C2.504 99.32 5.092 100 7.807 100c7.028 0 13.26-4.23 19.233-8.896z"/><path d="M6.18 94.584c.528.07 1.06.12 1.59.12.535 0 1.066-.05 1.598-.12V78.7c2.057.22 4.062.85 6.042 1.782-.01.072-.043.142-.043.222v11.893a36.36 36.36 0 0 0 3.188-1.89V82.2c3.046 1.872 6.07 4.277 9.172 6.753C34.534 94.383 41.573 100 49.675 100c7.02 0 13.256-4.22 19.237-8.878l-.66-.524c-.646-.513-1.28-1.004-1.917-1.51-1.955 1.51-3.89 2.91-5.838 4.11v-8.424a36.35 36.35 0 0 0-3.188-1.893v11.84c0 .07.02.12.03.187-1.98.93-3.98 1.57-6.04 1.797V80.86a12.31 12.31 0 0 0-1.668-.128c-.51 0-1.017.052-1.52.114V96.72c-2.065-.217-4.075-.843-6.055-1.77.01-.08.046-.15.046-.236v-11.91a34.682 34.682 0 0 0-3.188 1.886v8.55c-3.06-1.876-6.1-4.29-9.214-6.775-6.804-5.43-13.84-11.047-21.94-11.047-2.7 0-5.276.6-7.772 1.572v3.438c2.023-.9 4.073-1.525 6.18-1.736v15.892z"/></svg>