<svg xmlns="http://www.w3.org/2000/svg" version="1" viewBox="0 0 100 89.2"><path d="M47.71 18.554c5.137 0 9.296-4.155 9.296-9.28S52.848 0 47.71 0c-5.134 0-9.296 4.15-9.296 9.275s4.162 9.28 9.296 9.28zM76.036 81.28H1.924c-2.086 0-1.872 1.64-1.872 1.64v2.73s-.19 3.55 3.455 3.55h92.797c3.67 0 3.47-3.466 3.47-3.466v-7.562s-.312-2.393-3.125-2.393h-9.046c-3.1 0-5.663 5.5-11.57 5.5zm7.206-16.758c0 4.61 3.752 8.354 8.376 8.354 4.62 0 8.382-3.745 8.382-8.354 0-4.628-3.762-8.36-8.382-8.36-4.624 0-8.376 3.732-8.376 8.36zM55.868 48.58a5.956 5.956 0 0 1-3.58 3.725L44.83 55.07l2.753 2.733h12.59l-.008-19.272-4.214 9.935c-.02.048-.056.076-.08.117z"/><path d="M73.95 62.38H47.917l-6.275-6.128-4.37 1.61c-3.24 1.158-7.185-.61-8.402-3.83-.717-2-.617-4.23.58-5.858-.536-.024-15.79 0-15.79 0-2.538 0-4.6 2.04-4.6 4.57 0 2.536 2.062 4.52 4.6 4.52h15.53l6.158 9.32-31.793 2.554A4.59 4.59 0 0 0 0 73.608a4.59 4.59 0 0 0 4.583 4.596l35.67.003a6.523 6.523 0 0 1-.994-3.434 6.59 6.59 0 0 1 6.58-6.583h14.27l11.57-2.417.64 3.072-11.884 2.482H45.842a3.445 3.445 0 0 0-3.445 3.445 3.438 3.438 0 0 0 3.375 3.434l28.24.004c4.368-.034 7.874-3.555 7.874-7.91a7.92 7.92 0 0 0-7.936-7.92z"/><path d="M36.722 54.987a3.64 3.64 0 0 1-4.793-1.868 3.636 3.636 0 0 1 1.87-4.8l13.254-4.976 4.096-9.77-2.668-.985L45 40.957l-10.09 3.716V34.447l-9.86 10.77-11.16-.01s19.53-21.41 20.14-22.05c.81-.804 2.66-2.135 6.15-2.135h12.54c7.125 0 8.497 7.104 7.04 10.78L53.2 47.707a3.695 3.695 0 0 1-2.11 1.99l-14.368 5.29z"/></svg>