<svg xmlns="http://www.w3.org/2000/svg" version="1" viewBox="0 0 100 98.561"><path d="M3.8 3.57a.654.654 0 0 1 .26-.89L8.827.08a.65.65 0 0 1 .89.264l1.91 3.49c7.23-2.168 15.242.914 19.004 7.803l-9.24 5.045c1.528 2.794.495 6.304-2.304 7.836a5.79 5.79 0 0 1-7.843-2.3L2 27.256C-1.766 20.37-.035 11.966 5.71 7.062L3.8 3.57zm65.102 62.845H100V98.56H68.902zm-3.566 16.067H40.22c-4.378 0-7.94-3.555-7.94-7.934 0-4.387 3.562-7.935 7.94-7.935h25.116v15.87zm-54.15 6.438a3.216 3.216 0 0 1 3.214-3.216h50.937V98.56h-54.15v-9.64z"/><ellipse cy="72.904" cx="20.907" rx="9.594" ry="9.578"/><path d="M82.938 46.08l-5.396-15.363c-1.046-2.896-3.057-5.157-8.73-5.157H43.898c-5.672 0-7.686 2.26-8.73 5.157l-5.39 15.363c-.403.992-.614 3.222 1.583 4.716l12.688 8.357a4.015 4.015 0 1 0 4.424-6.703l-6.095-4.018-3.972-2.62 2.834-7.817h3.922l-2.297 6.342 7.643 5.038a7.638 7.638 0 0 1 3.303 4.88 7.638 7.638 0 0 1-1.113 5.792 7.75 7.75 0 0 1-1.63 1.764H61.65a7.876 7.876 0 0 1-1.634-1.762 7.66 7.66 0 0 1-1.114-5.792 7.655 7.655 0 0 1 3.304-4.88l7.648-5.038-2.307-6.342h3.927l2.84 7.818-3.973 2.62-6.1 4.017c-1.85 1.22-2.367 3.72-1.142 5.568s3.72 2.36 5.573 1.136l12.684-8.357c2.193-1.494 1.987-3.724 1.585-4.716zM58.835 10.522a3.793 3.793 0 0 1-3.443 2.205 3.8 3.8 0 0 1-3.45-2.205h-6.95a10.55 10.55 0 0 0-.178 1.88c0 5.854 4.756 10.6 10.617 10.6 5.865 0 10.617-4.746 10.617-10.6 0-.646-.068-1.27-.177-1.88h-7.035zM51.707 8.02a3.8 3.8 0 0 1 3.685-2.873A3.792 3.792 0 0 1 59.07 8.02h6.02c-1.67-3.668-5.36-6.224-9.66-6.224-4.294 0-7.99 2.556-9.66 6.223h5.937z"/></svg>