<svg xmlns="http://www.w3.org/2000/svg" version="1" viewBox="0 0 90.334 100"><path d="M81.377 85.76c2.604-3.18 3.518-7.608 2.002-11.755l-1.375-3.79h8.328V0H0v70.214h48.58l5.298 14.537a12.013 12.013 0 0 0 9.092 7.71l2.49 7.537 20.845.004-4.928-14.24zm-7.58-37.933c-4.45 1.62-6.75 6.55-5.127 11.008l3.212 8.764H2.615V2.616h85.108v64.98h-6.685l-7.24-19.77z"/><path d="M49.057 40.152v5.012H63.7c.61 0 1.504.546 1.504 1.505 0 8.53-1.072 12.562-5.568 12.562-4.672 0-5.63-10.116-10.58-10.776v9.67h-7.83V48.44c-5.198.39-6.035 10.79-10.888 10.79-4.496 0-5.326-4.032-5.326-12.564 0-.958.893-1.505 1.508-1.505h14.706v-5.01H25.998c-.878 0-1.59-.708-1.59-1.583s.71-1.58 1.59-1.58h15.228V31.97h-17.14a1.585 1.585 0 0 1 0-3.17h17.14v-5.012h-16.09c-.87 0-1.58-.71-1.58-1.588 0-.875.71-1.587 1.58-1.587h16.09V15.6h-12.6a1.587 1.587 0 0 1 0-3.173h12.598v-2.77h7.83v2.77h12.6c.876 0 1.588.717 1.588 1.592S62.53 15.6 61.656 15.6h-12.6v5.012H65.19a1.588 1.588 0 0 1 0 3.175H49.057v5.01h17.188a1.586 1.586 0 0 1 0 3.17h-17.19v5.017h15.23a1.582 1.582 0 0 1 0 3.165h-15.23z"/></svg>