<svg xmlns="http://www.w3.org/2000/svg" version="1" viewBox="0 0 100 97.083"><path d="M48.234 77.898a2.832 2.832 0 0 0-4.002 0L30.906 91.214l-1.658-1.658 17.87-17.845a2.83 2.83 0 1 0-4.003-4L25.25 85.56l-1.655-1.66 20.782-20.765a2.83 2.83 0 0 0 .003-4.002 2.828 2.828 0 0 0-4-.003L19.593 79.895l-1.655-1.658L34.25 61.94a2.83 2.83 0 0 0 0-4 2.827 2.827 0 0 0-4 0L9.264 78.88c-.014-2.026-.03-5.676-.03-8.97 0-4.573-5.78-5.252-6.07-4.933C2.884 65.31 0 97.083 0 97.083h33.085l1.843-1.844-.024-.02 13.33-13.32a2.83 2.83 0 0 0 0-4.01z"/><path d="M63.12 0C46.393 0 30.978 12.55 27.766 26.37c-.72 3.083-1.524 11.105-1.524 11.105l-7.687 19.373c-.15.355-.23.742-.23 1.16a2.97 2.97 0 0 0 2.97 2.965h2.625l4.687-4.683a5.16 5.16 0 0 1 7.294.003 5.16 5.16 0 0 1 1.41 2.625l1.436-1.433a5.15 5.15 0 0 1 7.29.003c1.975 1.975 2 5.146.1 7.167a5.156 5.156 0 0 1 2.636 8.7l-1.5 1.495a5.11 5.11 0 0 1 2.615 1.4 5.16 5.16 0 0 1 0 7.29l-3.322 3.32v10.22H85.92V65.808C94.48 59.07 100 48.598 100 36.848 100 16.492 83.498 0 63.12 0zm-27.8 44.833a4.114 4.114 0 0 1 0-8.227 4.11 4.11 0 0 1 4.11 4.116 4.11 4.11 0 0 1-4.11 4.113zm19.248 9.584c1.027 0 1.877.843 1.877 1.866a1.88 1.88 0 0 1-1.877 1.873 1.872 1.872 0 0 1-1.873-1.873c0-1.023.84-1.866 1.873-1.866zM53.45 66.12a1.874 1.874 0 0 1 0-3.75 1.88 1.88 0 0 1 1.876 1.877 1.877 1.877 0 0 1-1.875 1.873zm4 8.058a2.815 2.815 0 0 1-2.573-3.038 2.815 2.815 0 0 1 3.042-2.554 2.8 2.8 0 0 1 2.55 3.03c-.14 1.552-1.49 2.697-3.02 2.562zm2.697-11.224c-1.567 0-2.812-1.256-2.812-2.803s1.245-2.79 2.812-2.79c1.538 0 2.79 1.25 2.79 2.8s-1.25 2.8-2.79 2.8zm3.982 5.874a1.876 1.876 0 0 1-1.89-1.876 1.88 1.88 0 0 1 1.88-1.866 1.87 1.87 0 0 1 0 3.742zm4.18-10.886h-.66V54.6l.647-.008c4.172-.007 7.576-3.404 7.59-7.573-.014-4.17-3.418-7.57-7.587-7.58l-.65-.007V36.1h.655c6.03 0 10.93 4.895 10.93 10.918s-4.9 10.92-10.93 10.92z"/></svg>