<svg xmlns="http://www.w3.org/2000/svg" version="1" viewBox="0 0 55.896 100"><path d="M23.48 16.728c4.608.36 8.648-3.08 9.015-7.687.357-4.613-3.093-8.65-7.697-9.013A8.377 8.377 0 0 0 23.48 16.73m2.298 16.79c2.613.49 4.577 2.798 4.577 5.56a5.663 5.663 0 0 1-5.663 5.662H6.344a3.593 3.593 0 0 1-3.593-3.595c0-.48.097-.943.267-1.36L5 35.153l22.096-15.827h-10.53c-4.042-.11-6.884 1.293-8.514 4.478-1.106 2.145-6.97 15.246-6.97 15.246a5.662 5.662 0 0 0 5.26 7.76h7.17l-2.114 13.903L.273 92.857a5.416 5.416 0 0 0 3.44 6.835c2.83.945 5.9-.606 6.836-3.444L23.34 59.99c2.495 4.054 7.46 11.32 8.304 12.69.194 2.28 1.98 22.39 1.98 22.39a5.416 5.416 0 0 0 5.87 4.91c2.975-.255 5.176-2.897 4.91-5.87L42.3 70.444a5.337 5.337 0 0 0-.785-2.363L32.32 53.178l1.463-18.703s2.178 7.4 2.34 7.938c.468 1.526 1.522 2.622 2.602 3.497.633.5 11.365 7.81 11.365 7.81.6.273 1.086.517 1.726.56a3.774 3.774 0 0 0 4.066-3.464 3.798 3.798 0 0 0-1.477-3.31s-10.695-7.342-11.13-7.662c-.355-.267-.635-.735-.706-.98L38.334 23.62c-.688-2.308-3.012-4.292-5.952-4.292h-1.266l-5.34 14.192z"/><path d="M24.693 42.673a3.593 3.593 0 0 0 3.593-3.595c0-1.85-1.41-3.36-3.21-3.553l-2.623 7.17 2.24-.022z"/></svg>