<svg xmlns="http://www.w3.org/2000/svg" version="1" viewBox="0 0 100 99.792"><path d="M.065 63.67H82.29v6.474H.066z"/><path d="M61.17 81.148c0-4.313-18.995-3.88-18.995.058v14.6c-.19 2.012 1.27 3.983 3.29 3.983h50.872a3.655 3.655 0 0 0 3.66-3.66L100 49.91C100 20.867 75.07-2.48 45.475.21a3.662 3.662 0 0 0-3.314 3.977v15.73h19.01V8.777c18.17 4.873 31.51 21.46 31.52 41.12-.06 19.65-13.34 36.314-31.51 41.16v-9.91z"/><path d="M67.573 50.02a8.19 8.19 0 0 1 8.19-8.19c4.516 0 8.197 3.664 8.197 8.19 0 4.513-3.682 8.193-8.197 8.193-4.523 0-8.19-3.68-8.19-8.192zM57.1 41.542H29.657L0 46.082V58.2l21.572.004a6.866 6.866 0 0 1-1.05-3.62c0-3.82 3.112-6.93 6.93-6.93h15.03l12.18-2.544.68 3.235-12.518 2.614h-15.37a3.623 3.623 0 0 0-.048 7.24H57.16c4.61-.038 8.3-3.744 8.3-8.325a8.343 8.343 0 0 0-8.36-8.343z"/></svg>