<svg xmlns="http://www.w3.org/2000/svg" version="1" viewBox="0 0 96.42 100"><path d="M14.534 56.16a6.68 6.68 0 0 1 6.692-6.684 6.686 6.686 0 0 1 0 13.375 6.688 6.688 0 0 1-6.692-6.69m64.63-4.093c2.946 0 5.32 2.306 5.346 5.23l.01 14.11H30.813V52.082l48.353-.013zM24.63 71.397a3.295 3.295 0 0 0 3.292-3.29 3.295 3.295 0 0 0-3.292-3.293H15.11a3.287 3.287 0 0 0-3.287 3.292 3.286 3.286 0 0 0 3.288 3.29h9.52z"/><path d="M87.705 85.28V100h8.715V53.32a4.35 4.35 0 0 0-4.347-4.353 4.362 4.362 0 0 0-4.368 4.354v21.424H9.447V44.516c0-2.403-2.098-4.357-4.505-4.357C2.54 40.16.65 42.11.65 44.516V100h8.796V85.28h78.258zM60.085 0c2.79 0 7.356 1.17 9.897 3.953L66.56 10.53a8.158 8.158 0 0 0-6.475-3.177 8.144 8.144 0 0 0-6.415 3.113l-3.493-6.368C53.117 1.156 57.182 0 60.087 0M59.1 6.627h1.953V4.674h1.954V2.722h-1.954V.768H59.1v1.954h-1.955v1.952H59.1v1.953z"/><path d="M66.357 15.95a6.285 6.285 0 0 1-6.286 6.285 6.28 6.28 0 0 1-6.28-6.284c0-3.472 2.81-6.284 6.28-6.284s6.288 2.812 6.288 6.286M54.03 24.027c-4.395.024-6.938 3.588-7.513 5.602l-5.352 17.566h5.417l3.945-13.48h2.807L49.4 47.194h21.315L66.81 33.717h2.805l4.053 13.48h5.336L73.63 29.63c-.57-1.99-3.062-5.487-7.36-5.594l-12.24-.01zm-40.05 4.04C6.27 28.066 0 21.796 0 14.08 0 6.367 6.27.092 13.98.092S27.97 6.367 27.97 14.08c0 7.716-6.28 13.986-13.99 13.986m0-3.462c5.802 0 10.53-4.72 10.53-10.528 0-5.798-4.73-10.526-10.53-10.526-5.803 0-10.52 4.728-10.52 10.526-.002 5.81 4.717 10.528 10.52 10.528"/><path d="M14.053 15.927a1.04 1.04 0 0 1-1.005-.076 1.048 1.048 0 0 1-.47-.724L12.563 7a1.052 1.052 0 0 1 2.105 0v6.304l5.393-2.538a1.046 1.046 0 0 1 1.4.498c.25.53.02 1.154-.5 1.403l-6.906 3.26z"/></svg>