<svg xmlns="http://www.w3.org/2000/svg" version="1" viewBox="0 0 76.441 100"><path d="M17.848 21.016c5.804-.02 10.5-4.716 10.506-10.507C28.35 4.71 23.652.012 17.848 0 12.062.014 7.365 4.71 7.34 10.51c.025 5.79 4.722 10.487 10.508 10.506z"/><path d="M9.877 33.748C8 21.684 25.413 18.018 28.2 30.385l4.762 23.653h17.7c5.17.016 7.856 4.15 7.87 7.974v32.142c-.014 7.832-11.134 7.794-11.13-.103-.004-7.352 0-25.053 0-25.053H24.784c-5.265.01-8.572-3.607-9.42-7.763L9.877 33.748z"/><path d="M39.122 71.12c5.86 0 5.832 8.686.052 8.696H22.972c-7.91-.01-15.782-5.94-17.857-15.116L.095 40.114c-1.048-5.572 6.988-7.43 8.177-1.707l4.814 23.498c1.322 6.012 5.768 9.214 11.13 9.214H39.12zm21.946-53.522l7.816-3.776c1.123-.518.39-2.15-.777-1.605l-6.626 2.95V7.35c-.022-1.25-1.884-1.195-1.86 0v9.368a.994.994 0 0 0 1.45.88z"/><path d="M61.12.466C52.63.45 45.762 7.32 45.75 15.79c.013 8.472 6.882 15.338 15.37 15.318 8.456.02 15.32-6.846 15.32-15.32C76.44 7.32 69.577.45 61.12.468zm0 28.055c-7.05.006-12.752-5.7-12.733-12.73-.02-7.033 5.684-12.735 12.733-12.736 7.015 0 12.718 5.703 12.732 12.736-.015 7.03-5.718 12.735-12.732 12.73z"/><path d="M61.068 17.598l7.816-3.776c1.123-.518.39-2.15-.777-1.605l-6.626 2.95V7.35c-.022-1.25-1.884-1.195-1.86 0v9.368a.994.994 0 0 0 1.45.88z"/></svg>