<svg xmlns="http://www.w3.org/2000/svg" version="1" viewBox="0 0 84.047 100"><path d="M58.224 24.48a4 4 0 0 0-3.994 4.007c0 2.215 1.793 4 3.994 4a3.993 3.993 0 0 0 3.994-4 3.994 3.994 0 0 0-3.994-4.006zm-.94 32.816a4.01 4.01 0 0 0 4.013 4.005c2.2 0 3.987-1.79 3.987-4.003a3.994 3.994 0 0 0-3.987-4.003 4.008 4.008 0 0 0-4.012 4.003zm-29.24-37.16a4.008 4.008 0 0 0 0 8.015 4 4 0 0 0 4.01-4 4.006 4.006 0 0 0-4.01-4.012z"/><path d="M46.116 0C28.9 0 13.02 12.924 9.72 27.167c-.746 3.166-1.564 11.435-1.564 11.435L.228 58.564A3.05 3.05 0 0 0 0 59.754a3.07 3.07 0 0 0 3.07 3.057h5.086v10.607c0 8.27 6.7 14.968 14.96 14.968h5.945V100H69.55V67.794c8.83-6.946 14.5-17.736 14.5-29.842C84.048 16.99 67.06 0 46.118 0zm-28.64 46.167c-2.322 0-4.22-1.897-4.22-4.244a4.23 4.23 0 0 1 4.22-4.227c2.342 0 4.25 1.894 4.25 4.227a4.247 4.247 0 0 1-4.25 4.244zm55.994-5.733l-3.946 3.947-4.813-3.396c-.925.484-1.9.868-2.915 1.127l-.888 5.237h1.838l.49 2.8c.194.05.388.08.578.148.494.183.95.418 1.375.688l2.22-1.56 1.82 1.82-1.635 2.318c.353.623.63 1.286.784 1.987l2.678.46v2.575l-2.788.48c-.056.197-.083.395-.152.588a7.17 7.17 0 0 1-.697 1.39l1.567 2.208-1.823 1.82-2.305-1.637a7.18 7.18 0 0 1-1.99.784l-.47 2.682H59.82l-.463-2.8c-.2-.055-.4-.082-.598-.155a7.34 7.34 0 0 1-1.384-.69l-2.222 1.576L53.344 63l1.638-2.314a7.193 7.193 0 0 1-.784-1.99l-2.692-.467v-2.566l2.813-.48c.053-.197.08-.395.153-.59.18-.492.414-.948.684-1.377l-1.568-2.222 1.816-1.818 2.32 1.638a7.34 7.34 0 0 1 1.98-.784l.402-2.325h-4.85L54.25 41.9c-.218-.07-.436-.126-.653-.21a13.882 13.882 0 0 1-2.2-1.05l-4.646 3.274-3.94-3.95 3.39-4.798a13.65 13.65 0 0 1-1.132-2.927l-5.585-.963V26.69l-2.812.486c-.044.135-.055.273-.106.404a8.762 8.762 0 0 1-.68 1.397l2.155 3.055-2.597 2.588-3.165-2.232a8.987 8.987 0 0 1-1.835.722l-.64 3.663-3.645.003-.664-3.822c-.128-.045-.263-.055-.39-.104a8.94 8.94 0 0 1-1.41-.69l-3.065 2.16-2.586-2.593 2.242-3.176a9.28 9.28 0 0 1-.697-1.82L15.9 26.1V22.43l3.8-.653c.044-.135.075-.266.123-.397.184-.5.426-.96.685-1.403l-2.16-3.055 2.582-2.59 3.178 2.237a8.995 8.995 0 0 1 1.842-.73l.64-3.665h3.645L30.9 16c.132.042.267.052.394.1.502.187.96.43 1.407.688l3.057-2.153 2.595 2.59-2.245 3.17a8.73 8.73 0 0 1 .72 1.833l3.662.63v2.664l4.796-.823c.07-.22.124-.437.207-.655.288-.785.65-1.52 1.063-2.22l-3.3-4.625 3.965-3.955 4.81 3.398a13.7 13.7 0 0 1 2.927-1.13l.943-5.59h5.586l1.013 5.803c.216.065.434.125.65.204.778.287 1.508.65 2.198 1.055l4.646-3.273 3.933 3.947-3.39 4.812c.48.922.862 1.897 1.125 2.91l5.596.964v5.59l-5.805.998c-.07.218-.125.436-.204.65-.29.78-.653 1.51-1.06 2.205l3.28 4.643z"/></svg>