<svg xmlns="http://www.w3.org/2000/svg" viewBox="0 0 5 7"><title>Fill 1778 + Fill 1779</title><g fill="#1A1918" fill-rule="evenodd"><path d="M3.522 2.178a.485.485 0 0 0-.35-.146h-1.24a.477.477 0 0 0-.35.146L.34 3.422a.303.303 0 1 0 .437.418l.965-.965v1.29H.66c-.2 0-.36.16-.36.36 0 .102.04.194.11.26l1.218 1.22a.367.367 0 0 0 .62-.39l-.694-.695.014.002h1.997l-.697.694c-.1.175-.04.4.134.502a.37.37 0 0 0 .49-.112l1.217-1.22a.35.35 0 0 0 .11-.26c0-.2-.16-.36-.36-.36H3.38V2.89l.947.952a.302.302 0 0 0 .437-.418L3.522 2.178zM2.564 1.905a.592.592 0 1 0 0-1.184.592.592 0 0 0 0 1.185"/></g></svg>