<svg xmlns="http://www.w3.org/2000/svg" viewBox="0 0 29 17"><title>Group</title><g fill="#000" fill-rule="evenodd"><ellipse rx="1.193" ry="1.193" cy="5.849" cx="4.281"/><ellipse rx="1.193" ry="1.193" cy="2.051" cx="21.79"/><path d="M21.84 8.558l-.28 1.35 1.388.356 1.196-2.205 4.076-.885L27.9 5.7l-1.4.305c.44-1.05-.293-1.48-.293-1.48L23.27 2.588l-1.18.84-1.144 1.75s-.552.845-.035 1.296l.055.73-13.798 2.99-.253-.683c.284-.625-.57-1.167-.57-1.167L4.58 7.228 3.156 6.95 1.285 9.93s-.49.696.347 1.468l-1.4.304.32 1.475 4.075-.884 2.003 1.51 1.116-.897-.815-1.113 14.91-3.235zm-16 1.927l-1.563-.75.386-1.194 1.57.74.383 1.037-.775.168zm16.45-3.567l-.775.168-.08-1.102 1.122-1.323.846.927-1.112 1.33z"/><path d="M15.68 16.224V11.48l-1.454-1.27-1.453 1.27v4.744h2.906z"/></g></svg>