<svg xmlns="http://www.w3.org/2000/svg" viewBox="0 0 76 100"><title>baby person infant human hospital healthcare health child birth pregnancy</title><path d="M37.973 24.967c-6.945 0-12.585-5.592-12.585-12.486C25.388 5.59 31.028 0 37.973 0c6.947 0 12.584 5.588 12.584 12.48 0 6.895-5.637 12.487-12.584 12.487zM75.69 76.67l-9.907-34.51C61.82 28.366 50.276 28.796 50.276 28.796H25.67s-11.546-.43-15.504 13.362L.256 76.67c-.946 3.226.834 5.69 3.653 6.496 2.81.808 5.694-.61 6.435-3.192l9.632-33.637 4.706-.007L9.283 100H66.66L51.264 46.33l4.698.007 9.636 33.637c.74 2.583 3.62 4 6.44 3.192 2.817-.807 4.6-3.27 3.65-6.495z" fill-rule="evenodd"/></svg>