<svg xmlns="http://www.w3.org/2000/svg" version="1" viewBox="0 0 94.517 100"><path d="M46.834 29.254c7.994 0 14.448-6.57 14.448-14.64C61.282 6.532 54.828 0 46.834 0S32.378 6.532 32.378 14.614c0 8.07 6.462 14.64 14.456 14.64zm14.056 3.56c6.61.235 9.393 5.59 9.393 5.59l21.34 29.61a8.32 8.32 0 0 1 1.4 4.652c0 4.604-3.69 8.342-8.244 8.342-1.09 0-2.083-.244-3.024-.604l-12.883-3.638v12.997H24.15V76.767l-12.884 3.636a8.178 8.178 0 0 1-3.03.606C3.68 81.01 0 77.27 0 72.665c0-1.735.51-3.343 1.43-4.656l21.33-29.605s2.8-5.355 9.386-5.59H60.89zM46.518 80.687l16.688-5.606-.365-.074c-11.524-3.416-7.045-18.806 4.454-15.372l1.583.557v-17.37l-22.358 7.38-22.37-7.38V60.19l1.576-.558c11.518-3.435 16.005 11.955 4.48 15.37l-.375.078 16.688 5.608zM92.458 100c1.143 0 2.06-.925 2.06-2.08a2.06 2.06 0 0 0-2.06-2.08H2.2c-1.118 0-2.058.92-2.058 2.08 0 1.154.94 2.08 2.058 2.08h90.258z"/></svg>