<svg xmlns="http://www.w3.org/2000/svg" version="1" viewBox="0 0 100.001 85.877"><path d="M32.25 16.127c4.44-.523 7.592-4.555 7.066-9-.525-4.438-4.56-7.594-8.996-7.07a8.1 8.1 0 0 0-7.068 9.008c.55 4.437 4.55 7.593 8.997 7.062M98.8 54.29L65.37 37.308l-8.383-10.79-.1-.117c-1.135-1.054-2.908-.96-3.96.19v.022a2.79 2.79 0 0 0-.31 3.157l6.215 8.022.023.07-5.157 11.82-13.683-3.414-.598-4.898 11.247-1.36a3.554 3.554 0 0 0 1.505-.43 3.83 3.83 0 0 0 1.6-5.155c-.77-1.438-2.3-2.203-3.805-2.03l-11.468 1.382-1.015-8.5c-.55-4.414-4.585-7.594-9.01-7.07-4.43.555-7.604 4.586-7.08 9.03l2.383 19.65c.293 2.507 1.785 4.68 3.767 5.944L9.546 54.98 3.934 68.876c.22-.094.454-.117.65-.21a17.75 17.75 0 0 1 7.42-1.65c2.544 0 5.1.57 7.386 1.626 1.457.664 3.057 1 4.608 1 1.564 0 3.14-.336 4.573-.977a17.63 17.63 0 0 1 7.42-1.648c2.533 0 5.09.57 7.363 1.625 1.48.664 3.08 1 4.633 1 1.575 0 3.134-.336 4.584-.977 2.31-1.078 4.89-1.648 7.42-1.648s5.086.57 7.36 1.625c.55.234 1.152.406 1.737.57 9.193-2.414 25.48-7.07 29.88-11.008 1.283-1.148 1.533-3.078-.167-3.914M0 85.877c2.102 0 4.13-.477 5.916-1.29a14.448 14.448 0 0 1 6.09-1.358c2.178 0 4.23.5 6.1 1.357A14.24 14.24 0 0 0 24 85.877c2.09 0 4.095-.477 5.903-1.29a14.468 14.468 0 0 1 6.09-1.36c2.154 0 4.232.5 6.09 1.36 1.796.813 3.802 1.29 5.903 1.29s4.106-.477 5.922-1.29a14.44 14.44 0 0 1 6.083-1.36c2.157 0 4.234.5 6.067 1.36 1.82.813 3.826 1.29 5.928 1.29a14.25 14.25 0 0 0 5.898-1.29 14.555 14.555 0 0 1 6.09-1.36c2.172 0 4.25.5 6.082 1.36a14.462 14.462 0 0 0 5.935 1.29v-8.86c-2.108 0-4.14-.476-5.936-1.29a14.34 14.34 0 0 0-6.083-1.334c-2.153 0-4.22.477-6.087 1.336a14.25 14.25 0 0 1-5.898 1.287c-2.102 0-4.107-.477-5.928-1.29a14.323 14.323 0 0 0-6.065-1.335c-2.16 0-4.237.477-6.082 1.336a14.49 14.49 0 0 1-5.922 1.288 14.34 14.34 0 0 1-5.904-1.29 14.515 14.515 0 0 0-6.09-1.335c-2.16 0-4.244.478-6.09 1.337A14.424 14.424 0 0 1 24 77.017a14.23 14.23 0 0 1-5.893-1.29 14.532 14.532 0 0 0-6.102-1.335 14.44 14.44 0 0 0-6.09 1.336A14.353 14.353 0 0 1 0 77.018v8.86z"/></svg>