<svg xmlns="http://www.w3.org/2000/svg" viewBox="0 0 11 11"><title>Group</title><g fill="#231F20" fill-rule="evenodd"><path d="M6.412 9.344a1.458 1.458 0 0 1 .838.123c.182.08.387.13.602.13s.423-.05.607-.13a1.455 1.455 0 0 1 1.24 0c.184.08.39.13.604.13v.905c-.213 0-.42-.05-.603-.133-.188-.086-.4-.137-.62-.137-.222 0-.434.05-.622.136a1.44 1.44 0 0 1-1.21 0 1.512 1.512 0 0 0-.62-.137c-.22 0-.433.05-.623.136a1.45 1.45 0 0 1-1.206 0c-.187-.086-.4-.137-.622-.137s-.435.05-.623.136c-.183.083-.388.132-.602.132s-.418-.05-.602-.133a1.53 1.53 0 0 0-.622-.137c-.223 0-.435.05-.623.136-.183.083-.388.132-.602.132v-.906c.215 0 .42-.05.603-.13a1.458 1.458 0 0 1 1.246 0c.182.08.387.13.6.13s.42-.05.603-.13c.108-.048.22-.088.337-.11L9.603 8.34c.186-.045.437-.174.525-.396.017-.042.078-.054.13-.052.092.005.16.085.16.178 0 .147-.112.557-.737.683l-3.268.59zM1.455 2.164A.826.826 0 1 0 1.457.512a.826.826 0 0 0-.002 1.652"/><path d="M3.858 8.844c.042.183.264.36.495.36.29 0 .526-.232.526-.526l-.01-.085-.63-2.703a.703.703 0 0 0-.387-.406l-.926-.556-.422-1.822L5.108 3.1c.213 0 .384-.17.384-.38s-.17-.387-.384-.387H1.35c-.377 0-.55.268-.505.502l.532 2.415c.04.228.19.418.39.518l.013.005 1.548.91.53 2.16zM10.316 2.82h-4.6v.286h4.6V2.82z"/></g></svg>