<svg xmlns="http://www.w3.org/2000/svg" viewBox="0 0 72.301 100"><path d="M34.222 16.97c4.584.012 8.292-3.697 8.292-8.29 0-4.555-3.707-8.262-8.292-8.244-4.563-.018-8.27 3.69-8.29 8.244.018 4.593 3.726 8.3 8.29 8.29zm30.61 68.596h3.616c2.545 0 3.854-2.016 3.854-3.855 0 0-.002-20.29 0-20.39-.002-1.84-1.445-3.88-3.854-3.9h-3.615v28.15z"/><path d="M62.903 57.415H57.6v-3.808c.02-1.467-.846-2.237-2.36-2.22 0 0-.93-.02-2.46 0v-21.88c-.014-5.043-4.342-10.375-10.074-10.366H24.34L6.89 1.31C3.053-2.566-2.562 3.05 1.298 6.898l22.27 22.706V95.21c.022 6.48 9.476 6.293 9.497 0V57.414h1.542v37.792c.022 6.298 9.547 6.482 9.546 0v-9.64h18.75V57.414zM45.84 53.607v3.808h-1.688v-25.31h1.688v21.502z"/></svg>