<svg xmlns="http://www.w3.org/2000/svg" viewBox="0 0 9 9"><title>Shape + Shape</title><g fill="#1A1918" fill-rule="evenodd"><path d="M6.223 1.874A.662.662 0 1 0 6.22.55a.662.662 0 0 0 .003 1.324z"/><path d="M2.915 3.553a.332.332 0 1 1-.478-.46l1.11-1.278a.333.333 0 0 1 .256-.12H5.41a.43.43 0 0 1 .303.122L6.737 2.84l.85-.847a.343.343 0 0 1 .487.48L7.05 3.507c-.31.31-.56.046-.56.046l-.63-.63-.98 1.134.9.9s.188.176.08.526L5.356 7.73a.43.43 0 1 1-.833-.194l.414-1.843-1.02-.994-.88.98s-.143.174-.52.16l-1.782.005A.43.43 0 0 1 .31 5.51a.42.42 0 0 1 .428-.52l1.533.007 2.27-2.63-.592-.002-1.032 1.188z"/></g></svg>