<svg xmlns="http://www.w3.org/2000/svg" version="1" viewBox="0 0 93.882 100"><path d="M74.843 12.472h-23.45l-6.235 6.122h6.234v1.36c0 7.14 5.788 12.926 12.926 12.926s12.926-5.787 12.926-12.925v-7.483h-2.4zm2.4-4.082H50.826L45.156 0h32.087zm9.837 29.025h-1.247L53.32 78.687h26.5v7.256H46.518V100h47.365V44.55c0-3.94-3.046-7.135-6.803-7.135zM0 4.235v26.263l1.023.78L15.25 42.11c.225.188.447.376.7.533l.13.1v-11.47h5.61V4.236H0zm20.33 25.68h-4.25V16.483L1.787 5.596H20.33v24.32z"/><path d="M75.688 37.27H42.152v.02c-1.55.005-3.06.536-4.043 1.776-3.85 4.86-7.69 9.722-11.54 14.583-5.677-4.32-11.35-8.64-17.02-12.97-2.666-2.03-6.85-.42-8.38 2.195-1.84 3.145-.454 6.36 2.196 8.376l20.31 15.47c.2.166.4.336.626.476.08.066.162.127.243.19 1.182.9 2.666 1.08 4.085.776 1.29-.148 2.503-.683 3.335-1.734l.162-.21c.26-.27.488-.56.683-.862L44.954 50v26.27l30.736-39z"/></svg>