<svg xmlns="http://www.w3.org/2000/svg" viewBox="0 0 9 8"><title>Group</title><g fill="#1A1918" fill-rule="evenodd"><path d="M1.382 3.385a.827.827 0 0 0-.084.367l.03 1.97L.65 7.185a.442.442 0 0 0 .322.65.44.44 0 0 0 .453-.224l.748-1.602a.456.456 0 0 0 .04-.18l-.007-1.216 1.15.5.185 1.19a.443.443 0 0 0 .872-.15L4.186 4.72a.447.447 0 0 0-.248-.32L2.91 3.944l.655-1.138.324.412a.34.34 0 0 0 .124.088l1.236.36a.35.35 0 0 0 .397-.208.35.35 0 0 0-.192-.455l-.017-.006-1.074-.316-.81-.97a.806.806 0 0 0-1.275.123l-.897 1.552z"/><path d="M4.93 6.207l-.08.59-2.126.517.02.366h5.188c.183 0 .332-.15.332-.332L8.258.355 7.548.19l-.41 1.837-.682.287L5.85 4.01l.576 1.297-.162.498-1.335.402zM3.485 1.373A.663.663 0 1 0 3.483.048a.663.663 0 0 0 .002 1.325M2.167 1.477a.19.19 0 0 0-.07-.258l-.32-.188a.19.19 0 0 0-.26.07L.53 2.807a.19.19 0 0 0 .07.258l.322.185c.09.053.204.022.257-.068l.988-1.705z"/></g></svg>