<svg xmlns="http://www.w3.org/2000/svg" version="1" viewBox="0 0 100 94.841"><path d="M91.673 33.715A8.327 8.327 0 0 0 100 25.388c0-4.594-3.722-8.303-8.327-8.303-4.58 0-8.315 3.71-8.315 8.303s3.734 8.327 8.315 8.327zM87.57 93.65a8.455 8.455 0 0 0 11.595-2.947l-2.91-1.744c-1.426 2.4-4.545 3.16-6.928 1.74L1.72 39.26 0 42.202 87.57 93.65z"/><path d="M55.858 1.88c-5.06-3.402-11.9-2.063-15.315 3.02-1.88 2.776-2.395 6.29-1.474 9.14l5.82 19.06-17.57 5.602a6.78 6.78 0 0 0-4.19 5.478c-.457 3.71 2.31 6.166 6.03 6.608.846.098 1.41-.147 2.2-.344l23.98-7.934c1.754-.64 3.683-2.385 3.87-3.908.133-1.105.49-2.04.26-2.702l-3.65-13.04 14.415 8.57 1.744 12.503c.147 2.186 1.143 3.758 2.825 4.69L93.65 59.63a4.266 4.266 0 0 0 5.797-1.72c1.143-2.063.368-4.69-1.695-5.82l-14.897-8.697-1.72-22.28a9.084 9.084 0 0 0-3.82-6.534L55.86 1.88z"/></svg>