<svg xmlns="http://www.w3.org/2000/svg" version="1" viewBox="0 0 73.554 100"><path d="M54.567 16.595a8.298 8.298 0 0 0 8.298-8.3C62.868 3.705 59.148-.01 54.567 0a8.272 8.272 0 0 0-8.297 8.295c-.01 4.583 3.71 8.302 8.297 8.3zM43.88 31.87l.05 63.403c.015 6.328 9.342 6.27 9.32-.147l.05-36.896h1.805v36.85c-.02 6.448 9.416 6.61 9.422.194V31.577h1.66v22.746c-.022 5.467 7.384 5.467 7.367.098V29.58c.017-6.706-4.96-10.643-10.2-10.64h-14.79c-3.503-.002-6.045 1.384-8.2 4.442l-7.468 10.883H19.963c-5.23 0-4.94 7.39-.097 7.37H34.8c1.163.02 2.586-.416 3.418-1.66l5.66-8.102zM19.524 70.72v-6.05H13.47v6.05zm3.318-13.47l-4.44-4.392-4.443 4.39 4.44 4.444zm-4.147-8.346l-4.443-4.39-4.393 4.39 4.39 4.442z"/><path d="M27.87 99.958l7.907-41.927h-5.953L22.94 94.1H12.69L5.907 58.03H0l7.713 41.93z"/></svg>