<svg xmlns="http://www.w3.org/2000/svg" version="1" viewBox="0 0 57.919 100"><path d="M37.497 27.226c4.104 0 7.446-3.376 7.446-7.538 0-4.15-3.342-7.53-7.446-7.53-4.12 0-7.447 3.38-7.447 7.53 0 4.162 3.327 7.538 7.447 7.538m20.233 65.74L46.744 59.248V32.264c0-3.537-3.5-3.38-3.5-3.38H29.06s-.596-.088-1.823.924l-8.267 4.878-8.616-8.734c-1.407-1.683-3.892-1.933-5.57-.51-1.686 1.42-1.776 4-.37 5.707l11 11.13c.743.79 1.78 1.34 2.95 1.34a4.05 4.05 0 0 0 2.304-.73l7.245-4.04v19.79L16.82 92.9a5.574 5.574 0 0 0 3.904 6.844c2.947.796 5.985-.98 6.77-3.956L37.18 66.22l9.868 29.635c.798 2.99 3.823 4.766 6.77 3.945 2.947-.795 4.7-3.855 3.913-6.834"/><path d="M2.456 34.947a.987.987 0 0 0 1.406 0l.134-.114c.37-.397.394-1.034 0-1.422l-2.148-2.24a1.016 1.016 0 0 0-1.43-.01l-.112.13c-.394.4-.416 1.04-.023 1.42l2.173 2.24zM23.063 9.68l-12.71 13.884 1.528 1.59 14.19-12.36 9.43-8.778c.375-.434.62-.977.62-1.58 0-1.33-1.06-2.423-2.35-2.436-.64-.012-1.19.238-1.63.614L23.07 9.68z"/></svg>