<svg xmlns="http://www.w3.org/2000/svg" viewBox="0 0 95 61"><path d="M20.15 24.002c4.86-.01 8.808-3.96 8.83-8.83-.022-4.876-3.97-8.825-8.83-8.833a8.817 8.817 0 0 0-8.828 8.83c-.007 4.87 3.943 8.82 8.828 8.83z"/><path d="M29.576 17.23v7.638H16.034c-6.55.046-6.56 8.458 0 8.448h17.768c2.598.01 4.224-2.083 4.225-4.44V17.23c-.002-6.366-8.44-6.366-8.45 0zm9.59-4.55H74.43c5.194-.013 8.242 3.318 8.234 7.8v12.73H39.166V12.68z"/><path d="M9.64 5.312c-.01-6.947-9.647-6.947-9.64 0V61h9.858V46.645H84.83v14.247h9.59V17.88c.025-7.328-9.72-7.328-9.696 0v17.17H9.64V5.313z"/></svg>