<svg xmlns="http://www.w3.org/2000/svg" version="1" viewBox="0 0 66.657 100"><path d="M23.72 100c1.594 0 2.876-1.303 2.876-2.912a2.882 2.882 0 0 0-2.877-2.896c-1.59 0-2.87 1.297-2.87 2.896 0 1.605 1.28 2.912 2.87 2.912zm23.236-.06c1.593 0 2.884-1.31 2.884-2.938 0-1.608-1.29-2.915-2.884-2.915-1.58 0-2.862 1.307-2.862 2.915 0 1.627 1.28 2.94 2.862 2.94zm-28.913-8.604s-1.688-.086-1.688-1.843v-.16c0-1.73 1.688-1.847 1.688-1.847h34.474s1.695.16 1.695 1.847v.16c0 1.686-1.695 1.843-1.695 1.843H18.043zm23.95-75.908c4.213 0 7.637-3.464 7.637-7.73C49.63 3.44 46.206 0 41.994 0c-4.21 0-7.637 3.44-7.637 7.698 0 4.265 3.426 7.73 7.637 7.73zM.564 82.91A4.878 4.878 0 0 0 0 85.206c0 2.714 2.184 4.924 4.89 4.924 1.94 0 3.605-1.14 4.4-2.78l16.666-28.96-6.922-6.99L.562 82.91z"/><path d="M34.03 81.61c-.723 1.644-2.258 2.782-4.046 2.782-2.472 0-4.486-2.21-4.486-4.92 0-.848.188-1.622.518-2.308l6.687-12.887-13.04-14.22c-5.005-5.52-1.438-11.484-1.438-11.484l7.02-13.603-18.617.023c-2.06 0-3.696-1.825-3.696-4.055 0-2.21 1.637-4.032 3.696-4.032H62.98c2.035 0 3.677 1.823 3.677 4.055 0 2.23-1.642 4.034-3.676 4.034H41.484L31.226 44.7l10.44 11.323c3.656 3.85 1.29 8.182 1.29 8.182L34.03 81.61z"/></svg>