<svg xmlns="http://www.w3.org/2000/svg" viewBox="0 0 59 100"><title>waiting-room</title><g fill-rule="evenodd"><path d="M17.848 21.016c5.804-.02 10.5-4.716 10.506-10.507C28.35 4.71 23.652.012 17.848 0 12.062.014 7.365 4.71 7.34 10.51c.025 5.79 4.722 10.487 10.508 10.506z"/><path d="M9.877 33.748C8 21.684 25.413 18.018 28.2 30.385l4.762 23.653h17.7c5.17.016 7.856 4.15 7.87 7.974v32.142c-.014 7.836-11.134 7.796-11.13-.103-.004-7.352 0-25.053 0-25.053H24.784c-5.265.01-8.572-3.607-9.42-7.763L9.877 33.748z"/><path d="M39.122 71.12c5.86 0 5.832 8.686.052 8.696H22.972c-7.91-.01-15.782-5.94-17.857-15.116L.095 40.114c-1.048-5.572 6.988-7.43 8.177-1.707l4.814 23.498c1.322 6.012 5.768 9.214 11.13 9.214H39.12z"/></g></svg>