<svg xmlns="http://www.w3.org/2000/svg" version="1" viewBox="0 0 100 83.101"><path d="M0 0l15.868 16.397 6.093-5.53L16.446.05zm71.534 45.935c3 .834 6.223-.882 7.08-3.962.82-3.032-.93-6.218-3.952-7.076l-2.354-.662-3.046 11.02 2.272.68zm-1.847-12.402L50.692 28.12c-1.25-.328-2.503.43-2.847 1.693l-1.785 6.42c-.35 1.26.33 2.555 1.61 2.934l18.995 5.354 3.022-10.986z"/><path d="M72.687 51.773c-1.448-1.393-3.25-2.5-5.35-3.083L44.31 42.175 30.16 16.802c-.745-1.31-1.944-2.354-3.496-2.783-3.103-.884-6.327.96-7.174 4.096a5.81 5.81 0 0 0 .448 4.295l17.7 31.38s1.45 2.354 5.096 3.564l32.178 9.12L89.834 81.79c.496.524 1.145.93 1.92 1.155 2.247.63 4.6-.728 5.256-2.975.425-1.594-.08-3.267-1.2-4.302L72.686 51.773zm17.17 6.337l3.345 4.423L100 55.03l-5.74-3.233c.54-4.067-1.953-8.005-5.952-9.146-4.4-1.234-8.973 1.344-10.196 5.79-1.25 4.473 1.326 9.073 5.728 10.31 2.09.606 4.22.276 6.017-.64z"/></svg>