<svg xmlns="http://www.w3.org/2000/svg" viewBox="0 0 7 9"><title>Group</title><g fill="#1A1918" fill-rule="evenodd"><path d="M2.84 2.536H1.187c-.4 0-.4.52 0 .52H2.84c.396 0 .396-.52 0-.52"/><path d="M2.84 2.536H1.187c-.4 0-.4.52 0 .52H2.84c.396 0 .396-.52 0-.52M2.648 2.403a.694.694 0 1 0 0-1.393.694.694 0 0 0 0 1.393"/><path d="M2.81 2.58H1.075c-.42 0-.42.544 0 .544H2.81c.417 0 .417-.544 0-.544"/><path d="M5.76 2.58H3.515c.412-.41 1.182-1.182 1.577-1.575.38.445.61.994.666 1.575zm0 .544a2.864 2.864 0 0 1-.665 1.568c-.35-.346-.99-.99-1.42-1.42v-.148H5.76zm-2.866 2.77v-.023l.002.012-.002.013zm3.22-3.044c0-.77-.277-1.507-.78-2.087.002-.002-.127-.14-.127-.14L3.25 2.58l-.034.032c.006.01.015.015.02.025a.383.383 0 0 1 .05.248.417.417 0 0 1-.037.15l-.003.005-.012.03-.013.016a.475.475 0 0 1-.412.21h-.955v2.55l.002.005-.54 2.708a.39.39 0 1 0 .765.15l.558-2.806V5.9h.254V5.9l.558 2.807a.39.39 0 0 0 .765-.15l-.544-2.734V3.54l1.534 1.533.13-.14c.5-.58.777-1.316.777-2.083z"/></g></svg>