<svg xmlns="http://www.w3.org/2000/svg" viewBox="0 0 87 69"><title>Oval + Shape + Shape + Shape</title><g fill-rule="evenodd"><circle cy="28.821" cx="75.209" r="3.909"/><path d="M47.526 11.186a5.575 5.575 0 0 0 5.572-5.573A5.578 5.578 0 0 0 47.526.04a5.574 5.574 0 0 0 0 11.146zm-30.232.036c-3.127 0-5.653-2.512-5.653-5.613C11.65 2.51 14.17 0 17.3 0c3.123 0 5.656 2.51 5.656 5.61s-2.532 5.61-5.655 5.61zm63.58 23.438h-10.55c-.047 0-3.525-.317-3.525-.317l-4.42-15.397C60.6 12.75 55.4 12.94 55.4 12.94H41.11s-5.19-.19-6.97 6.006l-2.18 7.582-2.176-7.582c-1.785-6.195-6.97-6.006-6.97-6.006h-11.06s-5.195-.19-6.97 6.006L.33 34.46c-.422 1.45.37 2.555 1.64 2.922 1.268.364 2.563-.276 2.89-1.434l4.34-15.12 2.114-.004-6.33 26.183h5.595v18.597a2.77 2.77 0 0 0 2.77 2.776 2.785 2.785 0 0 0 2.78-2.777V47.006h2.34v18.596a2.773 2.773 0 0 0 2.77 2.777 2.783 2.783 0 0 0 2.783-2.78V47h5.5l-6.267-26.18 2.106.003L29.65 35.79c.07.255.187.484.335.692.42.63 1.15.987 1.97.96.815.027 1.543-.323 1.962-.95a2.03 2.03 0 0 0 .364-.77l4.27-14.896 1.948-.004v44.24a3.28 3.28 0 0 0 3.282 3.27 3.27 3.27 0 0 0 3.266-3.27v-25.17h2.418v25.17a3.27 3.27 0 0 0 3.267 3.27c1.81 0 3.29-1.464 3.29-3.27v-44.24l2.116.004 4.154 15.12c.22.747.845 1.238 1.59 1.423.03.01.05.03.08.03.655.15 3.702 1.01 5.95 1.652V66.49a2.3 2.3 0 0 0 4.595 0V52.78H76.3v13.71c0 1.268 1.026 2.298 2.293 2.298s2.308-1.03 2.308-2.297V40.86h1.77v8.69c0 .947.77 1.72 1.71 1.72.948 0 1.69-.77 1.69-1.718V39.67c0-2.765-2.432-5.01-5.2-5.01z"/></g></svg>