<svg xmlns="http://www.w3.org/2000/svg" version="1" viewBox="0 0 93.646 99.807"><path d="M69.045 0c-4.69 0-8.51 3.87-8.51 8.614 0 4.778 3.818 8.625 8.51 8.625 4.715 0 8.556-3.85 8.556-8.627C77.6 3.87 73.76 0 69.047 0M4.658 59.453c-.744-1.205-2.292-1.565-3.462-.81-1.192.738-1.548 2.303-.815 3.512a2.53 2.53 0 0 0 3.49.8 2.57 2.57 0 0 0 .79-3.502m1.747 7.037c-.733-1.184-2.28-1.54-3.484-.788a2.547 2.547 0 0 0-.78 3.49 2.474 2.474 0 0 0 3.45.81 2.57 2.57 0 0 0 .814-3.513m1.75 7.058c-.73-1.205-2.318-1.563-3.474-.822-1.206.74-1.548 2.305-.815 3.512.732 1.183 2.316 1.54 3.474.8a2.543 2.543 0 0 0 .814-3.49m1.724 7.038a2.505 2.505 0 0 0-3.45-.824 2.57 2.57 0 0 0-.815 3.512c.733 1.207 2.28 1.563 3.486.822 1.16-.74 1.526-2.315.78-3.51M50.816 94.92a2.575 2.575 0 0 0-1.656 3.213c.447 1.363 1.864 2.078 3.176 1.674a2.596 2.596 0 0 0 1.656-3.214c-.438-1.34-1.857-2.078-3.178-1.672m7.16.06c-1.324.405-2.044 1.84-1.62 3.18.426 1.36 1.856 2.102 3.167 1.67a2.57 2.57 0 0 0 1.63-3.212c-.433-1.328-1.83-2.08-3.175-1.638m7.218.022a2.53 2.53 0 0 0-1.653 3.204c.424 1.336 1.842 2.09 3.177 1.646 1.313-.406 2.058-1.85 1.608-3.214a2.478 2.478 0 0 0-3.132-1.636m7.147.026a2.566 2.566 0 0 0-1.618 3.214c.438 1.326 1.855 2.065 3.168 1.636a2.527 2.527 0 0 0 1.63-3.177 2.53 2.53 0 0 0-3.18-1.67M89.488 38.2h-14.9l-6.854-15.67a5.16 5.16 0 0 0-.32-.752c-.022-.046-.048-.073-.048-.096l-.117-.288-.024.026c-1.277-2.725-3.936-4.67-7.09-4.792a6.207 6.207 0 0 0-1.725.144L20.977 25.66a4.23 4.23 0 0 0-3.145 5.1c.51 2.294 2.733 3.704 5 3.19l24.994-6.01-18.99 31.67H8.51l4.502 17.894c.153.54.153.657.32.943.637 1.053 1.983 1.386 3 .742.557-.324.91-.898 1.018-1.483l2.692-8.29.096-.337 12.525-.047c2.493 0 4.63-.69 5.897-2.806l5.753-9.64 12.82 12.9-5.437 21.634H70.52a2.218 2.218 0 0 0 2.21-2.196c0-.955-.59-1.625-1.324-2.03l-8.117-4.54 3.896-15.552s.97-3.284-2.102-6.317l-10.492-10.62s5.613-9.32 9.207-15.304l4.18 9.58a4.133 4.133 0 0 0 1.55 1.817c0 .023.046.023.046.06.66.43 1.454.69 2.304.69h17.524c2.342.027 4.22-1.91 4.242-4.238a4.21 4.21 0 0 0-4.158-4.268"/></svg>