<svg xmlns="http://www.w3.org/2000/svg" version="1" viewBox="0 0 95.691 100"><path d="M86.61 18.33c5.004 0 9.08-4.108 9.08-9.167C95.69 4.093 91.615 0 86.61 0c-5.016 0-9.077 4.093-9.077 9.163 0 5.06 4.062 9.167 9.076 9.167M60.85 96.54h23.423s1.777.187 1.777-1.69v-1.86h3.448s.797 6.406-3.932 7.014H60.85v-3.46zM2.403 78.22L18.98 94.968s1.11 1.388 2.417.066l1.32-1.334 2.43 2.483s-3.92 5.11-7.682 2.166L0 80.68l2.403-2.46zM66.36 72.4l.03 16.6c0 3.117 2.497 5.65 5.593 5.65 2.822 0 5.58-3.3 5.58-5.65V65.898a5.69 5.69 0 0 0-1.738-4.104L62.42 48.284 80.2 30.31c3.344-4.23 1.58-9.286 1.58-9.286-1.84-5.6-8.14-5.798-8.14-5.798l-45.825-.015c-2.444 0-4.43 2-4.43 4.48s1.986 4.48 4.43 4.48l31.638.05L46.13 37.63c-1.906 1.98-2.874 4.2-2.874 7.09 0 2.786 1.098 5.282 2.926 7.093L66.36 72.4z"/><path d="M43.344 54.346a13.025 13.025 0 0 1-1.163-1.35l-26.44 26.8c-2.01 1.623-2.65 4.476-1.46 6.867 1.39 2.73 4.72 3.815 7.42 2.416a6.86 6.86 0 0 0 1.02-.69l27.15-27.48-6.52-6.57z"/></svg>