<svg xmlns="http://www.w3.org/2000/svg" viewBox="0 0 95 100"><title>health education doctor health-care hospital human medicine person teacher</title><g fill-rule="evenodd"><path d="M13.216 76.2a6.56 6.56 0 1 1 0-13.123 6.56 6.56 0 0 1 0 13.123zM0 100V87.14c0-4.635 3.81-8.403 8.45-8.403h9.063c4.643 0 8.788 3.77 8.788 8.404V100H0zm81.253-24.357a6.567 6.567 0 0 0 6.56-6.564 6.56 6.56 0 0 0-13.122 0 6.565 6.565 0 0 0 6.57 6.56zM94.463 100V87.14c0-4.635-3.81-8.403-8.456-8.403h-9.052c-4.65 0-8.79 3.77-8.79 8.404V100h26.297z"/><ellipse cy="69.582" cx="47.223" rx="6.638" ry="6.583"/><path d="M31.236 100l5.224-14.23c2.092-7.27 8.185-7.047 8.185-7.047h5.172s6.09-.224 8.185 7.046L63.226 100h-31.99zm15.987-45.312v-15.57l-2.585-2.586v15.564H5.533V2.586h39.105V28.02l2.585 2.586V0H2.96v54.688h44.263zm34-28.426a6.554 6.554 0 0 1-6.55-6.548c0-3.62 2.94-6.555 6.55-6.555a6.542 6.542 0 0 1 6.546 6.55 6.54 6.54 0 0 1-6.55 6.55z"/><path d="M52.057 43.49a2.755 2.755 0 0 0 2.763 2.76h9.085c1.032 0 2.388-.415 2.966-1.283 1.96-2.9 4.02-5.957 4.63-6.872v17.178h22.88V37.658c0-4.607-3.6-8.754-7.85-8.754.01 2.163 0 .738 0-.09H75.51a8.395 8.395 0 0 0-6.992 3.74l-5.44 8.208-8.25-.003L43.17 29.1a1.118 1.118 0 0 0-1.586 0 1.122 1.122 0 0 0-.003 1.59l11.09 11.09c-.24.396-.61 1.2-.61 1.707z"/></g></svg>