<svg xmlns="http://www.w3.org/2000/svg" viewBox="0 0 11 10"><title>path5744 + path5748 + path5752</title><g fill="#231F20" fill-rule="evenodd"><path d="M1.937 4.924c-.202 0-.368.166-.368.37a.367.367 0 1 0 .367-.37M7.048 1.855a.8.8 0 0 0 0-1.598.8.8 0 0 0 0 1.6M2.782 3.484a.58.58 0 0 1-.38.227.944.944 0 0 1-.7-.183.96.96 0 0 1-.405-.602l-.01-.115c0-.12.033-.228.1-.32.21-.298.696-.318 1.083-.044.383.274.525.74.312 1.038m7.7 5.493L9.186 7.444 8.78 5.07l-.062-.268c.003.003-.163-.747-.29-1.333l.395.226c.01.023.69 1.314.69 1.314a.407.407 0 1 0 .72-.38l-.746-1.418s-.03-.05-.067-.09c-.054-.053-.172-.12-.172-.12L7.803 2.18a.874.874 0 0 0-.837.017c-.01.003-.33.144-.515.58L5.71 4.27l-1.17.227c-.01.003-.018.004-.026.01L3.456 3.76c-.236-.166-.266-.665-.27-.684-.028-.342-.223-.664-.535-.886a1.29 1.29 0 0 0-.937-.235.89.89 0 0 0-.583.355.856.856 0 0 0-.157.502l.014.162c.054.315.248.607.53.81.286.202.625.288.938.235l.073-.016c.008-.005.477-.15.705.007 0 .004.79.56 1 .71a.365.365 0 0 0-.058.187.406.406 0 0 0 .484.395l1.4-.273s.12-.038.17-.074c.067-.046.116-.144.116-.144l.37-.742.257 1.22c-.03.03-1.15 1.22-1.15 1.22l-.02.022c-.11.102-.17.233-.17.372v2.52a.488.488 0 0 0 .974 0V7.32c.103-.11.96-1.014 1.19-1.254l.248 1.42a.57.57 0 0 0 .153.296c0 .003 1.543 1.824 1.543 1.824a.487.487 0 0 0 .742-.63"/></g></svg>