<svg xmlns="http://www.w3.org/2000/svg" version="1" viewBox="0 0 100 72.177"><path d="M100 72.177a14.67 14.67 0 0 1-6.15-1.36 15.23 15.23 0 0 0-6.34-1.408c-2.272 0-4.438.532-6.35 1.406a14.66 14.66 0 0 1-6.15 1.36c-2.19 0-4.286-.496-6.15-1.36-1.944-.878-4.11-1.408-6.35-1.408-2.263 0-4.43.533-6.352 1.407a14.707 14.707 0 0 1-6.15 1.36c-2.19 0-4.277-.496-6.166-1.36-1.92-.878-4.08-1.408-6.324-1.408-2.264 0-4.432.533-6.352 1.407a14.743 14.743 0 0 1-6.175 1.36c-2.156 0-4.275-.496-6.14-1.36-1.92-.878-4.086-1.408-6.35-1.408-2.247 0-4.405.533-6.326 1.407A14.846 14.846 0 0 1 0 72.177v-9.332c2.19 0 4.277-.51 6.173-1.34a14.91 14.91 0 0 1 6.326-1.432c2.262 0 4.43.53 6.35 1.433 1.863.83 3.98 1.34 6.14 1.34 2.19 0 4.31-.51 6.175-1.34a14.96 14.96 0 0 1 6.352-1.433c2.244 0 4.404.53 6.324 1.433 1.89.83 3.977 1.34 6.168 1.34 2.166 0 4.285-.51 6.148-1.34a14.973 14.973 0 0 1 6.352-1.433c2.238 0 4.404.53 6.35 1.433 1.864.83 3.96 1.34 6.15 1.34 2.19 0 4.278-.51 6.15-1.34a14.91 14.91 0 0 1 6.35-1.433c2.263 0 4.43.53 6.34 1.433 1.873.83 3.96 1.34 6.15 1.34v9.33zm-14.483-26.4c6.566 0 11.895-5.41 11.895-12.053 0-6.646-5.328-12.033-11.895-12.033-6.58 0-11.9 5.39-11.9 12.035-.002 6.642 4.85 12.054 11.9 12.054z"/><path d="M16.23 52.55c.924.226 1.793.55 2.622.928a14.876 14.876 0 0 0 6.143 1.36c2.19 0 4.31-.508 6.174-1.36 1.917-.88 4.084-1.436 6.35-1.436 2.244 0 4.404.556 6.323 1.436 1.888.853 3.975 1.36 6.166 1.36 2.166 0 4.285-.508 6.15-1.36 1.92-.88 4.087-1.436 6.35-1.436 2.24 0 4.405.556 6.35 1.436a14.81 14.81 0 0 0 6.15 1.36 15.18 15.18 0 0 0 4.58-.732l-19.846-36.21 23.08-4.26c3.387-.653 5.848-3.344 5.848-6.79 0-3.8-3.06-6.846-6.795-6.846-.27 0-.52 0-.774.023l-35.65 6.564c-2.503.58-5.817 4.284-3.93 8.833l.304.733 9.305 16.987L16.23 52.55z"/></svg>