<svg xmlns="http://www.w3.org/2000/svg" version="1" viewBox="0 0 89.723 100"><path d="M71.66 52.51l-26.24-4.317 3.764-2.68 6.302.872 6.294-.873zM55.486 2.92c5.26 0 9.524 4.26 9.524 9.527 0 5.263-3.354 9.528-9.524 9.528-5.263 0-9.532-4.265-9.532-9.528 0-5.265 4.27-9.528 9.532-9.528zm2.37 68.857v23.025A5.202 5.202 0 0 0 63.06 100a5.2 5.2 0 0 0 5.2-5.198V71.777c0-2.867-2.328-5.2-5.2-5.2a5.207 5.207 0 0 0-5.204 5.2zm31.867 13.146a3.022 3.022 0 0 1-3.017 3.02h-15.95v-15.08h6.898V57.798a3.02 3.02 0 0 1 3.013-3.013h6.04a3.022 3.022 0 0 1 3.016 3.013v27.126zm-34.355 3.02H24.402a3.02 3.02 0 0 1-3.017-3.02V57.796c0-1.66 1.35-3.013 3.017-3.013h6.036a3.02 3.02 0 0 1 3.016 3.013v15.067h21.914v15.078zM39.062 55.41a5.205 5.205 0 0 0 4.286 5.98l22.72 3.743a5.207 5.207 0 0 0 5.976-4.29c.466-2.833-1.45-5.514-4.286-5.973L45.04 51.123a5.208 5.208 0 0 0-5.978 4.286zm-25.62-28.516C6.03 26.894 0 20.864 0 13.448S6.03 0 13.442 0s13.45 6.03 13.45 13.448-6.038 13.446-13.45 13.446zm0-3.33c5.577 0 10.122-4.537 10.122-10.12 0-5.576-4.545-10.12-10.122-10.12-5.58 0-10.115 4.544-10.115 10.12 0 5.584 4.534 10.12 10.115 10.12z"/><path d="M13.51 15.223a1 1 0 0 1-.965-.072 1 1 0 0 1-.452-.695L12.08 6.64a1.01 1.01 0 0 1 2.022 0v6.062l5.183-2.44a1.01 1.01 0 1 1 .863 1.826l-6.637 3.135zm41.976 14.33l12.35-2.01v8.682l6.1 4.586c.586.59.348 1.265.21 1.455-.35.46-.997.552-1.456.21l-7.696-5.817a3.534 3.534 0 0 0-4.075 5.775l13.146 9.235c.61.432 1.48.724 2.347.724.738 0 1.608-.306 2.254-.765 1.38-.98 1.888-2.72 1.418-4.323L75.2 32.874c-1.303-3.584-4.592-7.805-9.53-7.805H45.298c-4.938 0-8.228 4.22-9.532 7.805l-4.883 14.43c-.47 1.602.042 3.34 1.422 4.322.642.46 1.515.766 2.25.766.87 0 1.74-.29 2.35-.723l13.148-9.235a3.534 3.534 0 0 0-4.075-5.775l-7.7 5.818a1.042 1.042 0 0 1-1.452-.21c-.138-.19-.38-.863.207-1.454 0 0 4.134-3.105 6.1-4.585v-8.684l12.353 2.012z"/></svg>