<svg xmlns="http://www.w3.org/2000/svg" version="1" viewBox="0 0 100 60.921"><path d="M91.67 45.384V60.92h8.202V37.694H8.14V4.088A4.074 4.074 0 0 0 4.062 0C1.812 0 0 1.84 0 4.088V60.92h8.14V45.385h83.53z"/><path d="M20.66 20.47a7.37 7.37 0 0 0 7.373-7.386c0-4.063-3.296-7.36-7.372-7.36s-7.37 3.297-7.37 7.36a7.37 7.37 0 0 0 7.38 7.385z"/><path d="M100 31.585l-.025-10.145c-.026-3.22-2.734-5.443-5.878-5.826L36.185 9.838c-.115-.025-.217-.077-.32-.077a3.633 3.633 0 0 0-3.627 3.63v10.94H17.096a3.64 3.64 0 0 0-3.654 3.63c0 2.02 1.623 3.63 3.654 3.63H100z"/></svg>