<svg xmlns="http://www.w3.org/2000/svg" version="1" viewBox="0 0 93.281 100"><path d="M93.28 100c-2.02 0-4-.476-5.738-1.27a13.83 13.83 0 0 0-5.922-1.34c-2.09 0-4.11.49-5.9 1.34-1.763.795-3.718 1.27-5.762 1.27s-3.992-.476-5.736-1.27a13.798 13.798 0 0 0-5.925-1.34c-2.088 0-4.11.49-5.916 1.34-1.746.795-3.692 1.27-5.734 1.27-2.045 0-4-.476-5.746-1.27-1.8-.85-3.813-1.34-5.925-1.34-2.103 0-4.11.49-5.908 1.34-1.755.795-3.708 1.27-5.752 1.27s-3.99-.476-5.746-1.27a13.813 13.813 0 0 0-5.91-1.34c-2.118 0-4.125.49-5.916 1.34C3.992 99.526 2.044 100 0 100v-8.716c2.044 0 3.992-.463 5.746-1.26a14.1 14.1 0 0 1 5.916-1.315c2.096 0 4.117.486 5.908 1.313a13.88 13.88 0 0 0 5.746 1.26 13.91 13.91 0 0 0 5.752-1.26 14.147 14.147 0 0 1 5.908-1.315c2.112 0 4.125.487 5.924 1.314a13.85 13.85 0 0 0 5.746 1.26c2.042 0 3.988-.463 5.736-1.26 1.806-.827 3.828-1.315 5.916-1.315 2.117 0 4.14.487 5.925 1.314 1.744.798 3.692 1.26 5.736 1.26s3.996-.462 5.76-1.26a14.12 14.12 0 0 1 5.9-1.314c2.107 0 4.13.487 5.92 1.314a13.87 13.87 0 0 0 5.74 1.26V100zM10.013 49.62c3.12 0 5.656-2.563 5.656-5.71 0-3.152-2.537-5.707-5.658-5.707-3.113 0-5.648 2.555-5.648 5.706 0 3.145 2.534 5.71 5.648 5.71zM34.85 75.508H18.686c-2.38 0-4.45-1.43-5.38-3.495L7.33 58.227a5.72 5.72 0 0 1-.18-1.426c0-3.314 2.654-5.987 5.918-5.987l13.13-.02 9.01-4.135c.14-.097.513-.187.906-.187 1.546 0 2.81 1.293 2.81 2.84 0 .963-.483 1.834-1.204 2.346l-9.804 4.462c-.647.52-1.88.586-1.88.586h-5.9l4.948 11.103h10.924c1.08 0 1.837.377 2.498.97l10.71 10.28a3.802 3.802 0 0 1 .192 5.306c-1.418 1.5-3.767 1.6-5.254.194L34.85 75.51zm50.366-18.664c.207.354.72.497 1.188.497.908 0 1.65-.75 1.65-1.69 0-.45-.218-.85-.424-1.223-10.1-19.488-37.368-13.69-40.712-12.42-.558.21-.885.85-.885 1.48 0 .916.744 1.67 1.65 1.67.282 0 .416-.024.655-.102 26.754-6.075 35.466 9.326 36.878 11.79zM89.86 58.6L55.65 80.42 24.513 0c27.87 3.734 63.304 25.62 65.348 58.6z"/></svg>