<svg xmlns="http://www.w3.org/2000/svg" viewBox="0 0 58 100"><title>Shape + Shape</title><path d="M38.567 16.595a8.298 8.298 0 0 0 8.298-8.3C46.868 3.705 43.148-.01 38.567 0a8.272 8.272 0 0 0-8.297 8.295c-.01 4.583 3.71 8.302 8.297 8.3zM27.88 31.87l.05 63.403c.015 6.327 9.342 6.267 9.32-.147l.05-36.896h1.805v36.85c-.02 6.45 9.416 6.61 9.422.194V31.577h1.66v22.746c-.022 5.467 7.384 5.467 7.367.098V29.58c.017-6.706-4.96-10.643-10.2-10.64h-14.79c-3.503-.002-6.045 1.384-8.2 4.442l-7.468 10.883H3.963c-5.23 0-4.94 7.39-.097 7.37H18.8c1.163.02 2.586-.416 3.418-1.66l5.66-8.102z" fill-rule="evenodd"/></svg>