<svg xmlns="http://www.w3.org/2000/svg" viewBox="0 0 11 6"><title>Group</title><g fill="#231F20" fill-rule="evenodd"><path d="M10.612 5.438a1.48 1.48 0 0 1-.606-.13 1.458 1.458 0 0 0-1.243 0c-.185.08-.39.13-.605.13-.213 0-.42-.05-.603-.13a1.453 1.453 0 0 0-1.242 0 1.462 1.462 0 0 1-1.21 0 1.445 1.445 0 0 0-1.242 0 1.456 1.456 0 0 1-1.208 0c-.19-.09-.4-.14-.62-.14-.224 0-.434.05-.624.14-.185.08-.39.13-.605.13v-.906c.215 0 .42-.05.604-.132.19-.085.4-.136.622-.136.22 0 .43.05.622.136a1.458 1.458 0 0 0 1.208 0 1.5 1.5 0 0 1 .62-.136c.22 0 .433.05.622.136a1.464 1.464 0 0 0 1.21 0c.186-.085.4-.136.62-.136.22 0 .433.05.62.136.184.083.39.132.604.132.215 0 .42-.05.605-.132.19-.085.4-.136.624-.136.218 0 .43.05.62.136.182.083.39.132.605.132v.906zM8.146 1.655l1.782.138-.135-.91L8.483.79c-.352-.017-.3.337-.3.337l-.037.528zM4.84 1.447a.59.59 0 0 0 0-1.18.59.59 0 0 0 0 1.18"/><path d="M1.19 3.724c.078-.023.15-.05.22-.083a1.465 1.465 0 0 1 1.244 0 1.458 1.458 0 0 0 1.207 0 1.446 1.446 0 0 1 1.244 0 1.463 1.463 0 0 0 1.21 0 1.454 1.454 0 0 1 1.24 0c.184.084.39.133.604.133.215 0 .42-.05.606-.132a1.457 1.457 0 0 1 1.242 0c.183.084.388.133.603.133l-.2-1.615L3 1.538 4.117.41 3.626.365 2.51 1.495l-2.427-.2C.07 2.126.99 3.5 1.19 3.726"/></g></svg>