<svg xmlns="http://www.w3.org/2000/svg" version="1" viewBox="0 0 100 66.428"><path d="M57.702 34.756a4.955 4.955 0 0 0 6.32-3.09c.9-2.63-.472-5.48-3.07-6.39-2.594-.915-5.42.474-6.32 3.102-.882 2.606.476 5.478 3.07 6.378z"/><path d="M98.405 2.038S81.61 0 46.735 0C21.012 0 0 2.038 0 2.038s8.71 3.884 7.2 15.906 12.505-1.504 17.74 9.326l23.485-7.2-1.54 15.84-9.925 2.46a5.034 5.034 0 0 0-2.23 1.188L12.936 60.833c-1.286 1.233-1.314 3.307-.072 4.585 1.22 1.302 3.27 1.352 4.537.117l16.41-15.98 20.08-4.97-.14.043 3.35-.86 3.068 3.535a2.538 2.538 0 0 0 1.87.846l10.815.04c1.358 0 2.484-1.12 2.484-2.52 0-1.21-.834-2.147-1.94-2.428L65.334 14.9 98.897 4.616c1.603-.7 1.473-2.358-.492-2.578zm-27.427 41.1c-2.464 0-6.565-.02-7.808-.02-1.177-1.348-5.83-6.66-5.83-6.66-.064-.097-.182-.118-.245-.184-1.18-1.396-3.048-2.11-4.92-1.664l-2.91.73 1.552-16.002 12.303-3.766 7.858 27.565z"/></svg>