<svg xmlns="http://www.w3.org/2000/svg" version="1" viewBox="0 0 100 84.495"><path d="M87.44 59.318c5.243 0 9.51-4.267 9.51-9.533 0-5.243-4.267-9.485-9.51-9.485-5.267 0-9.51 4.242-9.51 9.485.002 5.267 4.244 9.533 9.51 9.533z"/><path d="M94.232 80.576c.43.144.882.215 1.358.215 2.43 0 4.41-1.977 4.41-4.407a4.414 4.414 0 0 0-2.74-4.075l-13.157-5.124-9.58-17.017s-.787-1.883-3.55-2.907l-31.41-12.584L20.9 3.05C19.805 1.24 17.827 0 15.54 0c-3.457 0-6.245 2.812-6.245 6.268 0 1.096.286 2.12.787 3.026l23.165 39.3-14.682-5.864-3.694 2.217 58.7 23.094h-.023l2.407 3.814s.953 2.05 3.79 3.17l7.292 2.836c-4.742 4.74-11.392 2.692-11.392 2.692L3.956 51.764 0 54.124l74.857 29.6c8.698 3.168 15.8-4.435 15.8-4.435v.022l3.575 1.263z"/></svg>