<svg xmlns="http://www.w3.org/2000/svg" version="1" viewBox="0 0 98.802 100"><path d="M88.496 55.794V35.826c0-2.833 2.32-5.14 5.17-5.14a5.14 5.14 0 0 1 5.137 5.14V63.17c0 3.78-1.36 7.434-3.802 10.286L77.95 91.564c-1.692 1.593-2.107 3.004-2.107 5.14V100h-18.56l-.02-7.844c0-2.986-.245-6.98 3.494-10.896l21.635-21.725a4.086 4.086 0 0 1 2.853-1.15 4.105 4.105 0 0 1 4.105 4.098c0 .977-.346 1.924-.977 2.67l-10.435 11.18c-.677.792-1.82 2.286-2.39 4.117-.307.95-.394 1.88-.41 2.94h3.358c.014-.757.07-1.365.25-1.93.33-1.057.984-2.006 1.476-2.616l10.593-11.626c1.332-1.343 2.062-3.082 2.062-4.91 0-2.744-1.65-5.268-4.38-6.514zm-78.19 0V35.826c0-2.833-2.32-5.14-5.17-5.14A5.14 5.14 0 0 0 0 35.826V63.17c0 3.78 1.36 7.434 3.802 10.286l17.052 18.107c1.69 1.593 2.106 3.004 2.106 5.14V100h18.56l.02-7.844c0-2.986.244-6.98-3.495-10.896L16.41 59.537a4.086 4.086 0 0 0-2.853-1.15 4.105 4.105 0 0 0-3.128 6.768l10.434 11.178c.677.793 1.82 2.287 2.39 4.118.306.953.393 1.88.41 2.943h-3.358c-.014-.758-.07-1.366-.25-1.93-.33-1.058-.984-2.007-1.476-2.617L7.988 67.218c-1.333-1.343-2.06-3.082-2.06-4.91 0-2.744 1.648-5.268 4.38-6.514zm41.048-46.95a4.407 4.407 0 0 0 0-8.812 4.406 4.406 0 0 0 0 8.813zm-23.902.026c-2.47 0-4.468-1.982-4.468-4.437 0-2.45 2-4.433 4.468-4.433s4.475 1.984 4.475 4.433c0 2.455-2.006 4.436-4.475 4.436z"/><circle cy="22.786" cx="73.244" r="3.09"/><path d="M77.718 27.4h-8.336c-.038 0-2.79-.25-2.79-.25l-3.49-12.17c-1.407-4.9-5.516-4.75-5.516-4.75h-11.3s-4.105-.15-5.51 4.75l-1.723 5.992-1.72-5.992c-1.412-4.9-5.51-4.75-5.51-4.75H23.08s-4.11-.15-5.515 4.75l-3.52 12.263c-.334 1.147.293 2.02 1.297 2.31 1 .285 2.026-.22 2.285-1.134l3.428-11.955 1.67-.003L17.72 37.16h4.423v14.7c0 1.21.977 2.197 2.19 2.197 1.21 0 2.2-.987 2.2-2.197v-14.7h1.856v14.7c0 1.21.975 2.197 2.185 2.197a2.203 2.203 0 0 0 2.204-2.197v-14.7h4.345l-4.953-20.697 1.664.003 3.39 11.827c.056.202.146.387.265.547.333.502.91.78 1.557.76.645.02 1.22-.254 1.552-.75.14-.178.233-.384.29-.61l3.372-11.775 1.538-.003v34.972a2.592 2.592 0 0 0 2.596 2.585 2.583 2.583 0 0 0 2.584-2.587V31.537h1.91v19.897a2.582 2.582 0 0 0 2.582 2.585 2.596 2.596 0 0 0 2.602-2.587v-34.97l1.67.002 3.283 11.953c.178.59.67.977 1.26 1.126.023.007.037.018.06.024.52.12 2.933.802 4.704 1.308v21.69a1.817 1.817 0 0 0 3.635 0V41.728h1.424v10.836c0 1 .81 1.813 1.812 1.813s1.825-.814 1.825-1.815v-20.26h1.395v6.863c0 .752.61 1.36 1.354 1.36.746 0 1.336-.608 1.336-1.36v-7.81c0-2.185-1.924-3.96-4.112-3.96z"/></svg>