<svg xmlns="http://www.w3.org/2000/svg" version="1" viewBox="0 0 100 95.821"><path d="M34.847 13.988h6.015c.023-2.376-.557-7.625 5.773-7.63 4.792.005 4.55 4.06 4.55 4.06s.193 2.758-3.866 4.746c-3.677 1.826-4.017 4.36-4.014 5.478v7.044h6.066v-4.55c.02-1.707 1.23-2.635 3.96-4.598 2.684-1.943 4.474-3.8 4.452-8.02C57.808 6.338 53.65-.012 46.047 0c0 0-5.21-.06-8.218 3.718-2.99 3.744-3.136 5.942-2.984 10.27zm14.477 15.898h-6.017v6.36h6.017zM88.506 69.36c8.84-.015 11.485-7.27 11.494-11.446-.01-5.2-4.483-10.713-10.566-10.713H75.347V35.024L12.345 48.375v3.473l63 12.57V52.826s13.528-.016 13.6 0c3.153-.016 5.464 3.27 5.478 5.283-.014 2.587-1.553 5.49-5.48 5.48 0 0-4.443-.434-4.45 2.737.007 3.21 3.374 3.02 4.013 3.034zM10.633 48.767v2.69H1.536c-2.01-.022-2.084-2.685 0-2.69.06-.02 9.097 0 9.097 0zM69.33 81.295s2.643-.017 3.424 0c.748-.017 2.33.702 2.348 2.15V95.82l-7.483-2.15s-40.74-.004-42.9 0c-2.145-.004-3.003-1.796-2.983-2.74-.02-.97.742-2.78 2.984-2.788h21.62V86.87H24.72c-2.145 0-3.003-1.805-2.983-2.74-.02-.977.742-2.732 2.984-2.737h21.62V80.22s-19.46.005-21.62 0c-2.145.005-3.003-1.747-2.983-2.69-.02-.97.742-2.888 2.984-2.888h21.62v-1.175H24.72c-2.16.016-3.003-1.906-2.983-2.886-.02-.935.73-2.784 2.984-2.785h18.05l-6.064-1.663c-1.542-.538-2.323-1.92-1.907-3.52.444-1.558 1.746-2.22 3.96-1.81l36.34 7.04v7.044c-.02 1.692-1.167 2.794-2.396 2.788H69.33c-2.147.006-2.147 3.603 0 3.62z"/></svg>