<svg xmlns="http://www.w3.org/2000/svg" version="1" viewBox="0 0 100 82.704"><path d="M17.473 82.588h-7.398C4.952 82.58.005 78.828 0 72.288c0 0 .005-46.696 0-46.838.005-5.786 4.833-10.182 10.075-10.186h7.398v67.324zm46.552-67.21V5.7c.028-3.486-3.065-5.715-6.83-5.688 0 0-14.392-.027-14.34 0-3.75-.027-6.894 2.202-6.887 5.688v9.678H22.48v67.325h55.146V15.378h-13.6zm-5.064 0H40.92v-9.96h18.04v9.96zm23.62 67.21h7.4c5.088-.01 10.03-3.762 10.02-10.302 0 0 .017-46.695 0-46.837.017-5.79-4.812-10.19-10.015-10.19h-7.4v67.32z"/></svg>