<svg xmlns="http://www.w3.org/2000/svg" version="1" viewBox="0 0 49.583 63.261"><path d="M35.927 4.326a1.158 1.158 0 0 1-.983-1.14c0-.437.248-.8.592-1.012-.36-.2-.592-.582-.592-1.01 0-.647.51-1.164 1.152-1.164h5.72c.64 0 1.15.517 1.15 1.164 0 .444-.247.824-.622 1.01.36.195.623.576.623 1.012a1.16 1.16 0 0 1-.983 1.14l6.943 18.983c.433 1.22.656 2.6.656 3.97v33.66a2.284 2.284 0 0 1-2.288 2.286H30.6a2.28 2.28 0 0 1-2.272-2.288V27.286c0-1.375.224-2.75.64-3.98l6.96-18.98zM4 23.446a.83.83 0 0 0 .55.21c.466 0 .842-.38.842-.84 0-.148-.05-.285-.104-.414l-.943-2.208a1.346 1.346 0 0 0-1.2-.743 1.35 1.35 0 0 0-.983 2.29L4 23.45zm3.11.412c.08.185.13.396.13.6 0 .87-.705 1.576-1.568 1.576-.312 0-.61-.105-.856-.268l-3.77-3.154a2.796 2.796 0 0 1-.654-1.804c0-1.528 1.23-2.78 2.75-2.78 1.13 0 2.114.71 2.513 1.705l1.456 4.125zm12.08 2.782a.84.84 0 0 1 .825.833v1.294c0 .46-.377.833-.825.833l-.767-.032c.92.582 1.592 1.594 1.592 2.782v28.29c0 1.448-1.152 2.62-2.577 2.62H2.598A2.605 2.605 0 0 1 0 60.64l.016-28.29c0-1.188.656-2.2 1.584-2.782l-.768.032a.82.82 0 0 1-.816-.833v-1.294c0-.453.36-.833.816-.833H19.19z"/></svg>