<svg xmlns="http://www.w3.org/2000/svg" version="1" viewBox="0 0 100 72.392"><path d="M58.823 17.958c7.955 0 14.862 4.38 18.675 10.834l22.476.026v-12.18c0-4.534-3.647-8.21-8.12-8.21H8.094C3.61 8.428 0 12.103 0 16.638l.023 12.076 40.112.027c3.84-6.43 10.72-10.78 18.688-10.78M21.006 4.56h-7.45l-.862 2.715h8.93l-.618-2.715zM88.19 3.112h-9.92L76.51 7.3H89.8l-1.61-4.188zM54.137 5.854h-8.54V1.678h8.54v4.176zM61.965 0h-24.11l-4.967 7.352h33.625L61.965 0zm16.698 30.97c1.243 2.767 1.977 5.813 1.977 9.055 0 12.18-9.77 22.067-21.816 22.067-12.062 0-21.83-9.888-21.83-22.067 0-3.242.724-6.288 1.977-9.07H0V64.21c0 4.507 3.608 8.184 8.096 8.184h83.756c4.474 0 8.12-3.677 8.12-8.184L100 30.97H78.663z"/><path d="M70.72 32.775a10.732 10.732 0 0 0-1.242-1.74c-2.547-3.1-6.36-5.14-10.654-5.14-4.31 0-8.12 2.027-10.668 5.113-.468.563-.9 1.14-1.267 1.767-1.28 2.127-2.06 4.585-2.06 7.25 0 7.788 6.26 14.114 13.984 14.114 7.69 0 13.95-6.33 13.95-14.12 0-2.67-.76-5.12-2.054-7.25"/></svg>