<svg xmlns="http://www.w3.org/2000/svg" version="1" viewBox="0 0 56.062 100"><path d="M52.836 93.436h-1.52c-.886-1.01-1.216-2.276-.95-3.837.444-2.58 2.278-4.71 3.152-5.02l-.013-.03a3.28 3.28 0 0 0 2.164-3.07l.06-67.35c0-1.808-1.46-3.28-3.23-3.29 0 0-13.48-.014-17.18-.04l.02-7.527c0-1.33-.77-2.52-1.986-3.03a3.23 3.23 0 0 0-3.53.69L7.274 23.58C3.32 27.56.19 35.082.18 40.74L0 87.857c-.012 6.59 5.278 11.99 11.824 12.017l41 .127c1.783 0 3.24-1.47 3.24-3.26v-.01c-.002-1.82-1.43-3.28-3.228-3.29M49.24 17.4c0 5.62-.05 55.18-.063 60.81h-36.95l23.138-19.603-.048-41.23c2.1.01 11.974.025 13.922.025M6.48 87.872s.013-2.713.013-3.11H45.19c-.558 1.19-1 2.444-1.216 3.712-.304 1.752-.152 3.39.24 4.938l-32.368-.102c-2.96 0-5.365-2.43-5.365-5.438"/></svg>