<svg xmlns="http://www.w3.org/2000/svg" version="1" viewBox="0 0 100 95.423"><path d="M.117 1.59h16.746v8.99c.025 2.07 1.514 2.79 3.524 1.938L47.65.122c.792-.344 1.792.08 2.174.764l2.172 4.702c.298.742.044 1.645-.764 2.055L13.16 24.797C6.618 28.265.144 23.75.117 17.57V1.59zm90.72 20.857l8.87-7.108-5.053-6.816L86.72 14.4l3.645-11.87L82.492.123 78.38 12.637 74.266.122l-7.932 2.41 3.642 11.87-8.167-5.995-5.053 6.815 9.108 7.225h-9.168v72.977H100V22.446h-9.164zM73.97 86.904h-9.167V51.18h9.167v35.724zm0-44.245h-9.167V31.084h9.167V42.66zm17.922 44.243h-9.168V51.18h9.168v35.724zm0-44.245h-9.168V31.085h9.168V42.66zM46.768 80.676V30.673H32.55l.06-8.342c-.057.03-26.736 11.93-26.736 11.93C1.558 36.324 0 39.332 0 43.425V83.73c0 6.425 5.16 11.69 11.104 11.693h35.783V88.02c-4.384-.537-4.384-6.795-.12-7.344zm-35.84 6.58c-3.92-.024-3.905-5.523 0-5.523h24.97c-1.736 1.287-1.623 4.328.236 5.524H10.927zm27.85-13.34H16.92l15.63-7.048V38.78h6.23v35.136z"/></svg>