<svg xmlns="http://www.w3.org/2000/svg" viewBox="0 0 21 46"><title>Shape + Shape</title><path d="M4 5.445a.83.83 0 0 0 .55.21c.466 0 .842-.38.842-.84 0-.147-.05-.284-.104-.413l-.943-2.208a1.346 1.346 0 0 0-1.2-.743 1.35 1.35 0 0 0-.985 2.29L4 5.45zm3.11.413c.08.185.13.396.13.6 0 .87-.705 1.576-1.568 1.576-.312 0-.61-.105-.856-.268l-3.77-3.154a2.796 2.796 0 0 1-.654-1.804c0-1.528 1.23-2.78 2.75-2.78 1.13 0 2.114.71 2.513 1.705L7.11 5.858zM19.19 8.64a.84.84 0 0 1 .825.833v1.294c0 .46-.377.833-.825.833l-.767-.032c.92.582 1.592 1.594 1.592 2.782v28.29c0 1.448-1.152 2.62-2.577 2.62H2.598A2.605 2.605 0 0 1 0 42.64l.016-28.29c0-1.188.656-2.2 1.584-2.782l-.768.032a.82.82 0 0 1-.816-.833V9.473c0-.453.36-.833.816-.833H19.19z" fill-rule="evenodd"/></svg>