<svg xmlns="http://www.w3.org/2000/svg" viewBox="0 0 6 9"><title>Fill 39</title><path d="M4.946 2.558H3.864l.87-.35a.182.182 0 0 0-.135-.34l-.98.397.8-.794a.186.186 0 0 0 .054-.13.182.182 0 0 0-.31-.13l-1.126 1.12.005-1.59a.18.18 0 0 0-.18-.18H2.86c-.1 0-.18.08-.182.18l-.005 1.59c-.363-.365-1.01-1.02-1.01-1.02a.183.183 0 0 0-.258 0 .183.183 0 0 0 0 .258l.703.71-1.013-.405a.182.182 0 1 0-.134.338l.872.348H.787a.272.272 0 0 0-.273.272v5.8c0 .15.122.27.273.27h4.16c.15 0 .27-.12.27-.27v-5.8c0-.15-.12-.272-.27-.272zm-.272 2.426H3.042v-1.88h1.632v1.88zm-1.996 0h-1.62v-1.88h1.62v1.88zm-1.62.364h1.62v3.008h-1.62V5.348zm1.984 0h1.632v3.008H3.042V5.348z" fill="#1A1918" fill-rule="evenodd"/></svg>