<svg xmlns="http://www.w3.org/2000/svg" version="1" viewBox="0 0 100 89.076"><path d="M67.428 25.05L51.752 10.61 61.572 0 95 30.835c-7.12 7.927-13.836 13.22-24.523 14.277l-3.05-20.062zm4.182 50.267c.105 1.677.52 3.36 1.263 4.988 3.275 7.146 11.692 10.297 18.825 7.02 7.133-3.276 10.27-11.693 7.02-18.826a14.198 14.198 0 0 0-10.61-8.11l-2.316 14-14.18.92z"/><path d="M82.613 72.117l-9.247-12.603a15.624 15.624 0 0 0-6.277 10.798l15.52 1.805zm-40.285-38.6l2.317-9.122 6.958-7.587 10.583 9.78-45.11 48.73c-3.616 3.853-6.35 8.527-7.85 13.758L0 86.163c1.868-6.375 5.167-12.133 9.552-16.96l32.776-35.686zm15.978 42.065a15.626 15.626 0 0 1 6.02 12.336h-15.62l9.6-12.336z"/></svg>