<svg xmlns="http://www.w3.org/2000/svg" version="1" viewBox="0 0 58.687 100"><path d="M49.896 11.807H35.27c-2.615-.024-2.517 3.877 0 3.887h14.626v1.945H35.32c-2.652-.01-2.555 3.89 0 3.88h14.576v2.04H35.32c-2.652.01-2.555 3.91 0 3.93h14.576v1.94H35.32c-2.596-.01-2.555 3.89 0 3.89h14.576v1.94H35.32c-2.596.01-2.605 3.908 0 3.89h14.576v1.99H35.32c-2.596-.02-2.605 3.88 0 3.89h14.576v1.94H35.32c-2.596 0-2.605 3.897 0 3.89h14.576v1.94H35.32c-2.596.017-2.555 3.92 0 3.935h14.576v37.8c-.024 5.78 8.788 5.68 8.79 0V5.975c-.002-2.616-2.18-5.95-5.78-5.926L35.272 0c-2.617.02-2.52 3.92 0 3.936h14.626v1.942H35.27c-2.612 0-2.515 3.9 0 3.888h14.626v2.04zM32.99 88.18c-.5 3.203.587 8.944 2.864 11.028 2.386 2.18 5.202-.594 4.033-2.864-1.172-2.217-2.655-3.435-1.41-8.746l-5.488.582z"/><path d="M28.324 69.572v-25.75L23.464 1.41C23.322.254 22.624-.01 21.96 0c-.647-.01-1.346.253-1.458 1.41l-4.76 42.412v25.75C6.76 64.902.02 72.19 0 78.802.023 84.72 4.374 89.57 10.593 89.59c6.197-.02 10.446-5.454 10.443-10.785V52.908h1.992v25.895C23.034 84.957 28 89.495 33.33 89.49c6.68.005 10.938-4.704 10.93-10.637.007-6.715-6.932-13.952-15.936-9.28zm-17.83 14.574c-2.91.005-5.274-2.36-5.295-5.293.02-2.902 2.38-5.266 5.29-5.25a5.262 5.262 0 0 1 5.29 5.25 5.29 5.29 0 0 1-5.296 5.293zm23.27 0c-2.896.005-5.26-2.36-5.247-5.293a5.226 5.226 0 0 1 5.248-5.25c2.938-.016 5.303 2.348 5.296 5.25a5.273 5.273 0 0 1-5.29 5.293z"/></svg>