<svg xmlns="http://www.w3.org/2000/svg" viewBox="0 0 38 36"><title>Shape</title><path d="M.107 35.588h37.348V0H.107v35.588zM3.3 8.085c0-2.625 2.12-4.75 4.758-4.75h21.47a4.75 4.75 0 0 1 4.756 4.75V20.99H31.4l-1.784-4.852a.753.753 0 0 0-1.415.01c-.106.297-.504 1.43-.997 2.836-.76-3.174-2.358-9.875-2.358-9.875a.748.748 0 0 0-.776-.577c-.368.018-.666.3-.707.663s-1.223 10.92-1.577 14.044c-.64-.96-1.274-1.92-1.274-1.92a.755.755 0 0 0-.627-.33h-2.9a2775.45 2775.45 0 0 0-1.777-4.853.76.76 0 0 0-.715-.49.74.74 0 0 0-.7.5l-1.006 2.836c-.758-3.17-2.357-9.875-2.357-9.875a.753.753 0 0 0-1.48.09c0-.002-1.222 10.916-1.578 14.04L6.097 21.32a.75.75 0 0 0-.624-.33H3.3V8.084zm26.227 24.537H8.057a4.75 4.75 0 0 1-4.758-4.76v-5.37h1.76c.37.553 2.195 3.3 2.195 3.3a.755.755 0 0 0 1.376-.333c.037-.315.81-7.206 1.33-11.815.87 3.66 1.95 8.167 1.95 8.167.074.325.356.56.69.577.337.02.64-.187.75-.5 0 0 .61-1.737 1.156-3.27.578 1.57 1.25 3.38 1.25 3.38a.74.74 0 0 0 .7.493h3.02c.37.552 2.196 3.3 2.196 3.3a.75.75 0 0 0 .8.313c.31-.072.538-.332.572-.647s.812-7.206 1.334-11.818c.87 3.664 1.946 8.17 1.946 8.17.075.325.357.56.69.577.337.02.64-.187.748-.5 0 0 .617-1.737 1.158-3.27.575 1.57 1.243 3.38 1.243 3.38a.747.747 0 0 0 .702.493h3.41v5.37a4.752 4.752 0 0 1-4.75 4.758z" fill-rule="evenodd"/></svg>