<svg xmlns="http://www.w3.org/2000/svg" version="1" viewBox="0 0 75.264 100"><path d="M35.705 29.44c0 1.316-1.04 2.34-2.365 2.34H8.587c-1.334 0-2.366-1.024-2.366-2.34V8.568c0-1.316 1.04-2.34 2.37-2.34h24.75c1.33 0 2.37 1.024 2.37 2.34V29.44zm28.857 2.667c-3.132-.688-4.268-2.297-4.268-3.778v-5.4s2.082.46 2.58.59c1.016.264 1.66 1.82 1.688 3.18.034 1.36 0 5.395 0 5.395zm6.306 32.772c0-.06-.868-6.63-.868-6.63V27.9c0-3.252-1.067-5.894-3.27-8.113L52.67 5.797c-.97 0-3.655 2.677-3.655 2.677 0 .972 6.978 7.898 6.978 7.898l-.207 11.778c0 4.182 3.398 7.57 7.598 7.57l1.884.027-.67 22.507.937 7.718 4.225 22.774c.156 3.7-3.227 5.9-5.894 5.9-2.47 0-5.334-2.038-5.334-4.67l.052-39.912c0-4.853-3.94-8.793-8.793-8.793h-8.48c.6-.03.62-26.13.62-31.67V8.57c0-4.725-3.86-8.57-8.59-8.57H8.59C3.853 0 0 3.845 0 8.568V100h41.94l.028-53.12h7.916a3.302 3.302 0 0 1 3.295 3.295v39.8C53.18 95.32 58.17 100 63.86 100c5.377 0 11.4-4.277 11.4-10.025-.095-1.325-4.397-25.096-4.397-25.096z"/></svg>