<svg xmlns="http://www.w3.org/2000/svg" viewBox="0 0 38 45"><title>Shape + Shape</title><path d="M7.464 0s.652 12.88 11.942 11.79S20.68 1.025 7.464 0m11.82 41.89a6.536 6.536 0 0 1-5.35 2.748c-1.8 0-3.563-.844-4.75-2.03-2.43-2.653-5.584-8.582-5.584-8.582C1.835 30.438.887 27.666.887 24.86c0-5.978 4.838-11.16 10.823-11.16 2.952 0 5.615 1.182 7.572 3.092a10.785 10.785 0 0 1 7.566-3.092c5.987 0 10.823 5.182 10.823 11.157 0 2.804-.94 5.578-2.71 9.166 0 0-3.15 5.928-5.58 8.582-1.19 1.187-2.95 2.03-4.75 2.03a6.527 6.527 0 0 1-5.34-2.748" fill-rule="evenodd"/></svg>