<svg xmlns="http://www.w3.org/2000/svg" viewBox="0 0 10 7"><title>Fill 2126 + Fill 2127 + Fill 2128</title><g fill="#1A1918" fill-rule="evenodd"><path d="M1.69 3.05L3.21.52h-.78L.907 3.053v3.95h.783V3.052zM7.552 3.053L9.072.518h-.78l-1.52 2.535v3.95h.78v-3.95z"/><path d="M7.003 1.04l-.074.125H3.787l.074-.125.075-.125h3.14l-.074.125zm-.28.47l-.075.124h-3.14l.073-.125.075-.126h3.14l-.073.125zm-.28.468l-.075.125h-3.14l.074-.125.074-.125h3.14l-.074.125zm-.282.468l-.073.125h-3.14l.074-.124.075-.125h3.14l-.074.126zM3.613.51l-1.52 2.543h4.274L7.888.51H3.612z"/></g></svg>