<svg xmlns="http://www.w3.org/2000/svg" version="1" viewBox="0 0 100 99.663"><path d="M47.8 0h4.473v17H47.8V0zm-.264 82.663h4.472v17h-4.472v-17zm35.467-36.117H100v4.46H83.003v-4.46zM0 46.27h17v4.472H0V46.27zM6.473 25.4l2.17-3.906 14.853 8.235-2.17 3.916L6.472 25.4zm17.83-18.178l3.786-2.376 9.016 14.42-3.786 2.362-9.016-14.406zM64.73 78.916l3.856-2.22 8.5 14.722-3.858 2.23-8.498-14.732zm12.995-11.888l2.17-3.905 14.876 8.235-2.184 3.918-14.864-8.248zM27.1 93.852l-3.905-2.17 8.235-14.876 3.918 2.16L27.1 93.85zM7.342 74.962L4.99 71.177l14.407-9.02 2.363 3.788-14.418 9.017zM79.324 35.07l-2.24-3.882 14.718-8.5 2.243 3.882-14.72 8.5zM67.956 22.327l-3.918-2.18 8.246-14.854 3.907 2.17-8.233 14.864zm-45.52 27.45c0-15.25 12.37-27.62 27.62-27.62 15.237 0 27.596 12.37 27.596 27.62S65.294 77.382 50.055 77.382c-15.25.003-27.62-12.355-27.62-27.605"/></svg>