<svg xmlns="http://www.w3.org/2000/svg" version="1" viewBox="0 0 75.344 100"><path d="M37.674 54.126c7.482 0 10.953 5.68 11.683 13.745.174 1.93-.008 4.745-.255 8.003-.84 10.825-1.808 24.128 5.4 24.128 6.096 0 9.228-11.694 11.035-25.026 1.745-13.197-.103-19.765.806-25.625 1.733-11.104 11.425-21.06 8.43-35.215-1.657-7.853-5.98-11.547-10.265-13.1-9.868-3.592-16.24 3.33-26.834 3.33s-16.966-6.922-26.84-3.33C6.554 2.587 2.232 6.28.57 14.135c-2.99 14.155 6.697 24.11 8.434 35.213.908 5.86-.94 12.427.806 25.625C11.617 88.303 14.75 100 20.845 100c7.205 0 6.242-13.303 5.4-24.127-.248-3.258-.428-6.07-.255-8 .727-8.068 4.244-13.747 11.684-13.747z"/></svg>