<svg xmlns="http://www.w3.org/2000/svg" version="1" viewBox="0 0 69.036 100"><path d="M39.833 7.718v2.754H27.936V6.145h-3.44c0-2.697-2.913-6.138-7.083-6.145-4.01.007-7.666 3.156-7.668 7.914.003 2.257 1.3 4.275 2.458 4.968C7.65 14.554 1.565 20.302.353 23.796c-1.658 3.347 2.927 6.143 5.26 2.8 2.38-3.332 5.023-7.43 12.883-9.39v3.44c-3.232.63-12.15 5.885-12.144 16.08v59.342C6.344 97.545 7.03 100 9.99 100h26.107c2.96 0 3.646-2.455 3.637-3.932V36.726c.01-10.193-8.594-15.45-11.848-16.078v-4.13h11.948v2.558L69.036 23.5V3.44L39.833 7.72zm-22.517 3.147c-1.857.005-3.373-1.51-3.392-3.392a3.44 3.44 0 0 1 3.392-3.393c1.88.02 3.397 1.536 3.392 3.393a3.376 3.376 0 0 1-3.392 3.392z"/></svg>