<svg xmlns="http://www.w3.org/2000/svg" version="1" viewBox="0 0 88.108 100"><path d="M36.786 50.287l3.955 5.84h7.367l3.398-5.84-3.58-6.22h-7.38l-3.758 6.22zM39.82 97.26V84.055l-7.38 4.15-3.76-2.152V81.4l10.944-6.22V66.5l-7.94 5.1v-9.195l-7.588 4.374v12.466l-4.15 2.572-3.51-2.322V71.14L4.92 77.64 0 75.57V70.3l12.09-6.61-7.562-3.8v-4.822l4.29-2.35 10.846 6.387 7.533-4.346-.182-.14-7.7-4.418 7.476-4.64-7.503-4.346L8.442 47.59l-4.068-2.027v-4.808l7.34-4.123L0 30.272v-5.27l4.5-2.318 11.544 6.666v-8.497l3.48-2.348 4.264 2.46-.028 12.718 7.756 4.43-.027-8.986 8.132 4.375v-8.68L28.68 18.59v-4.613l3.76-2.18 7.378 4.15V2.767L44.04 0l4.26 2.768v13.18l7.647-4.235 3.845 2.544v4.15L48.47 24.823v8.68l7.744-4.724v9.447l7.98-4.348v-13.6l3.843-1.79 4.038 1.79v8.694l11.88-6.416 4.152 2.53v4.92l-11.6 6.596 7.253 4.066v4.697L80 47.45l-11.138-6.583-7.702 4.892 7.45 4.64-7.674 4.416 7.926 4.15L80 52.746l3.578 2.53v4.487L76.59 63.69l11.126 6.61v5.188l-4.71 2.152-10.93-6.22v8.23l-3.928 2.195-3.843-2.194V67.157l-8.092-4.61v8.68L48.47 66.5v8.68L59.41 81.4v4.92l-3.776 1.885-7.337-4.15v13.207L44.04 100l-4.22-2.74z"/></svg>