<svg xmlns="http://www.w3.org/2000/svg" version="1" viewBox="0 0 95.942 100"><path d="M44.382 70.073v23.69s.79 6.236-6.93 6.236h-30.5c-7.737 0-6.928-6.237-6.928-6.237v-23.69h44.358zM30.31 2.877A6.012 6.012 0 0 0 25.164 0L15.34.016c-3.456 0-6.257 2.83-6.257 6.328 0 1.23.367 2.368.96 3.324l.06.092a25.63 25.63 0 0 1 4.6 14.7c0 9.27-4.904 17.413-12.213 21.862l-.09.03a5.09 5.09 0 0 0-2.347 4.31v7.513h44.36V30.543s.06-2.558-1.647-5.712L30.31 2.88zm35.33 0A6.05 6.05 0 0 1 70.786 0l9.852.016c3.443 0 6.243 2.83 6.243 6.328 0 1.23-.334 2.368-.927 3.324l-.092.09c-2.876 4.19-4.6 9.24-4.6 14.7 0 9.27 4.906 17.414 12.245 21.863l.06.03c1.434.91 2.378 2.463 2.378 4.313v7.512H51.54v-27.63s-.032-2.56 1.672-5.713L65.64 2.878zm30.288 67.196v23.69s.79 6.236-6.944 6.236H58.482c-7.737 0-6.943-6.237-6.943-6.237v-23.69h44.387zM51.72 66.35a2.132 2.132 0 0 0 2.118-2.14c0-1.14-.96-2.093-2.117-2.093h-7.077c-1.16 0-2.073.952-2.073 2.093 0 1.186.913 2.14 2.072 2.14h7.08z"/></svg>