<svg xmlns="http://www.w3.org/2000/svg" viewBox="0 0 28 42"><title>Group</title><g fill-rule="evenodd"><path d="M13.98 35.066C6.27 35.066 0 28.796 0 21.08 0 13.367 6.27 7.092 13.98 7.092s13.99 6.275 13.99 13.988c0 7.716-6.28 13.986-13.99 13.986zm0-3.462c5.802 0 10.53-4.72 10.53-10.528 0-5.798-4.73-10.526-10.53-10.526-5.803 0-10.52 4.728-10.52 10.526-.002 5.81 4.717 10.528 10.52 10.528z"/><path d="M14.053 22.927a1.04 1.04 0 0 1-1.005-.076 1.047 1.047 0 0 1-.47-.723L12.563 14a1.053 1.053 0 0 1 2.105 0v6.304l5.393-2.538a1.048 1.048 0 0 1 1.4.498c.25.53.02 1.154-.5 1.403l-6.905 3.26zM8 33h12v9H8zM8 0h12v9H8z"/></g></svg>