<svg xmlns="http://www.w3.org/2000/svg" version="1" viewBox="0 0 98.867 100"><path d="M37.2 63.062l24.825 14.336-2.46 4.258L34.742 67.32z"/><path d="M84.9 89.814c7.17-6.772 11.71-16.284 11.71-26.9 0-13.082-6.868-24.88-17.553-31.51l11.97-20.718-1.88-1.083L92.1 4.47 84.36 0 81.4 5.127l-1.98-1.144-29.425 50.974 2.57 1.484-3.65 6.313 6.467 3.736 3.65-6.318 2.564 1.484 12.374-21.43c7.587 4.836 12.458 13.312 12.458 22.688 0 14.832-12.078 26.9-26.912 26.9H37.834V100h61.033V89.814H84.9zM30.722 11.488V3.405h.995l-.015-1.94h-9.07l.016 1.94h1.068v8.083H16.95V3.405h.99l-.01-1.94H8.85l.018 1.94h1.07v8.083H0v40.506h40.57V11.488h-9.85zm6.414 37.077H3.433V14.92h6.503v25.877c0 1.96 1.6 3.55 3.532 3.55 1.938-.008 3.48-1.595 3.48-3.55V14.92h6.767v25.877c0 1.96 1.6 3.55 3.532 3.55 1.937-.008 3.478-1.595 3.474-3.55V14.92h6.417v33.645z"/></svg>