<svg xmlns="http://www.w3.org/2000/svg" viewBox="0 0 100 50"><title>Shape + Shape + Shape</title><g fill-rule="evenodd"><path d="M51.95 26.513l-.003 3.258c3.077-.43 2.77-3.18.003-3.25v-.006zm-3.19-3.92V19.72c-2.28.398-2.235 2.837 0 2.872z"/><path d="M50.343 12.16c-7.053 0-12.772 5.72-12.772 12.772 0 7.054 5.72 12.772 12.78 12.772 7.058 0 12.77-5.718 12.77-12.772 0-7.053-5.72-12.77-12.77-12.77l-.006-.002zm1.57 20.85v2.28h-3.17v-2.313c-1.815-.266-5.137-2.017-5.343-5.78h3.335c.21.962.49 2.126 2.008 2.558l-.004-3.78c-2.09-.3-5.09-1.212-5.09-4.56 0-3.76 4.16-4.933 5.082-4.933v-2.274h3.137v2.274c2.114.123 5.185 1.89 5.185 5.252h-3.3c-.085-.998-.858-1.98-1.85-2.048v3.466c2.52.258 5.48 1.22 5.48 4.61 0 2.957-2.97 5.115-5.48 5.248h.007z"/><path d="M0 49.564h100V0H0v49.564zm9.423-9.424V9.423h81.153V40.14H9.423z"/></g></svg>