<svg xmlns="http://www.w3.org/2000/svg" version="1" viewBox="0 0 52.66 99.959"><path d="M24.4 32.602c-.018 3.233-2.977 6.71-6.812 6.71v54.795c0 7.803-10.607 7.803-10.623 0V39.313c-3.722 0-6.972-2.88-6.965-7.168V1.95c-.007-2.62 3.787-2.72 3.812.103v22.313h3.153V1.848c0-2.407 3.652-2.563 3.66.103v22.417h3.252V1.9C13.9-.64 17.45-.74 17.435 2v22.366h3.255V1.9c-.012-2.514 3.695-2.616 3.71.1v30.602zM52.66 8.965v85.142c.014 7.606-10.612 7.493-10.622 0V60.304h-5.643V8.964c-.006-11.952 16.28-11.952 16.265 0z"/></svg>