<svg xmlns="http://www.w3.org/2000/svg" viewBox="0 0 120 120"><path d="M55.875 94.89S48 83.41 27.937 83.41C9.557 83.407 0 88.75 0 88.75V14.528s9.556-5.34 27.938-5.466C48 8.927 55.875 20.668 55.875 20.668V94.89zm8.15 0s7.875-11.48 27.94-11.48c18.38 0 27.937 5.342 27.937 5.342V14.527s-9.556-5.34-27.938-5.466c-20.06-.13-27.936 11.61-27.936 11.61v74.22z" fill="#010101"/><path d="M60.09 118S48 100.58 27.94 100.58c-18.382 0-27.938 5.34-27.938 5.34v-8.893s9.556-5.34 27.938-5.466c20.06-.133 32.15 17.55 32.15 17.55V118zm.002 0s12.09-17.425 32.153-17.425c18.382 0 27.938 5.343 27.938 5.343v-8.893s-9.556-5.34-27.938-5.466c-20.062-.14-32.153 17.54-32.153 17.54v8.89z" fill="#010101"/></svg>