<svg xmlns="http://www.w3.org/2000/svg" version="1" viewBox="0 0 100 100"><path d="M85.355 14.645C75.912 5.2 63.355 0 50 0S24.088 5.2 14.645 14.645 0 36.645 0 50s5.2 25.91 14.645 35.355C24.088 94.8 36.645 100 50 100s25.912-5.2 35.355-14.645C94.8 75.91 100 63.355 100 50s-5.2-25.912-14.645-35.355zM88.853 50a38.638 38.638 0 0 1-7.472 22.88L27.12 18.62A38.636 38.636 0 0 1 50 11.148c21.423 0 38.853 17.43 38.853 38.852zm-77.706 0a38.65 38.65 0 0 1 7.706-23.2L73.2 81.146A38.646 38.646 0 0 1 50 88.852c-21.423 0-38.853-17.43-38.853-38.852z"/><path d="M44.093 34.558v-2.83h12.793c4.13 0 8.3 3.84 8.3 8.97 0 4.374-2.828 7.606-6.49 8.46l8.107 8.106c5.475-3.377 9.456-9.446 9.456-16.705 0-9.973-7.98-19.66-18.806-19.66H32.697v2.262l11.396 11.395zm-11.396 6.85v37.9H43.95V60.142h7.487z"/></svg>