<svg xmlns="http://www.w3.org/2000/svg" viewBox="0 0 100 55"><title>diabetes</title><g fill-rule="evenodd"><path d="M7.563 54.977C.543 54.977 0 47.413 0 47.413V.003h92.995S100-.322 100 6.128c0 6.782-6.056 6.41-6.056 6.41H69.116a8.59 8.59 0 0 0-1.974-.484L46.834 9.49l-22.45-6.47a1.35 1.35 0 0 0-1.673.918c-.2.718.21 1.5.92 1.71l22.9 6.6a6.113 6.113 0 0 1 3.69 2.937 6.072 6.072 0 0 1 .53 4.668 6.093 6.093 0 0 1-2.937 3.68 6.1 6.1 0 0 1-4.64.537c-.01-.003-.02-.003-.035-.003L33.5 21.273c-4.997-1.566-8.716.007-12.666 1.67-3.04 1.286-6.184 2.605-10.45 2.896a23.6 23.6 0 0 1-1.713.06 1.346 1.346 0 0 0-1.37 1.34c-.01.74.62 1.4 1.37 1.4 5.728-.01 9.716-1.69 13.23-3.18 3.77-1.59 6.74-2.848 10.81-1.57l2.026.583c-2.695 1.243-4.713 3.8-5.112 6.95-.454 3.62 1.346 7.017 4.3 8.766a8.04 8.04 0 0 0-3.48 5.66c-.556 4.403 2.577 8.694 6.982 9.122H7.562z"/><path d="M72.135 21.64c-.428 3.364-3.508 5.76-6.873 5.33l-14.888-1.875a8.776 8.776 0 0 0 2.998-4.487 8.796 8.796 0 0 0-1.387-7.706l14.817 1.867a6.158 6.158 0 0 1 5.333 6.87M64.94 35.88a6.124 6.124 0 0 1-2.334 4.09 6.108 6.108 0 0 1-4.54 1.242L37.662 38.64a6.153 6.153 0 0 1-5.328-6.87 6.1 6.1 0 0 1 2.33-4.086 6.1 6.1 0 0 1 4.54-1.25l20.404 2.578a6.155 6.155 0 0 1 5.332 6.867M55.422 49a5.332 5.332 0 0 1-5.944 4.614l-11.72-1.48a5.328 5.328 0 0 1-4.61-5.944 5.327 5.327 0 0 1 5.944-4.606l11.716 1.477a5.325 5.325 0 0 1 4.652 5.27c0 .23-.006.45-.038.67"/></g></svg>