<svg xmlns="http://www.w3.org/2000/svg" viewBox="0 0 101 71"><title>oncology</title><path d="M10.467 26.104V5.824c0-2.876-2.355-5.217-5.25-5.217A5.218 5.218 0 0 0 0 5.823v27.77c0 3.84 1.382 7.55 3.86 10.446l17.32 18.39c1.718 1.61 2.14 3.05 2.14 5.22V71h18.847l.02-7.966c0-3.036.25-7.09-3.548-11.067L16.67 29.904a4.147 4.147 0 0 0-2.9-1.166c-2.3 0-4.17 1.863-4.17 4.16 0 .99.35 1.954.993 2.712L21.19 46.962c.688.805 1.85 2.32 2.426 4.18.312.968.4 1.91.418 2.99h-3.41c-.015-.772-.072-1.39-.256-1.963-.333-1.08-1-2.04-1.498-2.66L8.11 37.7c-1.35-1.363-2.09-3.13-2.09-4.987 0-2.787 1.675-5.35 4.45-6.616zm79.416 0V5.824c0-2.876 2.355-5.217 5.25-5.217a5.22 5.22 0 0 1 5.217 5.217v27.77c0 3.84-1.382 7.55-3.86 10.446L79.17 62.432c-1.718 1.615-2.14 3.05-2.14 5.22V71H58.186l-.02-7.966c0-3.036-.25-7.09 3.548-11.067l21.972-22.062a4.144 4.144 0 0 1 2.896-1.166c2.3 0 4.17 1.86 4.17 4.15a4.21 4.21 0 0 1-.992 2.71l-10.6 11.35c-.687.807-1.848 2.32-2.426 4.18-.312.97-.4 1.91-.418 2.99h3.41c.016-.77.072-1.39.256-1.96.333-1.075 1-2.038 1.5-2.658L92.238 37.7c1.353-1.362 2.093-3.13 2.093-4.986 0-2.788-1.67-5.353-4.44-6.617z" fill-rule="evenodd"/></svg>