<svg xmlns="http://www.w3.org/2000/svg" viewBox="0 0 120 120"><path d="M0 39h23.628v41.998H0z"/><path d="M46.93 107.44L18.05 80.998v-41.33l28.88-27.106L53.554 60z"/><path d="M46.93 12.563S53.553 36.387 53.553 60s-6.625 47.436-6.625 47.436m59.452 7.104l-9.78-5.035c.115-.224 11.713-23.197 11.713-51.188 0-27.802-13.417-50.66-13.553-50.888l9.44-5.65c.618 1.03 15.112 25.59 15.112 56.53 0 30.76-12.4 55.21-12.93 56.23z"/><path d="M88.49 101.37l-9.78-5.035c.08-.16 8.533-16.937 8.533-37.337 0-20.337-9.756-36.863-9.854-37.027l9.43-5.65c.47.78 11.42 19.34 11.42 42.68 0 23.16-9.36 41.59-9.758 42.37z"/><path d="M71.573 86.925l-9.78-5.035c.047-.09 5.22-10.405 5.22-22.895 0-12.3-5.946-22.498-6.007-22.6l9.445-5.638c.31.516 7.57 12.807 7.57 28.238 0 15.244-6.173 27.42-6.44 27.93z"/></svg>