<svg xmlns="http://www.w3.org/2000/svg" version="1" viewBox="0 0 100 100"><path d="M77.745 49.936h-3v-4.108c0-3.57-2.735-4.32-5.03-4.32h-8.058c-2.495 0-4.634-1.237-5.868-3.396-.983-1.717-1.27-3.828-.856-5.745-2.67-.315-4.462-1.48-5.562-2.518-1.78-1.68-2.8-4.02-2.8-6.43 0-4.53 3.086-9.116 8.982-9.116v3c-4.73 0-5.98 4-5.98 6.117 0 1.585.676 3.13 1.856 4.245 1.366 1.288 3.288 1.898 5.557 1.765a1.502 1.502 0 0 1 1.38 2.258c-.834 1.42-.823 3.448.027 4.935.492.86 1.457 1.886 3.264 1.886h8.057c4.954 0 8.03 2.803 8.03 7.317v4.108z"/><path d="M82.418 49.936h-3V44.42c0-4.873-3.35-10.052-9.556-10.052h-4.764a1.5 1.5 0 0 1-1.214-2.38c1.086-1.498 1.734-3.335 1.734-4.915 0-3.968-3.147-6.848-7.483-6.848v-3c5.977 0 10.483 4.233 10.483 9.848 0 1.4-.333 2.883-.947 4.295h2.19c7.86 0 12.558 6.636 12.558 13.052v5.516zm-4.673 10.54h-3v-9.06h3zm4.69 0h-3v-9.06h3zm-9.365.034v-8.95H60.74l8.953 8.953zm-55.973-8.952v8.953h34.786l-8.953-8.95z"/><path d="M85.355 14.645C75.91 5.2 63.355 0 50 0S24.088 5.2 14.645 14.645C5.2 24.088 0 36.645 0 50c0 13.356 5.2 25.912 14.645 35.355C24.088 94.8 36.645 100 50 100s25.91-5.2 35.355-14.645C94.8 75.912 100 63.355 100 50c0-13.355-5.2-25.912-14.645-35.355zM88.852 50a38.637 38.637 0 0 1-7.47 22.878L27.12 18.62A38.643 38.643 0 0 1 50 11.148c21.423 0 38.852 17.43 38.852 38.852zm-77.705 0c0-8.69 2.868-16.72 7.706-23.2L73.2 81.146A38.652 38.652 0 0 1 50 88.852c-21.423 0-38.853-17.43-38.853-38.852z"/></svg>