<svg xmlns="http://www.w3.org/2000/svg" viewBox="0 0 120 120"><path d="M60.005 23.3c9.8 0 19.014 3.816 25.946 10.75C92.89 40.98 96.7 50.196 96.7 60s-3.816 19.02-10.75 25.952c-6.93 6.932-16.147 10.75-25.95 10.75s-19.02-3.818-25.952-10.75C27.116 79.02 23.298 69.802 23.298 60s3.818-19.02 10.75-25.952c6.932-6.93 16.15-10.75 25.956-10.75m-.004-20c-14.51.002-29.023 5.54-40.094 16.61-22.144 22.143-22.143 58.044 0 80.187 11.072 11.08 25.583 16.61 40.094 16.61s29.02-5.535 40.094-16.607c22.144-22.144 22.144-58.044 0-80.188C89.032 8.836 74.524 3.298 60.012 3.3z"/><path d="M18.183 33.033l14.85-14.848 68.395 68.396-14.848 14.85z"/></svg>