<svg xmlns="http://www.w3.org/2000/svg" viewBox="0 0 311 311"><title>Shape + Shape + Shape</title><g fill-rule="evenodd"><path d="M310.95 269.56l-83.38-83.42c28.87-47.7 21.93-108.86-16.89-148.88-38.81-40.022-99.74-48.825-148.3-21.428C13.828 43.228-10.14 99.93 4.045 153.852c14.186 53.91 62.953 91.48 118.7 91.43 22.38.01 44.33-6.14 63.43-17.78l83.46 83.5 41.32-41.44zM46.88 122.72c.086-41.866 34.004-75.785 75.87-75.87 41.88.064 75.81 33.995 75.87 75.87 0 41.9-33.97 75.87-75.87 75.87-41.9 0-75.87-33.97-75.87-75.87z"/><path d="M84.486 115.13h76.024v18.75H84.486v-18.75z"/><path d="M113.13 86.486h18.75v76.024h-18.75V86.486z"/></g></svg>