<svg xmlns="http://www.w3.org/2000/svg" version="1" viewBox="0 0 100 77.873"><circle cy="6.626" cx="42.312" r="6.626"/><path d="M77.766 53.256H63.923c-3.812 0-3.96 5.866 0 5.866h7.096l-13.5 13.494c-2.99 2.99 1.24 7.32 4.412 4.143L75.23 63.43v7.02c-.02 3.81 5.896 3.96 5.904 0V56.692c0-2.053-1.377-3.44-3.372-3.44z"/><path d="M88.27 7.188H72.86c-3.187 0-7.284 1.303-9.728 3.747L48.872 25.18v-4.175c0-8.896-13.12-8.8-13.12 0v17.032h.027L23.38 50.43c-1.17 1.17-1.312 1.22-3.607 1.22-.002.003-7.578 0-7.578 0C4.572 51.65 0 58.505 0 64.315s4.573 13.153 12.875 13.153h13.5c3.186 0 7.047-1.218 10.233-4.217l39.522-39.4c.845-.75 1.313-.98 2.766-.98h9.76c4.697 0 11.345-5.32 11.345-13 0-7.592-6.69-12.66-11.73-12.68zm-.7 19.026h-8.335c-3.53 0-5.094.495-7.125 2.526L32.286 68.565c-1.61 1.614-3.654 2.253-6.278 2.253H12.875c-3.374 0-6.347-2.854-6.347-6.603 0-3.748 2.835-5.848 5.768-5.848h9.01c2.624 0 4.35-.75 5.85-2.25L67.653 15.62c1.666-1.664 3.312-1.873 6.145-1.873H87.66c3.374 0 5.644 3.77 5.644 6.02s-1.61 6.448-5.734 6.448z"/></svg>