<svg xmlns="http://www.w3.org/2000/svg" version="1" viewBox="0 0 71.602 100"><path d="M20.686 40.87h5.95a3.025 3.025 0 0 0 3.048-3.022V20.114a3.035 3.035 0 0 0-3.047-3.035h-5.95v23.79zm0 35.338h5.95a3.035 3.035 0 0 1 3.048 3.035v17.733A3.032 3.032 0 0 1 26.637 100h-5.95V76.207zm-7.118-17.662c-.048-16.21 3-17.663 4.737-17.663h.5V17.09h-.62C15.093 17.09 0 22.674 0 58.547 0 94.417 15.092 100 18.187 100h.62V76.208h-.5c-1.74 0-4.69-1.464-4.74-17.662zM34.016 23.9a6.8 6.8 0 0 1 1.57 4.367 6.803 6.803 0 0 1-1.57 4.368l3.356 2.762c1.643-2 2.548-4.535 2.548-7.13a11.26 11.26 0 0 0-2.548-7.128l-3.356 2.76zM44.8 43.358a21.666 21.666 0 0 0 5.688-14.65c0-5.417-2-10.618-5.666-14.617l-3.262 2.847a17.362 17.362 0 0 1 4.595 11.77c0 4.393-1.643 8.583-4.642 11.808L44.8 43.36zm-3.262-2.142zm-.024 0zm.024 0z"/><path d="M52.225 51.32a32.138 32.138 0 0 0 8.832-22.16 32.21 32.21 0 0 0-8.76-22.115l-3.214 2.928A27.883 27.883 0 0 1 56.7 29.16c0 7.188-2.714 14.02-7.665 19.233l3.19 2.928z"/><path d="M59.676 59.283c7.69-8.02 11.926-18.566 11.926-29.683 0-11.08-4.213-21.59-11.854-29.6l-3.143 3A38.343 38.343 0 0 1 67.27 29.6c0 9.998-3.81 19.47-10.736 26.672l3.142 3.01z"/></svg>