<svg xmlns="http://www.w3.org/2000/svg" viewBox="0 0 48 44"><title>Shape + Shape</title><g fill-rule="evenodd"><path d="M4.188 8.774v20.842h-3.12A1.068 1.068 0 0 1 0 28.546V1.652C0 .742.68 0 1.61 0h13.78C16.32 0 17 .738 17 1.648v1.58h21.307c.593 0 1.07.477 1.07 1.065v6.048h-18.19V8.76c0-.908-.677-1.648-1.613-1.648H5.8c-.934 0-1.612.75-1.612 1.664z"/><path d="M47.754 42.238c0 .59-.477 1.065-1.07 1.065H9.448c-.593 0-1.07-.475-1.07-1.065V15.34c0-.91.68-1.65 1.61-1.65h13.778c.932 0 1.614.738 1.614 1.648v1.58h21.304c.593 0 1.07.478 1.07 1.065v24.255z"/></g></svg>