<svg xmlns="http://www.w3.org/2000/svg" version="1" viewBox="0 0 100 77.478"><path d="M42.327 13.28c3.663-.014 6.63-2.98 6.617-6.616A6.635 6.635 0 0 0 42.327 0a6.644 6.644 0 0 0-6.616 6.664c0 3.636 2.97 6.602 6.62 6.616z"/><path d="M88.27 7.226H72.875c-3.184-.022-7.28 1.28-9.714 3.707L48.9 25.2v-4.177c-.006-8.9-13.125-8.803-13.14 0v17.034h.047l-12.39 12.388c-1.18 1.17-1.323 1.22-3.61 1.22-.01.003-7.603 0-7.603 0C4.592 51.665.02 58.52 0 64.335c.02 5.803 4.592 13.146 12.905 13.14 0 0 10.302.007 13.467 0 3.208.007 7.07-1.212 10.278-4.224l39.51-39.37c.832-.77 1.302-1 2.77-.98 0 0 5.432-.012 9.76 0 4.682-.012 11.33-5.34 11.31-12.993.02-7.612-6.677-12.676-11.73-12.67zm-.66 19.006h-8.35c-3.535-.003-5.1.492-7.135 2.533L32.285 68.56c-1.59 1.634-3.634 2.273-6.24 2.25h-13.14c-3.385.023-6.357-2.83-6.335-6.568-.022-3.76 2.813-5.858 5.726-5.867h9.01c2.645.01 4.37-.74 5.864-2.25l40.5-40.5c1.67-1.654 3.313-1.86 6.145-1.875h13.843c3.396.014 5.665 3.784 5.68 6.054-.016 2.226-1.626 6.425-5.728 6.428z"/></svg>