<svg xmlns="http://www.w3.org/2000/svg" viewBox="0 0 36 34"><title>Shape + Shape + Shape</title><path d="M17.7 33.05a22.45 22.45 0 0 0-4.19-15.44A22.475 22.475 0 0 0 .133 8.83 22.44 22.44 0 0 0 4.32 24.272a22.452 22.452 0 0 0 13.38 8.78zm-2.185-16.893a25.408 25.408 0 0 1 2.25 3.77 25.49 25.49 0 0 1 2.243-3.77 24.964 24.964 0 0 1 3.322-3.713A22.43 22.43 0 0 0 17.807 0a22.448 22.448 0 0 0-5.527 12.518 25.26 25.26 0 0 1 3.235 3.64zm19.875-7.33a22.473 22.473 0 0 0-13.376 8.784 22.63 22.63 0 0 0-2.957 5.577 24.918 24.918 0 0 1 1.154 9.183 22.424 22.424 0 0 0 10.994-8.098A22.44 22.44 0 0 0 35.39 8.828z" fill-rule="evenodd"/></svg>