<svg xmlns="http://www.w3.org/2000/svg" version="1" viewBox="0 0 100 100"><path d="M67.205 57.564l.02-11.474H81.08c2.364 0 3.843-3.257 1.274-5.92-.034-.036-11.034-11.035-11.034-11.035v-8.123L55.375 36.958l-8.787.003 20.617 20.605zm-10.29 7.926v7.83c0 6.045 8.05 6.735 9.89 2.068l-9.89-9.898zm-28.51-28.534h-7.643c-6.567 0-6.506 9.207.157 9.207h4.66V73.32c0 6.825 10.356 6.825 10.356 0V60.88H52.31L28.407 36.956z"/><path d="M85.355 14.645C75.912 5.2 63.355 0 50 0S24.088 5.2 14.645 14.645C5.2 24.088 0 36.645 0 50s5.2 25.912 14.645 35.355C24.088 94.8 36.645 100 50 100s25.912-5.2 35.355-14.645C94.8 75.912 100 63.355 100 50s-5.2-25.912-14.645-35.355zM88.853 50a38.638 38.638 0 0 1-7.32 22.672l-54.21-54.2A38.643 38.643 0 0 1 50 11.15c21.423 0 38.853 17.43 38.853 38.852zm-77.705 0a38.65 38.65 0 0 1 7.767-23.282L73.287 81.08A38.646 38.646 0 0 1 50 88.853c-21.423 0-38.852-17.43-38.852-38.853z"/></svg>