<svg xmlns="http://www.w3.org/2000/svg" viewBox="0 0 9 9"><title>Group</title><g fill="#231F20" fill-rule="evenodd"><path d="M3.704.964l.6-.28-.28-.594-.596.275.277.6zM3.44 1.47l-.986-.333-.335.986.988.332.333-.986zM3.448 1.882l1.804-.17.15 1.72-1.298.153-.526-.7-.13-1.003zM5.675 4.758l.627.38.364-.065.43-.71v-.018l-.628-.38-.363.065-.43.71v.018zM5.94 5.644l1.166.156-.15 1.19-.825-.116-.307-.595.118-.636z"/><path d="M4.776 5.75l-3.15-3.81L.94.26.277.058.28 8.346c0 .23.185.415.414.415l5.667-.004-.464-1.652-1.12-1.355"/><path d="M4.312 4.423l.274-.205-.39-.515-.262.198v.523h.378zM8.465 8.776H7.438v-.73l.42-.422.607.463v.69z"/></g></svg>