<svg xmlns="http://www.w3.org/2000/svg" version="1" viewBox="0 0 100 99.999"><path d="M49.973 100h-.003c-13.356-.008-25.908-5.213-35.347-14.658C5.18 75.89-.012 63.328 0 49.966-.012 36.63 5.177 24.082 14.614 14.64 24.05 5.2 36.594 0 49.94 0h.062C63.352 0 75.91 5.2 85.35 14.638c9.44 9.44 14.64 21.985 14.65 35.332-.01 13.37-5.216 25.927-14.66 35.373-9.447 9.444-22.005 14.65-35.367 14.656zm-.033-88.506c-10.273 0-19.93 4.003-27.196 11.273-7.262 7.27-11.258 16.928-11.25 27.2-.008 10.298 3.992 19.972 11.262 27.248 7.267 7.276 16.932 11.283 27.215 11.29 21.24-.012 38.52-17.297 38.54-38.535-.01-21.21-17.28-38.47-38.5-38.47h-.062z"/><path d="M54.323 44.643V33.436c3.194.23 5.688 3.4 5.983 6.637h10.607c.012-10.883-9.883-16.604-16.7-17.025v-7.344H44.097v7.344c-2.977.023-16.39 3.817-16.375 15.99-.016 10.834 9.657 13.79 16.375 14.74v12.24c-4.894-1.385-5.79-5.153-6.473-8.267h-10.77c.69 12.18 11.392 17.85 17.243 18.72v7.51h10.227v-7.4c8.087-.437 17.666-7.42 17.68-16.973-.015-10.987-9.557-14.102-17.68-14.956zM44.15 42.845c-7.2-.112-7.344-8.004 0-9.302v9.302zm10.283 23.23V55.52c8.92.245 9.913 9.14 0 10.554z"/></svg>