<svg xmlns="http://www.w3.org/2000/svg" viewBox="0 0 23 51"><title>Group</title><path d="M9.616 50.957C9.85 43.097 5.574 40.134.36 38.18c-1.735 6.724 3.046 12.32 9.256 12.777m1.18-35.102c3.326-7.124.57-11.552-3.46-15.408-4.23 5.496-2.054 12.528 3.46 15.408m1.876 19.82c-.23-7.86 4.043-10.83 9.26-12.78 1.727 6.724-3.052 12.32-9.26 12.78m0 12.115c-.23-7.856 4.043-10.822 9.26-12.775 1.727 6.72-3.052 12.32-9.26 12.776m0-24.22c-.23-7.86 4.043-10.83 9.26-12.785 1.727 6.728-3.052 12.32-9.26 12.787M9.616 38.84C9.85 30.984 5.574 28.01.36 26.063c-1.735 6.724 3.046 12.32 9.256 12.78m0-12.113C9.85 18.866 5.574 15.895.36 13.94c-1.735 6.73 3.046 12.322 9.256 12.79" fill-rule="evenodd"/></svg>