<svg xmlns="http://www.w3.org/2000/svg" version="1" viewBox="0 0 100 78.078"><circle cy="6.626" cx="42.312" r="6.626"/><path d="M59.667 78.078H73.51c3.81 0 3.958-5.866 0-5.866h-7.096L79.907 58.72c2.99-2.992-1.24-7.32-4.418-4.144l-13.3 13.33v-7.022c.02-3.812-5.898-3.96-5.907 0V74.64c0 2.052 1.38 3.438 3.374 3.438z"/><path d="M88.27 7.188H72.86c-3.187 0-7.284 1.302-9.728 3.747L48.872 25.18v-4.176c0-8.896-13.12-8.798-13.12 0v17.032h.026L23.384 50.43c-1.17 1.17-1.312 1.22-3.607 1.22-.002.004-7.578 0-7.578 0C4.57 51.65 0 58.505 0 64.314s4.573 13.153 12.875 13.153h13.5c3.185 0 7.047-1.218 10.234-4.216l39.52-39.4c.84-.75 1.31-.98 2.76-.98h9.76c4.694 0 11.344-5.324 11.344-13 0-7.592-6.698-12.66-11.73-12.674zm-.7 19.026h-8.335c-3.53 0-5.094.495-7.125 2.526L32.286 68.564c-1.61 1.614-3.655 2.253-6.28 2.253h-13.13c-3.375 0-6.348-2.854-6.348-6.602s2.835-5.85 5.768-5.85h9.01c2.624 0 4.35-.75 5.85-2.248L67.654 15.62c1.667-1.666 3.312-1.874 6.145-1.874h13.86c3.37 0 5.64 3.77 5.64 6.02s-1.61 6.448-5.738 6.448z"/></svg>