<svg xmlns="http://www.w3.org/2000/svg" version="1" viewBox="0 0 100 55.02"><path d="M99.43 26.647C88.42 9.962 69.943 0 50.007 0 30.073 0 11.593 9.962.57 26.647L0 27.51l.57.86c11.013 16.688 29.496 26.65 49.436 26.65 19.936 0 38.415-9.962 49.425-26.655l.57-.855-.57-.863zm-93.396.863c8.122-11.254 20.03-18.825 33.38-21.476a23.952 23.952 0 0 0-6.114 4.42c-4.543 4.54-7.046 10.578-7.046 16.994a23.88 23.88 0 0 0 7.046 17 24.104 24.104 0 0 0 6.505 4.61C26.3 46.48 14.235 38.872 6.035 27.51zm44.22 14.826c-8.186 0-14.837-6.66-14.837-14.84 0-3.963 1.546-7.685 4.34-10.494a14.742 14.742 0 0 1 10.496-4.343c3.96 0 7.687 1.54 10.494 4.34a14.76 14.76 0 0 1 4.343 10.49c0 3.96-1.54 7.69-4.34 10.492a14.772 14.772 0 0 1-10.493 4.343zm10.904 6.543a23.99 23.99 0 0 0 6.13-4.44 23.9 23.9 0 0 0 7.04-17c0-9.21-5.226-17.226-12.856-21.25C74.468 9 86.032 16.5 93.97 27.51c-8.004 11.092-19.685 18.616-32.812 21.37z"/><path d="M45.106 28.33c2.706 0 4.903-2.192 4.903-4.902s-2.2-4.906-4.91-4.906a4.903 4.903 0 0 0-4.907 4.906A4.902 4.902 0 0 0 45.1 28.33"/></svg>