<svg xmlns="http://www.w3.org/2000/svg" viewBox="0 0 29 11"><title>path8785 + path8787 + path8789</title><g fill="#000" fill-rule="evenodd"><path d="M28.63 4.698a1.21 1.21 0 0 0-.103-.296l-5.25-4.17H12.71c-.244-.014-.377.1-.493.236L8.685 4.006.962 5.29c-.107.093-.215.185-.302.427l.017 2.657c.167.426.28.37.408.43h1.487c0-3.612 5.38-3.598 5.38 0h13.72c0-3.62 5.34-3.612 5.34 0h1.22c.204-.02.32-.2.417-.412l-.02-3.694zm-11.342-.172h-7.32c-.28-.11-.317-.276-.2-.48l2.63-2.596c.06-.05.107-.12.21-.104h4.68v3.18zm7.58 0h-6.71v-3.18h3.936c.103-.015.15.054.21.105l2.255 2.272c.207.313.625.742.307.805z"/><path d="M5.25 6.625a2.184 2.184 0 1 0 0 4.368 2.184 2.184 0 0 0 0-4.368zm0 3.1a.922.922 0 1 1 0-1.844.922.922 0 0 1 0 1.845zM24.343 6.624a2.184 2.184 0 1 0 0 4.368 2.184 2.184 0 0 0 0-4.368zm0 3.1a.922.922 0 1 1 0-1.843.922.922 0 0 1 0 1.845z"/></g></svg>