<svg xmlns="http://www.w3.org/2000/svg" version="1" viewBox="0 0 100 71.313"><path d="M79.095 17.585V5.04H77.95c-3.437 0-6.205 2.81-6.205 6.275 0 3.472 2.77 6.27 6.205 6.27h1.145zm-9.36-2.86L64.31 3.773C63.104 1.517 60.775 0 58.045 0h-12.59C44.27 0 43.33.963 43.33 2.158c0 1.183.938 2.143 2.122 2.143l12.59-.01c1.025 0 2.158.7 2.6 1.68l3.46 6.99 5.63 1.776zm25.012 11.732c1.635.468 2.84 2.01 2.84 3.81l-9.165.013c-12.068 0-21.867 9.92-21.867 22.117H36.7c0-9.807-6.313-18.112-15.028-21.02L5.216 25.902l2.73-4.214a5.406 5.406 0 0 1 4.522-2.442c.426 0 .816.038 1.17.11l36.652 11.49a4.82 4.82 0 0 0 1.415.222c1.657 0 3.097-.85 3.96-2.146l8.327-12.172 30.755 9.71z"/><path d="M85.105 61.874c3.097 0 5.583-2.54 5.583-5.632 0-3.13-2.486-5.645-5.583-5.645-3.06 0-5.545 2.514-5.545 5.645 0 3.092 2.486 5.632 5.545 5.632M70.2 56.242c0-8.342 6.678-15.07 14.905-15.07C93.32 41.172 100 47.9 100 56.242c0 8.32-6.68 15.07-14.895 15.07-8.228 0-14.906-6.75-14.906-15.07m-53.77 4.583c3.36 0 6.12-2.76 6.12-6.185 0-3.427-2.76-6.198-6.12-6.198-3.4 0-6.13 2.77-6.13 6.198 0 3.425 2.73 6.185 6.13 6.185M0 54.628c0-9.132 7.337-16.563 16.395-16.563 9.07 0 16.382 7.432 16.382 16.563 0 9.155-7.313 16.586-16.382 16.586C7.337 71.214 0 63.784 0 54.628"/></svg>