<svg xmlns="http://www.w3.org/2000/svg" version="1" viewBox="0 0 66.461 100"><path d="M28.55 7.023a3.53 3.53 0 0 1-3.513-3.51C25.04 1.553 26.617-.022 28.55 0a3.47 3.47 0 0 1 3.51 3.512c.015 1.93-1.56 3.504-3.51 3.51zm9.363 0c1.936-.007 3.512-1.582 3.512-3.51 0-1.958-1.576-3.533-3.512-3.513A3.473 3.473 0 0 0 34.4 3.512c-.012 1.93 1.563 3.504 3.513 3.51zm13.943 71.04c4.872-.81 9.73-5.897 9.72-12.11v-45.34c.01-6.393-5.376-12.27-12.673-12.264H17.606c-7.34-.008-12.728 5.87-12.72 12.263v45.345c-.008 6.21 4.85 11.3 9.718 12.11L0 100h8.446l10.432-15.37H47.58L58.064 100h8.397L51.857 78.064zM24.986 13.03c.002-1.135.97-2.07 2.085-2.087h12.32c1.117.016 2.088.952 2.088 2.088v3.56a2.086 2.086 0 0 1-2.088 2.09H27.072c-1.167.003-2.083-.956-2.085-2.09v-3.56zM17.3 71.45a5.592 5.592 0 0 1-5.545-5.598c-.007-3.07 2.487-5.562 5.546-5.547a5.568 5.568 0 0 1 5.6 5.547c-.013 3.082-2.51 5.575-5.6 5.598zm.714-29.464c-3.508-.02-6.37-2.42-6.362-6.363v-8.14c.025-3.397 2.22-6.357 6.362-6.364h30.43c4.15.005 6.344 2.965 6.364 6.36v8.14c.01 3.944-2.85 6.345-6.363 6.365h-30.43zM43.46 65.853c-.01-3.07 2.482-5.562 5.545-5.547a5.57 5.57 0 0 1 5.6 5.547c-.016 3.08-2.51 5.574-5.6 5.598a5.586 5.586 0 0 1-5.545-5.596z"/></svg>