<svg xmlns="http://www.w3.org/2000/svg" viewBox="0 0 10 6"><title>Group</title><g fill-rule="evenodd" fill="none"><path fill="#1A1918" d="M3.714 1.162s.15-.23-.027-.32H2.403s-.206.107.008.455l1.304-.135zM6.43 1.775s.063.088-.004.14l-1.628 1.26.197.276L6.61 2.21s.026-.052.106.055l.014-.17-.3-.32z"/><path fill="#1A1918" d="M4.882.813s-.07.008-.062-.05V.55s.026-.055.07-.05h1.513s.357.008.134.313c0 0-.183.147-.093.368L7.88 3.728l-.25.145-1.213-2.08s.022-.034-.165-.03h-2.64l.726 1.317-.294.18L3.2 1.81s-.03-.033-.053.01l-.714 1.58s-.018.043.054.053l1.436.005.036.295H2.156s-.214 0-.13-.213l.928-2.13s.014 0-.004-.036l-.097-.158.4-.05.064.125s.017.054.08.046h2.636s.1.02.1-.1c0-.12-.078-.146.016-.35 0 0 .035-.07-.04-.07H4.88"/><path stroke="#1A1918" stroke-width=".419" d="M2.148 2.35a1.29 1.29 0 0 0 0 2.58 1.29 1.29 0 0 0 0-2.58zM7.68 2.35a1.29 1.29 0 1 0 1.29 1.29 1.29 1.29 0 0 0-1.29-1.29z"/><path stroke="#1A1918" stroke-width=".313" d="M4.457 3.213a.43.43 0 1 0 0 .86.43.43 0 0 0 0-.86z"/></g></svg>