<svg xmlns="http://www.w3.org/2000/svg" viewBox="0 0 9 6"><title>Fill 1385 + Fill 1386 + Fill 1387</title><g fill="#1A1918" fill-rule="evenodd"><path d="M7.13 3.18c-.578 0-1.048.47-1.048 1.05 0 .58.47 1.046 1.05 1.046S8.18 4.81 8.18 4.23c0-.58-.47-1.05-1.05-1.05M1.115 4.45c.104.468.523.835 1.024.835.506 0 .93-.36 1.027-.836H1.115z"/><path d="M8.055 3.12c-.187-.845-1.025-.75-1.025-.75l-.255-.82c-.008-.035.043-.05.043-.05l.432-.13-.06-.608L6.683.72C6.538.735 6.504.6 6.504.6l-.06-.21C6.403.227 6.26.245 6.26.245H5.25c-.144.107.025.193.025.193h.62c.058-.01.092.06.092.06l.34 2.04c-.764.51-.89 1.102-.89 1.102H4.283c-.72-.543-.4-1.322-.4-1.322h.28v-.566H.495v.566h.56c-.78.746-.72 1.848-.72 1.848h5.432A1.366 1.366 0 0 1 8 3.174s.08.058.055-.055"/></g></svg>