<svg xmlns="http://www.w3.org/2000/svg" version="1" viewBox="0 0 100 91.541"><path d="M90.97 37.167L82.745 16.14c-1.518-3.97-4.87-7.378-11.193-7.36H59.987v-5.5c-.024-2.19-1.213-3.3-3.154-3.28h-13.48C41.39-.02 40.2 1.092 40.197 3.28v5.5h-11.75c-6.294-.018-9.644 3.39-11.193 7.36L9.03 37.167c-3.24.39-9 4.172-9.03 11.32V75.2h8.038v8.535c-.02 10.47 14.985 10.346 14.968 0V75.2h53.987v8.535c.018 10.346 15.025 10.47 15.03 0V75.2H100V48.486c.01-7.147-5.76-10.93-9.03-11.32zm-75.2 21.708c-3.84 0-6.944-3.166-6.927-7.05-.018-3.932 3.087-7.1 6.927-7.112 3.816.014 6.92 3.18 6.926 7.113-.007 3.883-3.11 7.048-6.926 7.05zm34.26-22.2H17.562l6.183-16.267c.758-2.31 1.918-3.984 4.64-4.02h43.29c2.69.036 3.85 1.71 4.638 4.02L82.5 36.674H50.03zm34.26 22.2c-3.847 0-6.952-3.166-6.927-7.05-.025-3.932 3.08-7.1 6.928-7.112 3.81.014 6.91 3.18 6.93 7.113-.02 3.883-3.12 7.048-6.93 7.05z"/></svg>