<svg xmlns="http://www.w3.org/2000/svg" version="1" viewBox="0 0 100 61.21"><path d="M42.755 35.892l-3.838-9.787c-.746-1.847-2.32-3.435-5.278-3.456h-5.47V20.1c0-1.004-.56-1.522-1.44-1.534h-6.39c-.91.01-1.467.53-1.49 1.534v2.544h-5.52c-2.946.02-4.52 1.607-5.23 3.454l-3.884 9.79c-1.52.187-4.228 1.95-4.22 5.285V53.6H3.74v3.98c.005 4.868 7.06 4.81 7.055 0V53.6H36.18v3.98c.008 4.81 7.064 4.868 7.054 0V53.6h3.79V41.172c-.024-3.336-2.734-5.098-4.27-5.28zM7.39 46.018a3.308 3.308 0 0 1-3.263-3.313 3.307 3.307 0 0 1 3.264-3.31c1.8.018 3.26 1.493 3.27 3.31-.005 1.82-1.464 3.295-3.26 3.313zm16.123-10.366H8.206l2.927-7.534c.367-1.102.913-1.88 2.207-1.872h20.345c1.26-.01 1.805.77 2.16 1.872l2.928 7.534h-15.26zm16.074 10.366c-1.784-.018-3.244-1.493-3.263-3.312.02-1.816 1.48-3.292 3.263-3.31a3.29 3.29 0 0 1 3.264 3.31 3.292 3.292 0 0 1-3.26 3.312zM74.327 0c.088 0 .18.005.267.005.085 0 .176-.005.263-.005h-.53zm23.226 9.07c-.7-3.383-2.896-4.733-6.19-6.097C88.12 1.655 80.353.063 74.593.005c-5.75.06-13.517 1.65-16.77 2.968-3.282 1.364-5.48 2.714-6.144 6.097l-2.5 18.71V53.6h4.27v4.03c-.02 4.945 7.312 4.945 7.34 0V53.6h27.64v4.03c-.02 4.945 7.31 4.945 7.29 0V53.6H100V27.78L97.553 9.07zM64.156 4.75h20.872c2.08-.007 2.08 3.03 0 3.023h-20.87c-2.07.008-2.07-3.03 0-3.022zM57.1 45.49a3.456 3.456 0 0 1-3.5-3.455c-.005-1.905 1.57-3.454 3.5-3.454 1.953 0 3.528 1.55 3.504 3.46.024 1.92-1.55 3.477-3.503 3.457zm17.23-15.74H55.71c-1.84.014-2.222-1.277-2.063-2.59l1.92-13.58c.287-1.64.855-2.73 3.022-2.735h32c2.18.006 2.75 1.094 3.02 2.734l1.92 13.58c.17 1.31-.216 2.6-2.067 2.59H74.33zm17.754 15.738c-1.94.02-3.515-1.533-3.504-3.455-.01-1.905 1.563-3.454 3.504-3.454 1.945 0 3.52 1.54 3.503 3.45.016 1.92-1.558 3.47-3.503 3.45z"/></svg>