<svg xmlns="http://www.w3.org/2000/svg" version="1" viewBox="0 0 79.988 100"><path d="M65.808 52.44L64.8 37.474c-.18-2.17-1.998-3.848-4.22-3.848H19.407a4.228 4.228 0 0 0-4.232 3.848l-.98 14.968h51.613zm8.67 15.356c0-3.07-2.477-5.574-5.548-5.574a5.585 5.585 0 0 0-5.575 5.574c0 3.07 2.503 5.548 5.575 5.548s5.55-2.478 5.55-5.548M58.246 76.13V62.105a2.532 2.532 0 0 0-2.53-2.528h-31.55c-1.354 0-2.49 1.134-2.49 2.528V76.13h36.57zm-47.19-2.786a5.55 5.55 0 0 0 5.55-5.548c0-3.07-2.492-5.574-5.55-5.574-3.07 0-5.56 2.503-5.56 5.574a5.55 5.55 0 0 0 5.56 5.548M60.58 29.69c4.26 0 7.77 3.304 8.117 7.486l1.033 15.42L79.988 58.8l-.026 26.053H75.38l.026 8.517c0 3.69-2.98 6.63-6.658 6.63a6.61 6.61 0 0 1-6.62-6.63v-8.517H17.846l.026 8.517c0 3.69-2.98 6.63-6.66 6.63a6.61 6.61 0 0 1-6.62-6.63v-8.517H.026L0 58.8l10.258-6.203 1.032-15.42c.323-4.182 3.833-7.486 8.117-7.486H60.58z"/><path d="M72.634 0c4.05 0 7.327 3.28 7.327 7.304v47.293l-6.746-4.143-.878-13.807c-.605-5.95-5.65-10.607-11.756-10.607H19.403c-6.127 0-11.135 4.658-11.742 10.607l-.89 13.807L0 54.598.024 7.304C.024 3.28 3.3 0 7.328 0h65.306z"/></svg>