<svg xmlns="http://www.w3.org/2000/svg" viewBox="0 0 100 60"><title>ambulance</title><g fill-rule="evenodd"><path d="M76.094 40.4c-5.244 0-9.495 4.25-9.495 9.492a9.495 9.495 0 0 0 9.493 9.495c5.24 0 9.486-4.25 9.486-9.495 0-5.243-4.247-9.493-9.487-9.493zm-.002 14.035a4.54 4.54 0 0 1 0-9.08 4.536 4.536 0 0 1 4.537 4.538 4.54 4.54 0 0 1-4.54 4.542zM21.738 40.307c-5.24 0-9.49 4.254-9.49 9.495a9.49 9.49 0 0 0 9.49 9.49c5.244 0 9.494-4.246 9.494-9.49 0-5.24-4.25-9.495-9.494-9.495zm.02 14.046a4.54 4.54 0 0 1 0-9.08 4.54 4.54 0 0 1 0 9.08z"/><path d="M92.027 22.896c2.835.552 4.533 1.777 5.813 8.774l2.024 12.63c.726 4.11-1.594 5.61-4.49 5.61H88.42c0-6.81-5.517-12.35-12.326-12.35-6.81 0-12.333 5.54-12.333 12.35H34.04c0-6.81-5.52-12.35-12.33-12.35-6.813 0-12.333 5.54-12.333 12.35H3.61C1.583 49.91 0 48.372 0 46.39V4.862C0 2.6 1.786.782 3.975.782h74.628c2.835 0 4.91 1.407 5.934 3.874l7.49 18.24zM67.15 5.014v17.25H87.1l-7-17.25H67.15z"/></g></svg>