<svg xmlns="http://www.w3.org/2000/svg" version="1" viewBox="0 0 99.94 63.157"><path d="M10.892 6.294C4.878 6.304.015 11.17 0 17.19c.015 5.98 4.878 10.842 10.892 10.84 5.99.002 10.853-4.86 10.84-10.84.013-6.02-4.852-10.887-10.84-10.896zm0 17.79c-3.832 0-6.926-3.098-6.946-6.894a6.966 6.966 0 0 1 6.946-6.947c3.807.01 6.902 3.105 6.896 6.947.005 3.796-3.09 6.893-6.896 6.894zm34.924 27.932c-8.298-.03-8.298 11.147 0 11.14h48.068c8.075.008 8.075-11.17 0-11.14H45.816zm14.24-38.476V3.4H55.76v10.14z"/><path d="M66.603 3.697v-2.2h-17.34v2.2z"/><path d="M68.1 0h27.73c3.69-.018 3.69 5.27 0 5.246H68.1c-3.573.023-3.573-5.264 0-5.246zM20.084 0h27.38c3.69-.018 3.69 5.27 0 5.246h-27.38c-3.92.023-3.974-5.264 0-5.246zM99.43 36.175l-5.546-13.392c-1.967-4.91-6.234-9.505-13.89-9.49H11.24c-4.366-.016-5.305 5.672-1.45 7.145l31.628 12.59 2.798 6.993c.574 2.19 2.353 4.79 5.897 4.8h43.02c4.912-.03 8.257-4.04 6.298-8.64zM67.5 29.48h-7.393V17.586H67.5V29.48zm11.744 0h-7.346V17.586h7.346V29.48zm4.496.05V18.09c2.297.546 4.588 2.593 6.097 5.995l2.346 5.446H83.74z"/></svg>