<svg xmlns="http://www.w3.org/2000/svg" version="1" viewBox="0 0 75.128 100"><path d="M32.97 7.826h32.916l5.304 5.352c.958.968.935 1.65 0 2.625l-6.463 6.46-3.787-3.785-3.787 3.786-3.736-3.735-3.635 3.63-3.786-3.79-4.95 4.95H32.97V7.82zm35.34 50.89l-6.16-15.902c-1.15-3.044-3.668-5.634-8.432-5.656h-32.36c-4.74.02-7.26 2.61-8.43 5.656l-6.16 15.903C4.32 59.032-.01 61.907 0 67.35v20.247h6.008v6.462c-.014 7.96 11.26 7.87 11.258 0v-6.47h40.542v6.46c.025 7.872 11.3 7.97 11.308 0v-6.46h6.012V67.35c-.02-5.444-4.352-8.318-6.818-8.633zm-56.496 16.66c-2.88.01-5.213-2.393-5.2-5.35-.013-2.973 2.32-5.377 5.2-5.353 2.872-.023 5.204 2.38 5.2 5.355.005 2.955-2.328 5.358-5.2 5.35zm25.75-16.81H13.176l4.645-12.522c.56-1.777 1.43-3.05 3.49-3.08h32.51c2.028.03 2.9 1.303 3.486 3.08l4.647 12.522H37.56zm25.748 16.81c-2.9.01-5.234-2.393-5.252-5.35.018-2.973 2.35-5.377 5.252-5.353 2.85-.023 5.182 2.38 5.2 5.355-.018 2.955-2.35 5.358-5.2 5.35z"/><path d="M21.457 0C12.93-.018 6.027 6.957 6.007 15.55c.02 8.612 6.924 15.587 15.45 15.6 8.508-.013 15.412-6.988 15.4-15.6C36.87 6.957 29.965-.018 21.457 0zm-6.765 19.64c-2.28-.02-4.11-1.875-4.09-4.14-.02-2.3 1.81-4.152 4.09-4.14 2.24-.013 4.073 1.84 4.09 4.14-.016 2.265-1.848 4.12-4.09 4.14z"/></svg>