<svg xmlns="http://www.w3.org/2000/svg" version="1" viewBox="0 0 100 68.932"><path d="M98.634 68.932a14.44 14.44 0 0 1-6.058-1.335 14.915 14.915 0 0 0-6.263-1.402c-2.226 0-4.37.52-6.25 1.402a14.59 14.59 0 0 1-6.082 1.335 14.71 14.71 0 0 1-6.08-1.335 14.803 14.803 0 0 0-6.24-1.402c-2.23 0-4.35.52-6.27 1.402a14.475 14.475 0 0 1-6.06 1.335 14.5 14.5 0 0 1-6.07-1.335A14.918 14.918 0 0 0 37 66.195c-2.228 0-4.372.52-6.25 1.402a14.537 14.537 0 0 1-6.072 1.335c-2.167 0-4.226-.486-6.095-1.335a14.753 14.753 0 0 0-6.236-1.402c-2.23 0-4.36.52-6.263 1.402a14.532 14.532 0 0 1-6.07 1.335v-9.2a14.7 14.7 0 0 0 6.07-1.333 14.924 14.924 0 0 1 6.264-1.41c2.214 0 4.358.52 6.237 1.4 1.87.835 3.928 1.33 6.096 1.33 2.16 0 4.23-.496 6.07-1.333a14.785 14.785 0 0 1 6.25-1.4c2.23 0 4.36.52 6.27 1.402a14.68 14.68 0 0 0 6.07 1.33 14.66 14.66 0 0 0 6.06-1.33c1.916-.88 4.035-1.403 6.273-1.403 2.215 0 4.35.52 6.24 1.4 1.868.837 3.938 1.333 6.08 1.333a14.78 14.78 0 0 0 6.083-1.332 14.792 14.792 0 0 1 6.25-1.402c2.227 0 4.358.52 6.263 1.4a14.62 14.62 0 0 0 6.06 1.332v9.2zM.048 29.398L.013 51.125c2.156 0 4.228-.483 6.07-1.318a14.865 14.865 0 0 1 6.263-1.405c2.214 0 4.358.52 6.237 1.405a14.903 14.903 0 0 0 6.095 1.318c2.155 0 4.228-.483 6.07-1.318A14.727 14.727 0 0 1 37 48.402c2.227 0 4.358.52 6.263 1.405a14.702 14.702 0 0 0 6.07 1.318c2.146 0 4.23-.483 6.06-1.318 1.916-.885 4.035-1.405 6.273-1.405 2.214 0 4.348.52 6.24 1.405a14.923 14.923 0 0 0 6.08 1.318c.612 0 1.197-.133 1.795-.193 1.08-.242 2.18-.352 3.24-.774l.076-.037c7.83-3.2 14.596-11.17 18.81-17.1l2.107-3.62H.05zM78.22 4.948C75.814-.45 69.336.01 69.336.01H.013L0 25.803h86.913L78.22 4.948zM33.274 20.21c0 .994-.814 1.818-1.808 1.818h-8.01c-.993 0-1.795-.824-1.795-1.817V7.87a1.8 1.8 0 0 1 1.8-1.802h8.01a1.81 1.81 0 0 1 1.81 1.802v12.34zm16.655 0c0 .994-.81 1.818-1.79 1.818h-8.07c-1 0-1.8-.824-1.8-1.817V7.87a1.8 1.8 0 0 1 1.793-1.802h8.07A1.8 1.8 0 0 1 49.92 7.87v12.34zm-33.25 0c0 .994-.82 1.818-1.8 1.818H6.81c-.992 0-1.793-.824-1.793-1.817V7.87c0-.99.8-1.802 1.794-1.802h8.07a1.81 1.81 0 0 1 1.8 1.802v12.34zM55.84 6.063h14.452l.12-.01h.097c.15-.013 3.96-.16 5.24 2.71l5.52 13.267H62.46L55.84 6.06z"/></svg>