<svg xmlns="http://www.w3.org/2000/svg" version="1" viewBox="0 0 100 59.471"><path d="M41.283 22.673a3.38 3.38 0 0 0 3.367-3.37v-5.62a3.38 3.38 0 0 0-3.367-3.367H15.915a3.378 3.378 0 0 0-3.367 3.368v5.62a3.38 3.38 0 0 0 3.367 3.37h25.368zm33.48-.026a3.37 3.37 0 0 0 3.368-3.367v-5.596a3.37 3.37 0 0 0-3.36-3.368H63.06a3.378 3.378 0 0 0-3.367 3.368v5.596a3.378 3.378 0 0 0 3.366 3.367H74.76zM31.23 49.383H12.055c-6.65 0-12.03-5.393-12.03-12.033L0 16.334C0 7.31 7.31 0 16.32 0h55.51c9.01 0 16.33 7.31 16.33 16.333l.022 29.67h8.498c1.833 0 3.317 1.52 3.317 3.354H56.895c-.42-6.746-5.98-12.09-12.833-12.09-6.854 0-12.415 5.345-12.834 12.116"/><path d="M44.064 54.213c2.23 0 4.027-1.786 4.027-4.016s-1.79-4.027-4.02-4.027c-2.214 0-4.012 1.798-4.012 4.027s1.798 4.016 4.015 4.016m-9.27-4.015c0-5.13 4.135-9.275 9.264-9.275s9.263 4.146 9.263 9.275c0 5.116-4.135 9.273-9.264 9.273A9.258 9.258 0 0 1 34.8 50.2"/></svg>