<svg xmlns="http://www.w3.org/2000/svg" version="1" viewBox="0 0 100 52.269"><path d="M54.366 39.622a9.124 9.124 0 0 0 7.075-8.892 9.12 9.12 0 0 0-9.12-9.12 9.12 9.12 0 0 0-9.12 9.12 9.102 9.102 0 0 0 3.52 7.2L0 27.607v24.628l51.166.035c2.298 0 4.317-1.2 5.467-3.004a6.48 6.48 0 0 0 10.937 0 6.478 6.478 0 0 0 10.935 0c1.15 1.802 3.168 3 5.468 3s4.32-1.198 5.468-3.002a6.474 6.474 0 0 0 5.47 3.003 6.472 6.472 0 0 0 5.1-2.476L54.37 39.63zM47.55 30.73a4.77 4.77 0 1 1 9.54.003 4.77 4.77 0 0 1-9.54-.003z"/><path d="M92.986 36.3l-30.62-6.66a10.175 10.175 0 0 1-.275 3.674l30.12 6.552.78-3.565M4.54 17.07l-.775 3.565L42.36 29.03a10.1 10.1 0 0 1 1.28-3.458l-39.1-8.505M33.65 7.92l10.53-5.964L43.077 0 30.352 7.205 9.378 2.667c.142 13.05 14.454 16.838 14.454 16.838l20.978 4.47a10.076 10.076 0 0 1 7.51-3.346c4.496 0 8.306 2.93 9.617 6.99l26.45 5.63 6.595-12.07L33.647 7.92"/></svg>