<svg xmlns="http://www.w3.org/2000/svg" version="1" viewBox="0 0 100 96.418"><path d="M60.458 67.628c2.212 0 4-1.8 4-3.998a3.986 3.986 0 0 0-4-3.988 3.98 3.98 0 0 0-3.974 3.988c0 2.197 1.788 3.998 3.974 3.998M100 96.398c-23.628.35-48.35-4.174-67.305-19.378-.087-.125-.162-.25-.162-.436 0-.347.286-.633.66-.633l18.633.03c.92 0 1.64-.73 1.64-1.65 0-.68-.312-1.14-1.02-1.5L35.59 64.76a1.055 1.055 0 0 1-.536-.943c0-.312.126-.585.31-.77 0 0 20.562-18.175 64.636-17.765V96.4zM17.763 0H0v14.412h17.763V0zM100 0H36.795v14.238H100V0zM26.136 22.014c-1.565.51-2.696 2.013-2.696 3.764 0 1.74 1.156 3.242 2.696 3.8v24.635a5.693 5.693 0 0 1-5.714 5.726 5.698 5.698 0 0 1-5.702-5.73 5.5 5.5 0 0 1 .447-2.21l.236.2 2.013 1.84L16.16 42.8l-3.28 7.566c-.992 2.334-.756 3.84-.756 3.84 0 4.582 3.713 8.32 8.298 8.32 4.61 0 8.31-3.738 8.31-8.32V29.53c1.554-.548 2.672-2.038 2.672-3.752a4.062 4.062 0 0 0-2.672-3.814V0h-2.596v22.014z"/></svg>