<svg xmlns="http://www.w3.org/2000/svg" viewBox="0 0 11 11"><title>path4662 + path4666</title><g fill="#231F20" fill-rule="evenodd"><path d="M10.306 10.37c-.215 0-.42-.048-.602-.13a1.467 1.467 0 0 0-1.246 0c-.182.082-.39.13-.602.13-.215 0-.423-.048-.605-.13a1.455 1.455 0 0 0-1.243 0 1.46 1.46 0 0 1-1.21 0 1.466 1.466 0 0 0-1.242 0 1.463 1.463 0 0 1-1.205 0 1.466 1.466 0 0 0-1.244 0c-.184.082-.39.13-.604.13v-.905c.215 0 .42-.05.604-.132a1.53 1.53 0 0 1 .622-.136c.22 0 .434.05.623.136.18.083.386.132.6.132.215 0 .42-.05.604-.132a1.53 1.53 0 0 1 .622-.136c.22 0 .434.05.623.136a1.456 1.456 0 0 0 1.207 0c.188-.085.4-.136.62-.136.222 0 .434.05.623.136.182.083.39.132.605.132.212 0 .42-.05.603-.132.188-.085.4-.136.623-.136.22 0 .432.05.624.136.182.083.387.132.602.132v.906zM6.346 8.5c.093-.02.185-.028.282-.028.22 0 .433.05.622.136a1.473 1.473 0 0 0 1.207 0c.13-.06.27-.105.418-.125-.08-2.428-2.614-4.596-2.734-4.708a.653.653 0 0 1-.157-.65l.605-2.002c.107-.31.053-.725-.095-.85-.085-.068-.267-.117-.388.023l-1.64 1.857c-.357.382-.057.79-.065.787-.556-.2-1.21-.067-1.607.097l-1.353.686c-.134.057-.192.227-.12.342.223.358.968.36 2.52.192C6.345 3.99 6.35 8.007 6.345 8.5"/></g></svg>