<svg xmlns="http://www.w3.org/2000/svg" viewBox="0 0 9 6"><title>Fill 1649</title><path fill="#1A1918" d="M.95 2.94a1.54 1.54 0 0 1-.25-.69.367.367 0 0 1-.09.013.36.36 0 0 1-.2-.66l1.033-.72c.217-.132.47-.214.744-.223l2.565.008 1.875-.3V.34a.338.338 0 0 1 .677 0c0 .03-.003.062-.01.09l.173.023c.2.04.353.218.353.43 0 .014 0 .026-.002.038l.557.3a.22.22 0 0 1 .12.29l-.138.314a.436.436 0 0 1-.322.205l-1.28.152L5.604 3.53l.658 1.136.435.202a.262.262 0 0 1-.148.478l-.834.002c-.215 0-.4-.12-.494-.297l-.714-1.29-1.61.003.57.875.42.193a.26.26 0 0 1 .127.226.26.26 0 0 1-.26.26l-.837.003a.562.562 0 0 1-.48-.274L1.65 3.804l-.547.53-.045.35.184.12c.03.016.06.037.082.065a.263.263 0 0 1-.207.427L.75 5.3A.364.364 0 0 1 .5 5.156l-.428-.74a.555.555 0 0 1 .078-.63l.8-.848z" fill-rule="evenodd"/></svg>