<svg xmlns="http://www.w3.org/2000/svg" viewBox="0 0 9 8"><title>Fill 2413 + Fill 2414</title><path d="M8.038 8.03c-1.904.027-3.895-.336-5.418-1.56a.046.046 0 0 1-.014-.035.05.05 0 0 1 .05-.05H4.16c.07 0 .132-.06.132-.132 0-.055-.025-.093-.084-.122L2.85 5.485a.09.09 0 0 1-.042-.076c0-.025.01-.047.025-.063 0 0 1.654-1.462 5.205-1.43V8.03zM4.854 5.712a.32.32 0 1 0 0-.642.32.32 0 0 0 0 .643zM7.314.74c-1.178.013-2.33.515-3.62 1.574l-.154-.042a.372.372 0 0 0-.372.37l.023.113-1.04.98-.888.835a.42.42 0 1 1-.565-.62l.117-.067.043.308.723-.92-.798.27a.678.678 0 0 0-.3.185A.73.73 0 1 0 1.47 4.8l.008-.008.84-.8 1.074-1.016.148.038a.37.37 0 0 0 .37-.37l-.017-.094c1.25-1.028 2.34-1.515 3.435-1.528.224-.002.404.028.7.09l.06.014V.833l-.04-.008A3.075 3.075 0 0 0 7.313.74" fill="#1A1918" fill-rule="evenodd"/></svg>