<svg xmlns="http://www.w3.org/2000/svg" version="1" viewBox="0 0 100 69.342"><path d="M17.198 13.194c1.823 0 3.368-1.508 3.368-3.33 0-1.834-1.545-3.34-3.368-3.34-1.808 0-3.366 1.506-3.366 3.34 0 1.823 1.558 3.33 3.366 3.33M.1 18.12a.39.39 0 0 1-.1-.253c0-.188.176-.34.365-.34h10.653c.515 0 .93-.414.93-.93 0-.402-.176-.666-.566-.89L1.746 11.12a.607.607 0 0 1-.3-.54c0-.163.048-.313.174-.44 0 0 25.29-22.348 81.308-.69l15.376-7.5c.15-.075.326-.125.49-.125.666 0 1.206.54 1.206 1.206a1.3 1.3 0 0 1-.176.61l-9.07 11.298 9.07 11.257c.1.2.176.4.176.64 0 .64-.54 1.18-1.206 1.18-.164 0-.34-.05-.49-.125l-15.376-7.5S29.384 41.65.1 18.12m13.216 26.92c1.068 0 1.998-.853 1.998-1.947 0-1.055-.93-1.946-1.998-1.946-1.042 0-1.96.892-1.96 1.946 0 1.094.918 1.948 1.96 1.948m-7.574 1.12a.186.186 0 0 1-.05-.1c0-.09.074-.14.175-.14h4.246a.385.385 0 0 0 .365-.37c0-.162-.075-.264-.226-.34l-3.845-1.84a.264.264 0 0 1-.125-.225c0-.075.024-.15.075-.176 0 0 10.1-8.96 32.5-.265l6.155-3.016a.49.49 0 0 1 .2-.05c.266 0 .465.213.465.464 0 .103-.024.19-.05.24l-3.63 4.52 3.63 4.513a.86.86 0 0 1 .05.25c0 .265-.2.49-.464.49a.476.476 0 0 1-.2-.05l-6.156-3.015c0 .005-21.383 8.51-33.115-.887m57.75-1.12a1.947 1.947 0 0 0 1.936-1.947c0-1.055-.893-1.946-1.936-1.946a1.932 1.932 0 0 0-1.946 1.94c0 1.093.828 1.95 1.946 1.95m-7.587 1.12c-.05-.027-.05-.078-.05-.1 0-.09.074-.14.15-.14h4.246a.39.39 0 0 0 .39-.38c0-.162-.07-.264-.23-.34l-3.86-1.83a.26.26 0 0 1-.123-.225c0-.075.025-.15.076-.176 0 0 10.138-8.96 32.537-.266l6.13-3.016a.72.72 0 0 1 .227-.05.48.48 0 0 1 .466.46c0 .102-.025.19-.076.24l-3.63 4.52 3.63 4.512a.48.48 0 0 1 .076.25c0 .264-.23.49-.47.49a.746.746 0 0 1-.228-.05l-6.13-3.016c0 .004-21.42 8.51-33.13-.888M38.58 63.796a1.952 1.952 0 0 0 1.948-1.96c0-1.056-.88-1.947-1.948-1.947-1.092 0-1.972.89-1.972 1.944 0 1.093.88 1.96 1.972 1.96m-7.6 1.105c-.025-.024-.025-.037-.025-.088 0-.075.05-.15.15-.15h4.234c.22 0 .4-.176.4-.364 0-.15-.08-.278-.25-.354l-3.86-1.834a.287.287 0 0 1-.12-.227c0-.076.024-.126.074-.163 0 0 10.126-8.958 32.525-.277l6.143-3.014c.073-.026.136-.05.186-.05a.48.48 0 0 1 .49.49.518.518 0 0 1-.06.24l-3.647 4.53 3.644 4.51a.54.54 0 0 1 .06.25.485.485 0 0 1-.488.462c-.05 0-.115-.025-.19-.05l-6.144-2.99s-21.42 8.506-33.14-.916"/></svg>