<svg xmlns="http://www.w3.org/2000/svg" viewBox="0 0 29 29"><title>path10863 + path10865 + path10867</title><g fill="#000" fill-rule="evenodd"><path d="M13.244 5.37c-3.444 0-5.406-2.885-5.432-2.924l1.246-.825c.113.17 2.85 4.126 7.633 1.117l.797 1.265c-1.59 1-3.01 1.37-4.243 1.37zM25.992 5.274h1.5c-.084-1.47-.884-2.71-2.252-3.49-1.99-1.137-4.868-1.104-7.163.08l.685 1.33c1.864-.963 4.17-1.008 5.737-.114.63.36 1.392 1.033 1.492 2.194zM27.474 6.933H25.99l-.524 15.75-8.417-5.61v5.612l-8.422-5.612v5.612l-8.42-5.612v11.6h27.988l-.722-21.74zM7.314 27.22H1.66v-2.755h5.657v2.756zm8.422 0H10.08v-2.755h5.656v2.756zm8.42 0H18.5v-2.755h5.656v2.756z"/></g></svg>