<svg xmlns="http://www.w3.org/2000/svg" version="1" viewBox="0 0 75.946 100"><path d="M37.973 24.967c-6.945 0-12.585-5.592-12.585-12.486C25.388 5.59 31.028 0 37.973 0c6.947 0 12.584 5.588 12.584 12.48 0 6.895-5.637 12.487-12.584 12.487zM75.69 76.67l-9.907-34.51C61.82 28.366 50.276 28.796 50.276 28.796H25.67s-11.546-.43-15.504 13.362L.256 76.67c-.946 3.226.834 5.69 3.653 6.496 2.81.808 5.69-.61 6.43-3.192l9.63-33.637 4.704-.007L9.282 100H66.66L51.264 46.33l4.698.007 9.636 33.637c.74 2.583 3.62 4 6.44 3.192 2.817-.807 4.6-3.27 3.65-6.495zm-19.116 1.54c0 10.273-8.33 18.605-18.6 18.605-10.278 0-18.607-8.332-18.607-18.605 0-10.28 8.33-18.604 18.608-18.604 10.27 0 18.6 8.325 18.6 18.604z"/><path d="M41.976 73.68a4.463 4.463 0 0 1-2.128-5.953 4.472 4.472 0 0 1 5.95-2.123 4.476 4.476 0 0 1 2.126 5.957 4.465 4.465 0 0 1-5.948 2.12zm4.164 6.227a2259.6 2259.6 0 0 1-3.273 6.892c-1.32 2.78-4.658 3.97-7.452 2.66-.905-.44-1.6-1.11-2.183-1.84-.884-1.12-1.478-4.1-1.478-4.1-.93.653-3.303 2.15-4.285 2.85a1.986 1.986 0 0 1-2.76-.48 1.978 1.978 0 0 1 .47-2.76 833.76 833.76 0 0 1 5.33-3.654 2.63 2.63 0 0 1 3.67.634l1.665 3.38 2.65-5.344-2.31-.677a1.926 1.926 0 0 1-1.174-.966l-2.267-4.355a1.93 1.93 0 1 1 3.42-1.784L38.053 74c1.24.366 6.31 1.84 6.31 1.84.27.085.504.24.71.42a2.863 2.863 0 0 1 1.058 3.64z"/></svg>