<svg xmlns="http://www.w3.org/2000/svg" version="1" viewBox="0 0 99.782 96.57"><path d="M17.7 33.05a22.45 22.45 0 0 0-4.19-15.44A22.475 22.475 0 0 0 .133 8.83 22.44 22.44 0 0 0 4.32 24.272a22.452 22.452 0 0 0 13.38 8.78zm-2.185-16.893a25.408 25.408 0 0 1 2.25 3.77 25.49 25.49 0 0 1 2.243-3.77 24.964 24.964 0 0 1 3.322-3.713A22.43 22.43 0 0 0 17.807 0a22.448 22.448 0 0 0-5.527 12.518 25.26 25.26 0 0 1 3.235 3.64zm19.875-7.33a22.473 22.473 0 0 0-13.376 8.784 22.63 22.63 0 0 0-2.957 5.58 24.918 24.918 0 0 1 1.154 9.19 22.424 22.424 0 0 0 11-8.098 22.44 22.44 0 0 0 4.18-15.45zm28.1 5.063a9.113 9.113 0 0 0-9.114 9.117c0 5.03 4.08 9.114 9.113 9.114s9.11-4.08 9.11-9.11a9.117 9.117 0 0 0-9.12-9.11zm23.62 38.064l-4.63-13.206c-.9-2.488-2.627-4.433-7.5-4.433H53.588c-4.87 0-6.6 1.945-7.495 4.433l-4.63 13.206c-.35.854-.528 2.77 1.356 4.056l10.89 7.185a3.45 3.45 0 0 0 4.78-.976 3.46 3.46 0 0 0-.98-4.79l-5.24-3.46-3.41-2.25L51.3 45h3.37l-1.97 5.455 6.562 4.33a6.57 6.57 0 0 1 2.84 4.197 6.59 6.59 0 0 1-.958 4.976 6.72 6.72 0 0 1-1.402 1.52h9.09a6.69 6.69 0 0 1-1.403-1.52 6.585 6.585 0 0 1-.96-4.974 6.558 6.558 0 0 1 2.84-4.197l6.564-4.33-1.98-5.453h3.37l2.44 6.72-3.41 2.25-5.23 3.455a3.452 3.452 0 1 0 3.8 5.76l10.9-7.187c1.885-1.285 1.7-3.2 1.357-4.056zm-3.866 19.91c0-4.63 3.752-8.374 8.373-8.374S100 67.232 100 71.863c0 4.617-3.762 8.376-8.383 8.376s-8.372-3.76-8.372-8.38zM1.874 88.65a1.87 1.87 0 0 0-1.87 1.868v2.502s-.188 3.55 3.46 3.55H96.3c3.666 0 3.48-3.463 3.48-3.463V85.54s-.313-2.42-3.132-2.42h-9.056c-3.102 0-5.658 5.53-11.57 5.53H1.87z"/><path d="M73.902 69.728H47.86l-10.837 1.66.5-10.712h-1.816l.506 10.836-7.566 1.158.562-11.77h-1.83l.55 11.88-10.3 1.578.54-11.84h-1.78l.537 11.946-12.35 1.892c-.087 0-.17.02-.256.028l.52-11.123H3.05l.507 11.23a4.585 4.585 0 0 0-3.553 4.46c0 2.54 2.05 4.597 4.58 4.597l35.607.004a6.516 6.516 0 0 1-.99-3.436 6.58 6.58 0 0 1 6.58-6.576h14.26L71.6 73.12l.642 3.07-11.88 2.48H45.77a3.44 3.44 0 0 0-.043 6.877l28.238.003c4.365-.037 7.87-3.556 7.87-7.9a7.917 7.917 0 0 0-7.933-7.92z"/></svg>