<svg xmlns="http://www.w3.org/2000/svg" version="1" viewBox="0 0 69.725 100"><path d="M63.19 88.73a4.742 4.742 0 0 1-4.744 4.743 4.74 4.74 0 0 1-4.743-4.744v-4.14h9.487v4.14zM50.672 100H37.18l.02-6.658h-4.52L32.67 100H19.154V84.59h31.518zM16.02 88.73a4.74 4.74 0 0 1-4.747 4.743 4.742 4.742 0 0 1-4.74-4.744v-4.14h9.487v4.14zM34.865 0c6.77 0 12.254 5.488 12.254 12.26 0 6.77-5.486 12.257-12.256 12.257-6.774 0-12.26-5.488-12.26-12.257C22.604 5.488 28.09 0 34.864 0zm34.86 79.812H0V39.065h69.725v40.747zM58.835 42.43h-47.68v34.072h47.68V42.43z"/><path d="M37.18 62.57v2.99h8.73c.364 0 .9.327.9.892 0 5.094-.64 7.493-3.322 7.493-2.782 0-3.354-6.025-6.31-6.423v5.767h-4.666V67.51c-3.1.235-3.6 6.433-6.49 6.433-2.682 0-3.176-2.4-3.176-7.493 0-.564.535-.89.898-.89h8.768V62.57h-9.078a.943.943 0 0 1 0-1.883h9.078v-2.99H22.294a.943.943 0 0 1-.944-.946c0-.517.422-.944.944-.944h10.218V52.82h-9.59a.944.944 0 0 1-.946-.946c0-.52.424-.95.945-.95h9.593V47.94H25a.945.945 0 0 1-.945-.942c0-.528.42-.952.945-.952h7.513v-1.652h4.667v1.652h7.514a.948.948 0 0 1 0 1.894H37.18v2.984h9.62c.524 0 .948.43.948.95a.945.945 0 0 1-.95.944H37.18v2.987h10.25a.95.95 0 0 1 .944.946.944.944 0 0 1-.945.947H37.18v2.99h9.08a.943.943 0 0 1 0 1.883h-9.08zm11.967-35.055h-28.16c-5.095 0-9.812 2.718-12.46 6.772H61.2c-2.484-4.054-6.96-6.772-12.053-6.772z"/></svg>