<svg xmlns="http://www.w3.org/2000/svg" version="1" viewBox="0 0 94.462 100"><path d="M13.216 76.2a6.56 6.56 0 1 1 0-13.123 6.56 6.56 0 0 1 0 13.123zM0 100V87.14c0-4.635 3.81-8.403 8.45-8.403h9.063c4.643 0 8.788 3.77 8.788 8.404V100H0zm81.253-24.357a6.567 6.567 0 0 0 6.56-6.564 6.56 6.56 0 0 0-13.122 0 6.565 6.565 0 0 0 6.57 6.56zM94.463 100V87.14c0-4.635-3.81-8.403-8.456-8.403h-9.052c-4.65 0-8.79 3.77-8.79 8.404V100h26.297z"/><ellipse cy="69.582" cx="47.223" rx="6.638" ry="6.583"/><path d="M31.236 100l5.224-14.23c2.092-7.27 8.185-7.047 8.185-7.047h5.172s6.09-.224 8.185 7.046L63.226 100h-31.99zm15.987-45.312v-15.57l-2.585-2.586v15.564H5.533V2.586h39.105V28.02l2.585 2.586V0H2.96v54.688z"/><path d="M24.706 13.228a3.49 3.49 0 0 0 3.49-3.49 3.49 3.49 0 0 0-3.49-3.488 3.49 3.49 0 0 0-3.485 3.49 3.49 3.49 0 0 0 3.49 3.488zm11.52 14.502l-2.866-9.732c-1.14-3.783-4.333-3.67-4.333-3.67H20.39s-3.196-.113-4.335 3.67l-2.862 9.73a1.487 1.487 0 0 0 2.856.84l2.73-9.306v.003l1.22-.003V29.85l-4.81 16.51a2.04 2.04 0 0 0 1.956 2.616c.885 0 1.7-.578 1.962-1.47l4.75-16.302h1.684l4.75 16.3a2.04 2.04 0 0 0 2.532 1.387 2.042 2.042 0 0 0 1.386-2.53l-4.81-16.5v-10.6l1.216.008.003-.003 2.735 9.306a1.487 1.487 0 0 0 2.855-.84zm44.996-1.468a6.554 6.554 0 0 1-6.55-6.548c0-3.62 2.94-6.555 6.55-6.555a6.542 6.542 0 0 1 6.547 6.55 6.54 6.54 0 0 1-6.55 6.55zm0 9.744s1.59.205 2.562-1.142c.88-1.232.946-5.31.953-6.05H77.7c-.022 2.937.318 5.076 1.02 6.153.71 1.1 2.502 1.04 2.502 1.04z"/><path d="M52.673 41.784c-.24.396-.616 1.2-.616 1.707a2.755 2.755 0 0 0 2.763 2.76h9.085c1.032 0 2.388-.41 2.966-1.28 1.96-2.9 4.02-5.95 4.63-6.87v17.18h22.88V37.66c0-4.606-3.6-8.753-7.85-8.753.01 2.163-.276 5.753-1.543 7.326-1.32 1.606-2.88 1.467-2.88 1.467v6.7a2.282 2.282 0 0 1-.873 4.392 2.28 2.28 0 0 1-2.28-2.286 2.28 2.28 0 0 1 1.4-2.106v-6.732s-1.36.112-2.642-1.175c-1.712-1.785-1.777-6.847-1.774-7.674h-.417a8.395 8.395 0 0 0-6.992 3.74l-5.44 8.202-8.25-.003L43.17 29.1a1.118 1.118 0 0 0-1.586 0 1.122 1.122 0 0 0-.003 1.59l11.09 11.09z"/></svg>