<svg xmlns="http://www.w3.org/2000/svg" version="1" viewBox="0 0 100 84.763"><path d="M21.144 8.004c3.345-1.855 6.485-2.37 9.334-1.536 2.953.864 5.144 3.01 6.457 4.638-3.362 2.517-5.435 6.527-5.515 10.884-.007.284.042.538.09.79.2 1.11.88 1.963 2.045 2.462.066.027.264.09.687.09 1.154 0 2.562-.464 2.575-.468l18.648-5.282c1.432-.416 2.177-1.19 2.264-2.364l.02-.187V17c.15-.85-.75-2.288-1.53-2.718a204.16 204.16 0 0 1-3.32-1.907c-3.8-2.21-6.548-3.812-9.32-3.812a7.4 7.4 0 0 0-.92.075C41.05 6.318 37.58 2.25 32.25.665 27.763-.67 23.04.015 18.2 2.7 16.316 3.743 6.71 8.55.046 2.544v7.272c8.935 4.364 18.908-.596 21.1-1.813z"/><path d="M77.12 22.174c-2.67-.617-9.63-1.317-9.63-1.317l-6.052-2.398c-.35 1.54-1.45 3.84-4.89 4.84l-18.652 5.28c-.618.19-2.15.62-3.654.62-.804 0-1.494-.12-2.107-.36-1.71-.73-2.96-1.88-3.715-3.32a12.51 12.51 0 0 0-2.842 7.93l.003 5-5.01-.002C15.83 31.902 8.46 27.38 0 26.488v58.105c8.485-.9 15.875-5.452 20.606-12.037H42.92c5.842 7.428 14.93 12.204 25.12 12.207C85.69 84.76 99.994 70.46 100 52.813c0-14.503-10.89-27.86-22.88-30.64zm-12.89 4.922c0-.943.786-1.623 1.625-1.623.943 0 1.622.68 1.622 1.623v7.01c0 .837-.68 1.624-1.622 1.624-.84 0-1.626-.787-1.626-1.625v-7.01zm4.658 29.84c0 5.32-4.312 9.65-9.616 9.65-5.31 0-9.632-4.33-9.632-9.65v-.728h3.237v.728c.007 3.522 2.873 6.4 6.392 6.41 3.51-.01 6.38-2.888 6.38-6.41v-.728h3.23v.728z"/></svg>