<svg xmlns="http://www.w3.org/2000/svg" version="1" viewBox="0 0 99.546 100"><path d="M51.38 38.817a5.82 5.82 0 0 1 7.32 3.776c.978 3.056-.714 6.333-3.777 7.318l-15.825 5.06a5.826 5.826 0 0 1-5.358-.96l-6.546-5.12L41.407 100H0V35.06a6.944 6.944 0 0 1 6.944-6.944h10.354c1.478 0 2.838.47 3.958 1.344L38.49 42.938l12.89-4.12zM26.09 58.4h-6.282v-6.29h-7.496v6.29H6.055v7.52h6.258v6.252h7.496V65.92h6.28V58.4zM13.493 24.995c6.9 0 12.496-5.59 12.496-12.5C25.99 5.6 20.39 0 13.49 0S.992 5.6.992 12.495c0 6.91 5.598 12.5 12.5 12.5m73.54.045c6.908 0 12.515-5.603 12.515-12.51C99.547 5.612 93.94.003 87.033.003c-6.915 0-12.517 5.61-12.517 12.527 0 6.908 5.602 12.51 12.517 12.51"/><path d="M83.253 28.4c-5.12 0-7.444 1.753-9.39 4.786l-1.262 2.42-7.31-2.136.31-1.993-17.47-3.913-.48 2.18-3.27-.727.49-2.184-1.31-.293-1.5 6.692 1.305.292.5-2.186 3.267.73-.49 2.19 17.47 3.912.566-2.05 7.077 1.14-18.24 35.06a5.7 5.7 0 0 0 2.555 7.65c2.82 1.416 6.246.27 7.665-2.548l15.214-29.52h2.494v52.093h17.93V28.4H83.25z"/></svg>