<svg xmlns="http://www.w3.org/2000/svg" version="1" viewBox="0 0 92.746 100"><path d="M73.63 15.788c4.397 0 7.92-3.523 7.92-7.883A7.9 7.9 0 0 0 73.63 0c-4.357 0-7.882 3.546-7.882 7.905a7.877 7.877 0 0 0 7.883 7.883m-40 32.032l28.415-18.356c3.7-2.365 4.824-7.26 2.47-10.964-2.34-3.715-7.26-4.837-10.963-2.472l-20.948 13.53c-1.193.765-2.126 1.768-2.735 2.94L8.07 75.455C6.795 78 7.798 81.082 10.318 82.36a5.133 5.133 0 0 0 6.903-2.234L33.63 47.82zm55.334-3.01c3.75-2.353 4.92-7.297 2.556-11.06l-2.747 1.685a4.772 4.772 0 0 1-1.54 6.617L0 97.266 1.73 100l87.234-55.19z"/></svg>