<svg xmlns="http://www.w3.org/2000/svg" version="1" viewBox="0 0 95.826 100"><path d="M53.056 55.298c6.363 0 11.513-5.15 11.513-11.513s-5.15-11.512-11.515-11.512-11.524 5.15-11.524 11.513c0 6.363 5.16 11.512 11.525 11.512z" fill="#202020"/><path d="M42.207 83.29c0 1.237.996 2.862 2.243 2.862l.012-.023h5.3l.01.02c1.248 0 2.86-1.602 2.86-2.837v-9.797c0-1.236-1.612-2.814-2.86-2.814H44.45c-1.167 0-2.117 1.488-2.243 2.61 7.655 0 7.61 9.978 0 9.978zm-4.83-24.308a6.8 6.8 0 0 1 4.738-1.898H64.82l22.855-22.912c4.888-4.92 11.295 1.465 6.397 6.386l-25.05 25.13.01 34.312H38.978V83.337H25.395a5.126 5.126 0 0 1-5.127-5.127 5.16 5.16 0 0 1 1.11-3.205l15.997-16.023zM1.064 14.26l2.792 2.792 13.482-13.78-2.793-2.79-6.11 2.31L5.63 0 0 5.607l2.792 2.816zm20.76 43.785a3.007 3.007 0 0 0 2.563 3.456c1.67.276 3.25-.936 3.456-2.56.252-1.694-.893-3.23-2.575-3.458-1.66-.25-3.226.895-3.444 2.565zm2.643-6.958c.23-1.602-.858-3.067-2.45-3.296s-3.055.87-3.284 2.45a2.87 2.87 0 0 0 2.45 3.275 2.88 2.88 0 0 0 3.284-2.427zm-3.377-7.85c.207-1.51-.81-2.908-2.322-3.137a2.75 2.75 0 0 0-3.113 2.334 2.728 2.728 0 0 0 2.312 3.113c1.51.253 2.918-.846 3.124-2.31zm-3.374-7.85a2.6 2.6 0 0 0-2.198-2.954 2.595 2.595 0 0 0-2.953 2.197c-.206 1.442.778 2.724 2.197 2.953s2.76-.8 2.954-2.197zm-3.376-7.852c.194-1.35-.733-2.61-2.072-2.792-1.362-.183-2.586.732-2.78 2.083-.196 1.374.72 2.563 2.06 2.792a2.46 2.46 0 0 0 2.79-2.083zM6.397 19.02c-.194 1.282.687 2.403 1.946 2.61s2.438-.71 2.62-1.946c.184-1.26-.686-2.45-1.945-2.61-1.294-.182-2.45.687-2.62 1.946zm26.79 27.947c.08-1.648 1.5-2.953 3.16-2.86a3.017 3.017 0 0 1 2.86 3.18c-.057 1.672-1.487 2.93-3.16 2.84-1.66-.047-2.95-1.466-2.86-3.16zm-1.9-3.273a2.844 2.844 0 0 1-2.723-3.02 2.884 2.884 0 0 1 3.01-2.725 2.878 2.878 0 0 1 2.724 3.02c-.07 1.602-1.42 2.792-3.01 2.723zM26.54 37.24c-1.5-.07-2.668-1.328-2.587-2.838s1.35-2.678 2.86-2.586a2.73 2.73 0 0 1 2.588 2.86c-.057 1.488-1.35 2.655-2.86 2.564zm-4.762-6.432a2.56 2.56 0 0 1-2.45-2.7 2.592 2.592 0 0 1 2.713-2.45 2.582 2.582 0 0 1 2.45 2.7 2.563 2.563 0 0 1-2.71 2.45zm-4.748-6.432c-1.34-.068-2.393-1.213-2.313-2.563.07-1.328 1.202-2.357 2.552-2.312a2.443 2.443 0 0 1 2.31 2.565c-.058 1.328-1.214 2.38-2.55 2.312zm-6.937-8.836a2.29 2.29 0 0 1 2.403-2.173 2.264 2.264 0 0 1 2.174 2.38c-.057 1.26-1.145 2.266-2.403 2.174-1.26-.066-2.242-1.12-2.174-2.38zM41.44 34.012c-1.672.092-3.125-1.19-3.183-2.86a3.023 3.023 0 0 1 2.896-3.183 3.01 3.01 0 0 1 3.136 2.905c.1 1.626-1.18 3.067-2.85 3.136zm-3.628-7.896c.08 1.534-1.11 2.86-2.678 2.93s-2.918-1.122-2.987-2.678c-.068-1.58 1.145-2.884 2.712-2.976 1.543-.07 2.87 1.122 2.95 2.724zm-6.478-4.76a2.634 2.634 0 0 1-2.518 2.746c-1.465.068-2.735-1.053-2.792-2.495a2.665 2.665 0 0 1 2.54-2.792c1.443-.07 2.69 1.052 2.77 2.54zm-6.478-4.762c.058 1.35-.984 2.518-2.346 2.563-1.362.068-2.54-.984-2.598-2.335a2.487 2.487 0 0 1 2.37-2.586c1.338-.068 2.506.985 2.574 2.358zM13.8 12.062a2.28 2.28 0 0 1 2.187-2.403 2.288 2.288 0 0 1 2.392 2.172c.056 1.26-.917 2.335-2.176 2.38-1.26.07-2.358-.915-2.404-2.15zm5.666-6.112a2.318 2.318 0 0 1 2.62 1.947c.185 1.26-.686 2.45-1.956 2.61-1.26.205-2.438-.688-2.62-1.947a2.323 2.323 0 0 1 1.956-2.61zm10.884 5.31a2.42 2.42 0 0 1-2.06 2.748c-1.33.206-2.576-.732-2.76-2.037-.183-1.326.745-2.584 2.06-2.77 1.318-.18 2.565.735 2.76 2.06zm8.262 3.343c.206 1.42-.767 2.7-2.163 2.907s-2.714-.778-2.91-2.152c-.193-1.396.78-2.7 2.164-2.907s2.7.758 2.907 2.154zm8.252 3.364c.217 1.465-.8 2.815-2.266 3.044-1.454.208-2.838-.8-3.033-2.264-.206-1.465.8-2.838 2.254-3.044a2.672 2.672 0 0 1 3.043 2.267zm8.264 3.365a2.82 2.82 0 0 1-2.37 3.182c-1.52.23-2.964-.847-3.17-2.358-.218-1.533.835-2.975 2.357-3.204a2.83 2.83 0 0 1 3.183 2.38zm8.262 3.365a2.924 2.924 0 0 1-2.473 3.32c-1.59.228-3.1-.894-3.318-2.473-.23-1.602.867-3.113 2.46-3.342 1.6-.23 3.1.892 3.33 2.495zm4.795.755a3.085 3.085 0 0 1 3.468 2.61c.252 1.647-.927 3.204-2.575 3.456-1.658.25-3.238-.916-3.456-2.586-.24-1.672.903-3.228 2.563-3.48z" fill="#202020"/></svg>