<svg xmlns="http://www.w3.org/2000/svg" version="1" viewBox="0 0 100 84.797"><path d="M20.222 80.867c9.106 0 16.495-7.39 16.495-16.506 0-9.09-7.388-16.48-16.495-16.48-9.083 0-16.472 7.39-16.472 16.49 0 9.12 7.39 16.508 16.472 16.508zM0 64.36c0-11.17 9.072-20.21 20.222-20.21 11.184 0 20.245 9.04 20.245 20.21 0 11.185-9.06 20.234-20.245 20.234C9.072 84.594 0 75.544 0 64.36zm79.777 16.698c9.084 0 16.473-7.377 16.473-16.494 0-9.106-7.39-16.483-16.473-16.483-9.105 0-16.494 7.38-16.494 16.49 0 9.12 7.39 16.498 16.494 16.498zM59.533 64.563c0-11.184 9.072-20.223 20.244-20.223 11.15 0 20.223 9.04 20.223 20.223s-9.072 20.233-20.223 20.233c-11.172 0-20.244-9.05-20.244-20.233zm.057-49.36c4.2 0 7.61-3.39 7.61-7.59S63.79 0 59.59 0s-7.613 3.414-7.613 7.613 3.413 7.59 7.612 7.59z"/><path d="M59.903 33.663c-1.1.022-2.29-.528-3.167-1.91l-4.94-7.724-10.194 10.09 9.454 4.97c3.885 1.86 3.3 5.274 3.3 5.274v21.4c0 2.426-1.953 4.402-4.378 4.402s-4.38-1.978-4.38-4.4V48.64l-16.393-9.106a6.372 6.372 0 0 1-3.28-5.558 6.27 6.27 0 0 1 1.64-4.267l16.08-16.11c1.998-2.26 4.782-1.9 4.782-1.9 3.37 0 5.143 2.94 5.143 2.94l8.354 13.09 12.69-.02c4.558 0 4.558 5.95 0 5.95h-14.71z"/></svg>