<svg xmlns="http://www.w3.org/2000/svg" version="1" viewBox="0 0 82.376 100"><path d="M52.074 20.308c5.59 0 10.13-4.54 10.155-10.152C62.2 4.563 57.66.02 52.07 0c-5.61.02-10.152 4.563-10.15 10.156-.002 5.61 4.54 10.152 10.154 10.152zM28.78 12.165c5.746-2.962 13.778 2.47 13.846 8.416v19.34l9.178 10.16c4.218 4.725-2.458 11.23-7.115 6.514L34.32 45.13c-.67-.637-1.157-1.395-1.146-3.15v-9.23l-18.136 9.77v49.14c.004 11.1-15.03 11.1-15.04.11V33.502c.01-3.246 1.296-6.405 4.505-8.253L28.78 12.16z"/><path d="M66.41 62.012h15.966V32.96l-32.147-.055c-4.11 0-5.66 4.657-3.1 7.605l19.28 21.502zm-9.232-30.408a1.28 1.28 0 0 0 1.25-1.25 1.28 1.28 0 0 0-1.25-1.25c-.694.01-1.25.565-1.25 1.25s.555 1.243 1.25 1.25zm3.312.216a1.267 1.267 0 0 0 1.25-1.247 1.27 1.27 0 0 0-1.25-1.25 1.268 1.268 0 0 0-1.25 1.25c.01.684.565 1.24 1.25 1.247zm.218-3.69c.68.016 1.234-.54 1.25-1.197-.016-.71-.57-1.264-1.25-1.25-.69-.015-1.244.54-1.25 1.25a1.22 1.22 0 0 0 1.25 1.197zm-3.312-.22c.684.008 1.238-.55 1.25-1.248-.012-.67-.566-1.225-1.25-1.25-.686.025-1.24.58-1.248 1.25.007.7.563 1.256 1.248 1.248zm1.086-3.365c.705-.026 1.29-.61 1.304-1.304-.015-.74-.6-1.32-1.304-1.3-.732-.02-1.314.56-1.305 1.31-.01.697.573 1.28 1.305 1.306zm4.018.652c.724-.028 1.308-.61 1.304-1.306.004-.74-.58-1.32-1.303-1.3-.71-.02-1.29.56-1.3 1.3.01.7.59 1.28 1.31 1.31zm-1.41-3.37c.736-.014 1.35-.624 1.357-1.354-.01-.78-.62-1.394-1.356-1.414-.77.02-1.38.63-1.35 1.41-.025.73.585 1.34 1.36 1.35zM65.757 24c.744-.014 1.354-.627 1.358-1.357a1.402 1.402 0 0 0-1.358-1.41c-.767.02-1.38.63-1.356 1.41-.02.73.59 1.344 1.36 1.358zm-1.52-3.365c.775-.017 1.388-.627 1.415-1.36a1.447 1.447 0 0 0-1.414-1.41c-.734.02-1.35.633-1.357 1.41a1.4 1.4 0 0 0 1.36 1.36zm3.693 0a1.527 1.527 0 0 0 1.522-1.52c0-.83-.675-1.505-1.52-1.522a1.574 1.574 0 0 0-1.522 1.52c.027.835.7 1.512 1.52 1.522zm1.195 4.67c.82-.01 1.494-.687 1.52-1.52-.025-.83-.7-1.506-1.52-1.52a1.53 1.53 0 0 0-1.52 1.52 1.53 1.53 0 0 0 1.52 1.52zm2.28-2.877c.89-.02 1.596-.727 1.576-1.577.02-.89-.68-1.6-1.57-1.62-.86.02-1.57.73-1.57 1.63.006.85.715 1.56 1.57 1.58zm3.04 3.04a1.687 1.687 0 0 0 1.686-1.63c-.02-.943-.77-1.685-1.68-1.68-.92-.005-1.66.737-1.68 1.68.02.892.76 1.636 1.686 1.63zM71.57 28.4a1.675 1.675 0 0 0 1.686-1.63c-.02-.94-.76-1.688-1.686-1.682a1.617 1.617 0 0 0-1.626 1.683c-.03.9.714 1.64 1.626 1.63z"/></svg>