<svg xmlns="http://www.w3.org/2000/svg" version="1" viewBox="0 0 81.771 100"><path d="M76.863 75.347c3.758-1.248 5.786-5.326 4.542-9.123l-2.72.886c.737 2.284-.495 4.73-2.733 5.486L4.352 97.26l.92 2.74 71.59-24.653zM10.92 32.727c3.93-1.165 6.177-5.346 5.025-9.33-1.14-3.986-5.28-6.26-9.208-5.093-3.942 1.155-6.212 5.348-5.05 9.333 1.154 3.973 5.268 6.255 9.232 5.09"/><path d="M7.877 43.155c-3.918-7.56 7.33-13.677 11.467-6.35l8.09 15.52 15.374-4.416c2.536-.74 6.052 2.07 6.052 5.37l.094 22.11c.02 5.48-8.046 5.51-8.046-.05-.012-5.14-.15-16.116-.15-16.116L24.705 64.1c-3.504 1.024-6.41-.744-7.79-3.365l-9.04-17.582z"/><path d="M32.737 46.65V0H29.52v47.547l3.217-.897zM.502 53.232c-2.213-4.39 3.48-7.303 5.693-2.912l6.937 13.75c1.51 2.843 4.46 4.775 7.86 4.775 1.06 0 2.052-.278 3.02-.48l8.748-2.596c4.644-1.42 6.443 4.77 1.762 6.16l-9.208 2.71c-1.372.43-2.857.65-4.39.65-5.924 0-11.042-3.39-13.567-8.34L.502 53.23z"/></svg>