<svg xmlns="http://www.w3.org/2000/svg" version="1" viewBox="0 0 100 94.616"><path d="M25.076 15.64a7.8 7.8 0 0 0 7.82-7.82C32.9 3.51 29.4.01 25.076 0c-4.313.012-7.814 3.512-7.82 7.82.006 4.33 3.507 7.828 7.82 7.82zM4.593 43.388h6.86l4.138-15.135h1.718L13.22 43.388h24.318l-4.39-15.135h1.818l2.32 7.415c1.08 3.13 3.852 3.85 6.003 1.162l8.373-10.142c2.65-3.42-2.104-7.02-4.844-4.035l-4.994 5.952c.007.095-.96-3.278-.96-3.278-1.135-3.978-4.918-7.903-10.595-7.922H19.577c-5.07.02-9.043 4.434-9.888 7.214L4.593 43.386z"/><path d="M56.206 22.753V7.163h-7.014v15.59zm23.664-7.015c4.332-.014 7.83-3.516 7.82-7.82a7.788 7.788 0 0 0-7.82-7.82c-4.306-.013-7.806 3.488-7.82 7.82.014 4.304 3.514 7.807 7.82 7.82zm9.89 73.818v-43.19h5.75V22.804c.007-3.08-2.757-5.448-6.71-5.45H70.436c-3.65.002-4.54 1.187-5.55 2.17L49.596 37.89c-3.097 3.846 2.43 8.33 5.55 4.74L69.88 25.227v64.43c-.02 6.475 9.06 6.686 9.08.2v-36.58h1.766v36.38c.022 6.453 9.046 6.474 9.033-.1z"/><path d="M100 54.035v-8.88H0v8.88z"/></svg>