<svg xmlns="http://www.w3.org/2000/svg" version="1" viewBox="0 0 95.497 100"><path d="M81.832 10.053c2.658.01 4.833-2.165 4.854-4.856-.02-2.674-2.195-4.85-4.854-4.856a4.905 4.905 0 0 0-4.906 4.86 4.885 4.885 0 0 0 4.906 4.86zm-48.905 78.14c-.467 3.186.62 8.925 2.913 11.022 2.366 2.166 5.184-.605 4.032-2.862-1.188-2.232-2.673-3.448-1.41-8.793l-5.535.633zm16.9-76.393h-14.57c-2.63.01-2.535 3.908 0 3.886h14.57v1.992h-14.57c-2.62-.02-2.523 3.875 0 3.884h14.57v2.04h-14.57c-2.62 0-2.523 3.896 0 3.885h14.57v1.943h-14.57c-2.564.017-2.523 3.915 0 3.932h14.57v1.944h-14.57c-2.564-.012-2.574 3.886 0 3.885h14.57v1.95h-14.57c-2.564.01-2.574 3.91 0 3.887h14.57v1.99h-14.57c-2.564-.02-2.574 3.876 0 3.886h14.57v1.94h-14.57c-2.564-.002-2.523 3.9 0 3.885h14.57v37.83c.007 5.765 8.816 5.664 8.84 0V6.025c-.024-2.63-2.197-5.965-5.78-5.98h-17.63c-2.634.004-2.537 3.903 0 3.89l14.57.046v1.94h-14.57c-2.63-.013-2.534 3.885 0 3.89h14.57v1.99zM81.1 40.89v16.805c-.01 3.08-4.592 3.08-4.61 0V40.99h-6.12l6.556-22.828h-1.02L72.07 31.08c-.895 2.782-4.75 1.632-3.886-1.36l4.274-13.988c.445-1.607 2.462-4.435 5.973-4.417h6.66c3.47-.02 5.5 2.83 6.02 4.417l4.28 13.94c.824 3.022-3 4.268-3.886 1.36l-3.837-12.87h-1.12l6.65 22.828H87.03v16.75c-.02 3.034-4.582 3.018-4.565 0V40.89H81.1z"/><path d="M28.312 69.592V43.855L23.407 1.41C23.293.284 22.597.02 21.95 0c-.665.022-1.362.285-1.505 1.41l-4.76 42.445v25.737C6.74 64.906.005 72.192 0 78.82c.005 5.896 4.353 10.743 10.538 10.73 6.228.013 10.474-5.416 10.49-10.73V52.936h1.99V78.82c-.013 6.136 4.952 10.672 10.295 10.684 6.662-.012 10.917-4.722 10.928-10.635-.01-6.73-6.94-13.97-15.92-9.28zM10.49 84.165c-2.927-.018-5.29-2.38-5.295-5.296a5.31 5.31 0 0 1 5.294-5.3c2.9.01 5.27 2.38 5.29 5.29-.03 2.915-2.39 5.277-5.3 5.295zm23.26 0a5.33 5.33 0 0 1-5.293-5.296c.017-2.92 2.38-5.29 5.293-5.3a5.32 5.32 0 0 1 5.294 5.29 5.32 5.32 0 0 1-5.294 5.295z"/></svg>