<svg xmlns="http://www.w3.org/2000/svg" version="1" viewBox="0 0 100 97.251"><path d="M11.318 61.61c6.264 0 11.344-5.08 11.344-11.345 0-6.252-5.08-11.318-11.344-11.318C5.066 38.947 0 44.014 0 50.267c0 6.26 5.066 11.343 11.318 11.343m63.536 19.48c.528-.356 1.227-.257 1.613.258l2.098 2.896c.356.5.24 1.227-.257 1.614L62.922 97.033c-.498.37-1.226.256-1.61-.242l-2.1-2.91c-.355-.5-.242-1.214.257-1.613L74.852 81.09zM57.457 66.677l-6.11-10.703-3.194 2.34 6.094 10.76 3.21-2.397zM43.214 41.673L19.48 0l-4.54.028L39.974 44.04l3.24-2.367z"/><path d="M65.562 63.722c1.343-.97 2.884-1.726 4.64-1.726l22.05.027c4.28 0 7.748 3.482 7.748 7.75a7.738 7.738 0 0 1-7.748 7.75l-18.396-.028L50.35 94.078c-8.277 5.965-13.3-.586-13.3-.586L18.61 75.04c-3.084-3.71-2.426-10.76 1.284-13.872l25.518-18.183a6.035 6.035 0 0 1 8.448.73c2.127 2.538 1.785 6.32-.755 8.447l-16.328 11.96L48.51 75.71l17.05-11.988z"/></svg>