<svg xmlns="http://www.w3.org/2000/svg" viewBox="0 0 94 100"><title>immigration</title><path d="M74.843 12.472h-23.45l-6.234 6.122h6.233v1.36c0 7.14 5.788 12.926 12.926 12.926s12.925-5.787 12.925-12.925v-7.483h-2.4zm2.4-4.082H50.826L45.156 0h32.087v8.39zm9.837 29.025h-1.25L53.32 78.687h26.5v7.256H46.516V100h47.366V44.55c0-3.94-3.046-7.135-6.803-7.135zm-11.392-.145H42.152v.02c-1.55.005-3.06.536-4.043 1.776-3.846 4.86-7.69 9.722-11.534 14.583-5.674-4.32-11.348-8.64-17.02-12.963-2.663-2.027-6.846-.42-8.377 2.197-1.84 3.145-.454 6.36 2.196 8.376 6.768 5.155 13.537 10.31 20.305 15.467.203.166.4.336.628.476.08.063.162.124.243.187 1.183.9 2.667 1.082 4.086.777 1.29-.148 2.502-.683 3.334-1.734.054-.07.108-.14.163-.208.26-.27.488-.56.683-.863 4.05-5.118 8.095-10.235 12.143-15.355v26.27L75.69 37.27z" fill-rule="evenodd"/></svg>