<svg xmlns="http://www.w3.org/2000/svg" version="1" viewBox="0 0 100 85.52"><path d="M30.187 41.302l-9.87 7.83-12.62 9.67c-3.6 2.826-6.55-.578-6.55-.578-2.803-3.675.418-6.083.418-6.083l15.73-12.3s1.72-1.794 6.243-.503l6.65 1.966m18.432-15.72c-4.94 0-8.92-3.98-8.92-8.92s3.98-8.96 8.92-8.96 8.948 4.02 8.948 8.96-4.007 8.92-8.948 8.92M26.5 74.508a4.78 4.78 0 0 0-4.78-4.78 4.777 4.777 0 0 0-4.78 4.78 4.777 4.777 0 0 0 4.78 4.78 4.774 4.774 0 0 0 4.78-4.78m44.268 0a4.78 4.78 0 0 0-4.78-4.78c-2.63 0-4.77 2.14-4.77 4.78a4.776 4.776 0 1 0 9.55 0m-54.886-9.4c-.615-1.695-.872-3.54-.455-5.405a9.687 9.687 0 0 1 3.17-5.15l66.14-52.647C86.35.725 88.327 0 90.477 0A9.51 9.51 0 0 1 100 9.537c0 3.072-1.4 5.8-3.624 7.558-.787.688-1.94.603-2.605-.196a1.865 1.865 0 0 1 .21-2.668c1.426-1.044 2.323-2.765 2.323-4.695 0-3.22-2.617-5.838-5.824-5.838-1.366 0-2.57.454-3.553 1.19L67.704 20.203l-10.053 29.1 6.098 14.49c.713-.16 1.476-.296 2.237-.296 6.096 0 11.023 4.94 11.023 11.012 0 6.108-4.928 11.01-11.023 11.01a10.99 10.99 0 0 1-10.998-11.01 10.9 10.9 0 0 1 5.173-9.316L55.77 54.7l-.368 1.117c-1.34 4.117-5.79 6.368-9.904 5.003l-20.413-6.735-3.982 3.184a5.94 5.94 0 0 0-1.98 3.17c-.27 1.19-.075 2.333.32 3.353.713-.135 1.5-.296 2.274-.296 6.07 0 11 4.94 11 11.012 0 6.11-4.93 11.01-11 11.01s-11.025-4.904-11.025-11.01c.004-3.984 2.02-7.475 5.19-9.403"/></svg>