<svg xmlns="http://www.w3.org/2000/svg" viewBox="0 0 41 38"><title>elevator</title><g fill-rule="evenodd"><path d="M38.144 20.858h-3.79v14.574c.025 2.58 3.793 2.58 3.79 0V20.858zm-4.332 0h-3.79v14.574c.015 2.562 3.782 2.562 3.79 0V20.858zm-9.206 0h-3.79v14.574c.023 2.58 3.792 2.58 3.79 0V20.858zm-4.333 0h-3.79v14.574c.016 2.562 3.784 2.562 3.79 0V20.858zm-9.205 0h-3.79v14.574c.022 2.58 3.792 2.58 3.79 0V20.858zm-4.332 0h-3.79v14.574c.014 2.562 3.784 2.562 3.79 0V20.858z"/><path d="M40.558 19.776a1.46 1.46 0 0 1-1.48 1.48s-9.906.012-9.943 0a1.475 1.475 0 0 1-1.476-1.48V8.996a2.033 2.033 0 0 1 2.065-2.068c-.014-.013 8.76 0 8.76 0a2.03 2.03 0 0 1 2.07 2.067v10.78h.002zM34.156 6.043c1.552 0 2.817-1.267 2.806-2.808A2.818 2.818 0 0 0 34.156.38a2.867 2.867 0 0 0-2.854 2.855 2.852 2.852 0 0 0 2.854 2.808zm-7.138 13.733a1.454 1.454 0 0 1-1.476 1.48s-9.907.012-9.944 0a1.476 1.476 0 0 1-1.477-1.48V8.996a2.034 2.034 0 0 1 2.07-2.068c-.013-.013 8.76 0 8.76 0a2.026 2.026 0 0 1 2.068 2.067v10.78zM20.62 6.043c1.55 0 2.817-1.267 2.805-2.808A2.818 2.818 0 0 0 20.62.38a2.87 2.87 0 0 0-2.857 2.855 2.854 2.854 0 0 0 2.856 2.808zm-7.14 13.733a1.455 1.455 0 0 1-1.476 1.48s-9.907.012-9.943 0a1.475 1.475 0 0 1-1.476-1.48V8.996a2.033 2.033 0 0 1 2.066-2.07c-.012-.012 8.763 0 8.763 0a2.027 2.027 0 0 1 2.067 2.068v10.78zM7.08 6.043c1.554 0 2.82-1.267 2.808-2.808A2.82 2.82 0 0 0 7.08.38a2.866 2.866 0 0 0-2.853 2.855A2.85 2.85 0 0 0 7.08 6.043z"/></g></svg>