<svg xmlns="http://www.w3.org/2000/svg" viewBox="0 0 11 11"><title>Group</title><g fill="#231F20" fill-rule="evenodd"><path d="M8.752 6.59c-.222 0-.435.052-.622.14-.185.08-.39.13-.605.13-.215 0-.42-.05-.606-.13a1.475 1.475 0 0 0-1.246 0c-.183.08-.388.13-.603.13s-.42-.05-.605-.13a1.475 1.475 0 0 0-1.245 0c-.185.08-.39.13-.604.13-.215 0-.42-.05-.606-.13a1.463 1.463 0 0 0-1.243 0c-.185.08-.39.13-.605.13v.905c.215 0 .42-.05.605-.13a1.463 1.463 0 0 1 1.243 0c.156.07.33.11.51.12l-.754.75a.618.618 0 0 0-.764.086l-.862.862a.616.616 0 0 0 .87.87l.86-.862a.613.613 0 0 0 .11-.72l1.035-1.035c.07-.023.14-.04.205-.07a1.475 1.475 0 0 1 1.245 0c.184.08.39.13.606.13s.42-.05.604-.13a1.475 1.475 0 0 1 1.245 0c.186.08.39.13.606.13.214 0 .42-.05.605-.13a1.475 1.475 0 0 1 1.245 0c.184.08.39.13.605.13V6.86c-.214 0-.42-.05-.605-.13-.19-.088-.4-.14-.623-.14M5.162 5.11H4.9l.527-1.756 1.09.403L5.16 5.11zm4.01-2.948l.86-.863a.61.61 0 0 0 0-.87.61.61 0 0 0-.868 0l-.862.862a.613.613 0 0 0-.084.762L7.146 3.127l-2.13-.79a.88.88 0 0 0-1.275.51L3.09 5.04a.312.312 0 0 0-.013.07H.165v1.177c.158 0 .322-.037.466-.1a1.814 1.814 0 0 1 1.512-.003 1.152 1.152 0 0 0 .942.003 1.79 1.79 0 0 1 1.514-.003 1.135 1.135 0 0 0 .942.002 1.81 1.81 0 0 1 1.51-.003 1.15 1.15 0 0 0 .943.003c.237-.11.5-.168.76-.168.043 0 .223.012.398-.105.314-.137.43-.215.704-.382.224-.138.41-.44-.08-.423-.134.005-4.168 0-4.168 0L6.84 3.877l.167.062a.41.41 0 0 0 .523-.242.408.408 0 0 0-.092-.418L8.45 2.267c.232.12.526.09.72-.105z"/><path d="M5.154 1.186l-.113.24a.444.444 0 0 1-.396.25H4.38a.833.833 0 0 0 1.514-.475v-.043h-.702a.04.04 0 0 0-.038.03"/><path d="M4.643 1.466a.23.23 0 0 0 .208-.13l.11-.24c.042-.09.13-.152.232-.152h.86a1.023 1.023 0 1 0-1.977.522h.568z"/></g></svg>