<svg xmlns="http://www.w3.org/2000/svg" version="1" viewBox="0 0 100 98.443"><path d="M80.22 16.032c4.433 0 8.032-3.576 8.032-8.008 0-4.425-3.6-8.024-8.03-8.024-4.425 0-8.002 3.6-8.002 8.024a7.995 7.995 0 0 0 8 8.008zm-22.025 19.22h-12.07c-4.79 0-4.79 6.296 0 6.296l13.798-.02c1.022 0 2.082-.546 2.894-1.82l6.94-10.94-.022 65.008c0 2.482 2.016 4.5 4.5 4.5a4.495 4.495 0 0 0 4.494-4.5v-37.71h3.03l-.023 37.71a4.502 4.502 0 0 0 9.003 0V28.768h2.985v23.958c0 4.832 6.296 4.832 6.274 0V28.268c0-5.326-4.124-10.555-10.374-10.555h-14.8c-3.6 0-6.73 1.84-8.577 4.66l-8.056 12.88z"/><path d="M10.038 75.5c7.22 0 13.07 5.85 13.07 13.07l-.12 8.88h15.395l13.92-39.277.073-13.304-46.738.02-.022 30.587 4.422.022z"/><path d="M0 88.57c0-5.446 4.424-9.87 9.873-9.87 5.448 0 9.873 4.423 9.873 9.873 0 5.448-4.425 9.873-9.873 9.873C4.423 98.443 0 94.018 0 88.57zm9.872 4.28a4.285 4.285 0 1 0 .007-8.57 4.285 4.285 0 0 0-.008 8.57zm33.883-68.083l-1.85.903-.868-1.827-1.827.88-.878-1.827-1.818.878-.903-1.826h.024l-1.85.902-.87-1.848v.022l-1.826.88-.87-1.873-5.547 15.79c-.447 1.28.244 2.7 1.515 3.13l8.956 3.1a2.456 2.456 0 0 0 3.123-1.515l5.493-15.767zM35.92 8.76l-2.584-2.177L2.96 42.573l2.6 2.173z"/></svg>