<svg xmlns="http://www.w3.org/2000/svg" version="1" viewBox="0 0 94.3 100"><path d="M94.3 100c-2.068 0-4.038-.474-5.793-1.276a14.125 14.125 0 0 0-5.985-1.35c-2.14 0-4.16.5-5.986 1.35A14.06 14.06 0 0 1 70.728 100c-2.066 0-4.038-.474-5.792-1.276-1.84-.85-3.847-1.35-5.986-1.35-2.14 0-4.184.5-5.986 1.35A14.06 14.06 0 0 1 47.156 100c-2.065 0-4.038-.474-5.816-1.276a14.022 14.022 0 0 0-5.962-1.35c-2.14 0-4.184.5-5.987 1.35A14.035 14.035 0 0 1 23.6 100c-2.067 0-4.038-.474-5.818-1.276a14.02 14.02 0 0 0-5.962-1.35c-2.14 0-4.184.5-5.985 1.35A14.17 14.17 0 0 1 0 100v-8.8c2.07 0 4.065-.473 5.833-1.286a14.397 14.397 0 0 1 5.985-1.325c2.115 0 4.16.49 5.96 1.32a13.993 13.993 0 0 0 5.82 1.28 13.86 13.86 0 0 0 5.792-1.286 14.414 14.414 0 0 1 5.987-1.325c2.115 0 4.16.497 5.962 1.323a13.978 13.978 0 0 0 5.81 1.286c2.07 0 4.04-.473 5.81-1.286 1.8-.825 3.84-1.324 5.98-1.324s4.145.5 5.985 1.326a13.782 13.782 0 0 0 5.792 1.285c2.067 0 4.04-.472 5.807-1.285 1.828-.826 3.848-1.325 5.988-1.325 2.126 0 4.17.496 5.985 1.322a13.783 13.783 0 0 0 5.8 1.3v8.8zM26.686 56.836c4.39 0 7.96-3.61 7.96-8.057 0-4.44-3.57-8.02-7.96-8.02-4.375 0-7.945 3.58-7.945 8.02s3.58 8.05 7.95 8.05m1.13 27.82c-1.25 2.15-3.99 2.89-6.12 1.6-2.14-1.25-2.86-4.036-1.62-6.186L38.53 47.95a7.346 7.346 0 0 1 2.836-2.868l23.714-14.53L81.174 2.834C82.7.134 86.112-.8 88.784.744c2.654 1.568 3.57 5.006 2.043 7.69L71.534 41.647a7.266 7.266 0 0 1-2.85 2.868L40.702 62.097 27.816 84.653z"/></svg>