<svg xmlns="http://www.w3.org/2000/svg" viewBox="0 0 9 9"><title>Fill 2388 + Fill 2389</title><path d="M3.323 1.985A.567.567 0 1 0 3.325.85a.567.567 0 0 0-.002 1.135M.15 4.793c0-.46.374-.836.835-.836h1.76V2.693a.568.568 0 0 1 1.136 0v.196l.84.213a.274.274 0 1 1-.12.533l-.72-.168v.487h.846l2.31-2.39-.07.622 1.137.755c.188.108.256.35.15.538a.39.39 0 0 1-.412.193l-.09-.017a1.015 1.015 0 0 1-1.256.73L5.63 6.15v2.414a.375.375 0 0 1-.75 0V6.096h-1.9l-.34.582.71 1.695c.104.182.04.41-.14.512a.377.377 0 0 1-.514-.142l-.83-1.956v-.623l-.37.584v1.816a.377.377 0 0 1-.752 0V6.466l.31-.487V4.334l-.31.473v1.37H.152V4.793zM7.54 3.62l-.602-.116-.35.695a.802.802 0 0 0 .952-.58z" fill="#1A1918" fill-rule="evenodd"/></svg>