<svg xmlns="http://www.w3.org/2000/svg" viewBox="0 0 10 8"><title>Group</title><path d="M3.892 1.45a.66.66 0 1 0 0-1.322.66.66 0 0 0 0 1.32M4.67 6.79h3.145s.203.013.607-.31l.69-.527v.594l-.704.525s-.21.17-.56.21H4.406l.264-.493zm-4.38.49h3.146l.262-.49H.526l-.262.49H.29zm3.942-5.026a.662.662 0 0 0-1.324 0v1.62c0 .204.1.396.248.517H1.674l-.8 1.455a.243.243 0 0 0 .215.35h5.46s.236.04.59-.24l1.416-1.042-.535-.935s-.12-.227-.572-.295l-1.07-.18-.574-.96-.007-.01a.23.23 0 0 0-.323-.022v.003a.228.228 0 0 0-.056.254l.426.71v.007l-.534.908-1.078-.41V3.58h.85a.31.31 0 0 0 .304-.424.31.31 0 0 0-.287-.2l-.87-.003v-.696" fill="#1A1918" fill-rule="evenodd"/></svg>