<svg xmlns="http://www.w3.org/2000/svg" version="1" viewBox="0 0 70.339 100"><path d="M35.17 28.24c7.797-.007 14.122-6.33 14.122-14.12 0-7.814-6.324-14.137-14.12-14.12-7.807-.018-14.13 6.306-14.124 14.12-.006 7.79 6.317 14.113 14.123 14.12zm0 29.55H20.2V46.957L8.798 58.47c-5.165 5.165-12.157-1.448-6.976-6.635l18.885-18.943c1.542-1.508 3.22-2.476 5.9-2.497h16.957c2.646.02 4.442.96 6.01 2.497l19.114 19.17c4.917 4.895-2.264 11.572-6.976 6.577L49.972 46.9v10.89h-14.8zm14.745 5.56L38.688 74.576l8.278 8.22-8.448 8.453c-5 4.97 1.873 12.1 7.03 6.97l13.327-13.89c2.887-2.94 3.678-8.34.626-11.4-.03-.02-9.58-9.586-9.58-9.586zm-29.717 0l11.23 11.227-8.222 8.22 8.45 8.453c4.967 4.977-1.906 12.104-7.035 6.977L11.24 84.332c-2.857-2.94-3.65-8.34-.566-11.4 0-.02 9.53-9.583 9.53-9.583z"/></svg>