<svg xmlns="http://www.w3.org/2000/svg" viewBox="0 0 11 9"><title>Group</title><g fill="#231F20" fill-rule="evenodd"><path d="M4.65 1.236l-.11.24a.444.444 0 0 1-.4.252H3.88A.834.834 0 0 0 5.39 1.25V1.21h-.7a.04.04 0 0 0-.04.028"/><path d="M4.14 1.517a.23.23 0 0 0 .21-.13l.11-.24c.04-.09.127-.152.23-.152h.86a1.023 1.023 0 1 0-1.978.522h.57zM4.853 4.44l2.22-.1.183.707c-.906.13-2.08.15-2.636.15l.233-.757zm.41-1.348l1.47-.06.12.45c-.4.02-1.107.056-1.738.093l.148-.483zm1.704 2.9c.766-.026 2.765-.212 3.316-.74-.248-.762-1.225-.812-2.122-.424a2.9 2.9 0 0 1-.59.165l-.185-.707a.43.43 0 0 0 .235-.404.43.43 0 0 0-.447-.414l-.134-.52a.434.434 0 0 0-.356-.77s-1.896.018-2.49.178S3.4 3.512 3.4 3.512L2.88 5.2H.41v.792h6.556z"/><path d="M9 6.993s1.343-.017 1.343-1.33c0-.054-.005-.102-.01-.152-.84.61-3.079.707-3.362.717H.41v1.035c.16 0 .323-.036.467-.1.236-.11.5-.17.76-.17.258 0 .52.06.75.167a1.153 1.153 0 0 0 .944.002 1.79 1.79 0 0 1 1.514-.003 1.135 1.135 0 0 0 .943.003 1.783 1.783 0 0 1 1.51-.003c.152.07.316.103.475.103.02 0 .037-.003.056-.003l.196.75c-.084.016-.168.026-.254.026-.215 0-.423-.047-.607-.13a1.474 1.474 0 0 0-1.245 0 1.464 1.464 0 0 1-1.21 0 1.475 1.475 0 0 0-1.244 0 1.462 1.462 0 0 1-1.206 0c-.187-.088-.4-.14-.622-.14-.22 0-.432.052-.62.14-.185.083-.39.13-.605.13v.906c.216 0 .42-.048.606-.13.188-.088.4-.14.62-.14.222 0 .435.052.622.14a1.463 1.463 0 0 0 1.206 0c.19-.088.402-.14.623-.14.223 0 .435.052.623.14a1.46 1.46 0 0 0 1.21 0c.187-.088.398-.14.62-.14.223 0 .436.052.623.14a1.472 1.472 0 0 0 1.21 0 1.475 1.475 0 0 1 1.244 0c.184.082.39.13.606.13v-.906c-.215 0-.422-.047-.606-.13a1.475 1.475 0 0 0-1.245 0c-.015.006-.03.01-.044.017L8.14 7.2a2.53 2.53 0 0 0 .1-.038c.237-.11.5-.17.76-.17"/></g></svg>