<svg xmlns="http://www.w3.org/2000/svg" version="1" viewBox="0 0 100 92.253"><path d="M56.674.833v90.923H48.13V.833zM21.17 14.98a7.436 7.436 0 0 0 7.488-7.49C28.68 3.37 25.325.015 21.168 0c-4.117.016-7.472 3.37-7.488 7.488.016 4.16 3.37 7.512 7.49 7.49zm-1.11 47.54v26.186c.023 4.725-7.042 4.725-7.045 0V62.52H3.64l10.04-34.78h-1.608L6.19 47.598c-1.4 4.34-7.342 2.56-5.992-2.05l6.547-21.583c.715-2.47 3.826-6.83 9.21-6.824h10.318c5.325-.004 8.447 4.39 9.264 6.826l6.546 21.523c1.31 4.644-4.587 6.565-5.993 2.05L30.212 27.74h-1.72L38.586 62.52h-9.374v26.24c-.003 4.668-7.04 4.644-7.045 0V62.52H20.06zm54.587-45.434c-5.265.02-9.504 4.382-9.486 9.82v23.187c-.016 4.505 6.488 4.505 6.493 0v-21.19h1.552V87.65c-.02 6.01 8.643 5.83 8.655 0V53.256h1.497V87.65c-.02 5.83 8.69 6.01 8.707 0V28.904h1.5v21.19c-.014 4.54 6.455 4.54 6.436 0v-23.02c.008-5.045-3.832-9.958-9.598-9.933l-15.755-.053zm7.933-2.106c4.115.02 7.47-3.333 7.488-7.49C90.05 3.37 86.695.015 82.578 0c-4.158.016-7.513 3.37-7.486 7.488a7.43 7.43 0 0 0 7.487 7.49z"/></svg>