<svg xmlns="http://www.w3.org/2000/svg" version="1" viewBox="0 0 54.298 99.999"><path d="M16.54 16.833c-4.118 0-7.44 3.288-7.44 7.333 0 4.06 3.322 7.34 7.44 7.34 4.093 0 7.42-3.282 7.42-7.34-.002-4.045-3.327-7.333-7.42-7.333z"/><path d="M54.24 31.34c-.278-1.583-1.575-2.482-1.654-2.54L8.904 0 4.846 5.88a2.49 2.49 0 0 0 .733 3.453 2.47 2.47 0 0 0 3.44-.705L11.4 5.23l35.48 23.41-29.067 5.233c-2.058.346-3.548 2.404-3.09 4.42l6.327 24.453L.59 93.433c-1.223 2.095-.482 4.78 1.634 5.98a4.48 4.48 0 0 0 6.074-1.618s21.338-32.09 21.417-32.292 1.1 4.453 1.1 4.475l-3.2 24.074c-.403 2.397 1.223 4.635 3.64 5.038 2.42.402 4.715-1.202 5.117-3.584l3.312-24.764c.1-.634-.03-2.022-.173-2.634l-7.29-28.995 18.99-3.42a3.768 3.768 0 0 0 3.042-4.352z"/></svg>