<svg xmlns="http://www.w3.org/2000/svg" version="1" viewBox="0 0 99.988 81.895"><path d="M65.05 17.876a8.925 8.925 0 0 0 8.928-8.926c0-4.943-3.983-8.95-8.927-8.95a8.95 8.95 0 0 0-8.95 8.95c0 4.92 4.01 8.926 8.95 8.926zm34.938 64.02c-2.112 0-4.15-.48-5.95-1.27a14.48 14.48 0 0 0-6.12-1.37c-2.16 0-4.247.505-6.095 1.368-1.823.792-3.84 1.27-5.95 1.27-2.112 0-4.128-.478-5.927-1.27-1.848-.863-3.936-1.367-6.12-1.367s-4.27.504-6.118 1.367c-1.8.792-3.814 1.27-5.926 1.27s-4.128-.478-5.95-1.27c-1.85-.863-3.912-1.367-6.096-1.367s-4.27.504-6.12 1.367c-1.8.792-3.814 1.27-5.926 1.27-2.088 0-4.103-.478-5.927-1.27a14.458 14.458 0 0 0-6.095-1.367c-2.184 0-4.27.504-6.12 1.367a14.725 14.725 0 0 1-5.926 1.27v-8.9c2.112 0 4.127-.456 5.927-1.272a14.484 14.484 0 0 1 6.117-1.367c2.16 0 4.247.504 6.095 1.367 1.824.816 3.84 1.27 5.927 1.27 2.11 0 4.126-.454 5.926-1.27 1.848-.863 3.936-1.367 6.12-1.367s4.246.504 6.094 1.367c1.824.816 3.84 1.27 5.952 1.27 2.11 0 4.127-.454 5.926-1.27 1.848-.863 3.936-1.367 6.12-1.367s4.27.504 6.118 1.367a14.34 14.34 0 0 0 5.927 1.27c2.11 0 4.127-.454 5.95-1.27a14.46 14.46 0 0 1 6.096-1.367c2.182 0 4.27.504 6.116 1.367 1.8.816 3.84 1.27 5.95 1.27v8.903zM9.766 64.162a14.25 14.25 0 0 1 5.903-1.27c2.157 0 4.245.503 6.093 1.366 1.824.79 3.84 1.27 5.927 1.27 2.112 0 4.128-.48 5.928-1.27 1.848-.865 3.936-1.37 6.12-1.37s4.246.505 6.094 1.368c1.823.792 3.84 1.27 5.95 1.27 2.112 0 4.128-.478 5.927-1.27 1.174-.552 2.4-.912 3.693-1.15L76.81 45.495H56.99l8.206-14.085 17.996 9.84c5.95 3.358 10.342-4.392 4.367-7.75L61.786 19.243c-9.48-5.28-13.486 3.48-13.486 3.48L35.01 45.18 0 45.16c1.104 6.405 6.862 14.996 9.766 19.003z"/><path d="M66.035 63.06a14.59 14.59 0 0 1 3.91 1.198c1.8.793 3.815 1.272 5.928 1.272 2.11 0 4.127-.48 5.95-1.272a14.46 14.46 0 0 1 6.096-1.367c2.182 0 4.27.506 6.116 1.37a14.84 14.84 0 0 0 5.95 1.27l-.047-20.034-18.573-.023L66.035 63.06z"/></svg>