<svg xmlns="http://www.w3.org/2000/svg" viewBox="0 0 9 9"><title>Group</title><g fill="#1A1918" fill-rule="evenodd"><path d="M6.51 2.02A.62.62 0 1 0 6.513.78a.62.62 0 0 0-.003 1.24M3.016 4.21l.917-.983.782-.362s-.532.797-.805 1.893L3.177 7.52l.45.023L4.78 4.88l1.006.407.096 1.516.427.006.168-1.78-1.272-.917s-.04-.056.024-.088l1.007-.92 1.642.815.25.04.063-.4-.265-.076L5.665 1.9s-.218-.17-.467.022l-1.707.975-.772 1.128.298.184z"/><path d="M1.018 7.018l1.874-3.12.172.1L1.19 7.123 1.02 7.02zM6.854 8.203l.95-4.387.197.04-.95 4.39-.196-.043z"/><path d="M1.526 7.033l.093-.15-.585-.354-.093.15.584.353zM7.325 8.1l.04-.172L6.7 7.78l-.04.172.665.148zM.625 7.494h4.59s.467.025.74-.24c0 0 .153-.05.218.08 0 0 .056.433-.644.457H.495l.13-.296zM3.04 6.746h4.59s.467.023.74-.242c0 0 .154-.05.218.08 0 0 .057.435-.644.46H2.912l.13-.298z"/></g></svg>