<svg xmlns="http://www.w3.org/2000/svg" viewBox="0 0 85 100"><title>mental health</title><g fill-rule="evenodd"><path d="M58.224 24.48a4 4 0 0 0-3.994 4.007c0 2.215 1.793 4 3.994 4a3.993 3.993 0 0 0 3.994-4 3.994 3.994 0 0 0-3.994-4.006zm-.94 32.816a4.01 4.01 0 0 0 4.013 4.005c2.2 0 3.987-1.79 3.987-4a3.994 3.994 0 0 0-3.987-4 4.008 4.008 0 0 0-4.012 4.006zm-29.24-37.16a4.008 4.008 0 0 0 0 8.015 4 4 0 0 0 4.01-4 4.006 4.006 0 0 0-4.01-4.01z"/><path d="M46.116 0C28.9 0 13.02 12.924 9.72 27.167c-.746 3.166-1.564 11.435-1.564 11.435L.228 58.564A3.05 3.05 0 0 0 0 59.754a3.07 3.07 0 0 0 3.07 3.057h5.086v10.61c0 8.27 6.7 14.97 14.96 14.97h5.945V100h40.49V67.794c8.83-6.946 14.5-17.736 14.5-29.842C84.05 16.99 67.06 0 46.12 0zm-28.64 46.167c-2.322 0-4.22-1.897-4.22-4.244a4.23 4.23 0 0 1 4.22-4.227c2.342 0 4.25 1.894 4.25 4.227a4.247 4.247 0 0 1-4.25 4.244z"/></g></svg>