<svg xmlns="http://www.w3.org/2000/svg" version="1" viewBox="0 0 98.455 100"><path d="M98.45 100h-8.955V84.87H9.042V100H0V42.96c0-2.465 1.945-4.47 4.418-4.47v-.003c2.47 0 4.624 2.008 4.624 4.473v31.08h80.454V52.015c0-2.466 2.012-4.47 4.482-4.47a4.474 4.474 0 0 1 4.474 4.47V100z"/><path d="M21.157 48.058c3.8 0 6.88 3.075 6.88 6.875a6.878 6.878 0 0 1-6.88 6.88 6.883 6.883 0 0 1-6.89-6.88c0-3.8 3.084-6.875 6.89-6.875m6.878 19.157c0 1.87-1.52 3.39-3.39 3.39h-9.78a3.39 3.39 0 0 1-3.387-3.39 3.384 3.384 0 0 1 3.388-3.38h9.778a3.387 3.387 0 0 1 3.39 3.38m52.678-16.483c3.024 0 5.466 2.367 5.493 5.374l.012 14.503H31.01V50.734l49.702-.004zm-32.714-3.147V16.19a6.13 6.13 0 0 0-6.12-6.124 6.096 6.096 0 0 0-6.092 6.088c0 .57-.462 1.035-1.03 1.035-.57 0-1.032-.468-1.032-1.037a1.357 1.357 0 0 0-2.714 0 3.747 3.747 0 0 0 7.492 0c0-1.86 1.513-3.37 3.376-3.37 1.872 0 3.4 1.525 3.4 3.406v31.394h2.72z"/><path d="M36.595 38.065h3.454s.68-2.945.68-7.64-.68-7.64-.68-7.64h-8.83s-.793 2.378-.793 7.64c0 5.26.79 7.64.79 7.64h3.516c0 .007-.007.016-.007.027.003.058.11 5.727-3.604 9.493h2.446c3.083-4.122 3.028-9.128 3.025-9.52m24.514-2.477h37.348V0H61.107v35.588zM64.3 8.085c0-2.625 2.12-4.75 4.758-4.75h21.47a4.75 4.75 0 0 1 4.756 4.75V20.99H92.4l-1.784-4.852a.754.754 0 0 0-1.415.01s-.504 1.43-.997 2.836c-.76-3.174-2.358-9.875-2.358-9.875a.748.748 0 0 0-.776-.576.747.747 0 0 0-.706.663S83.14 20.115 82.786 23.24c-.64-.96-1.274-1.92-1.274-1.92a.756.756 0 0 0-.627-.33h-2.9a2775.45 2775.45 0 0 0-1.777-4.853.76.76 0 0 0-.715-.49.74.74 0 0 0-.7.5l-1.006 2.836c-.758-3.17-2.357-9.875-2.357-9.875a.753.753 0 0 0-1.48.09c0-.002-1.222 10.916-1.578 14.04l-1.275-1.918a.75.75 0 0 0-.624-.33H64.3V8.084zm26.227 24.537h-21.47a4.752 4.752 0 0 1-4.758-4.76v-5.368h1.76c.37.552 2.196 3.3 2.196 3.3a.754.754 0 0 0 1.376-.334s.81-7.205 1.33-11.814c.868 3.66 1.948 8.167 1.948 8.167a.744.744 0 0 0 .69.577c.338.02.64-.186.75-.5 0 0 .612-1.736 1.157-3.27.578 1.57 1.25 3.382 1.25 3.382a.74.74 0 0 0 .7.492h3.02c.37.552 2.196 3.3 2.196 3.3a.75.75 0 0 0 .8.313.746.746 0 0 0 .572-.647s.812-7.205 1.334-11.817c.87 3.664 1.946 8.17 1.946 8.17a.745.745 0 0 0 .69.577c.337.02.64-.186.748-.5 0 0 .617-1.736 1.158-3.27.575 1.57 1.243 3.382 1.243 3.382a.747.747 0 0 0 .702.492h3.41v5.37a4.75 4.75 0 0 1-4.75 4.758"/></svg>