<svg xmlns="http://www.w3.org/2000/svg" viewBox="0 0 8 8"><title>Fill 2269 + Fill 2271 + Fill 2273</title><g fill="#1A1918" fill-rule="evenodd"><path d="M2.533 1.32a.663.663 0 1 0 0-1.324.663.663 0 0 0 0 1.325M2.96 7.005A1.966 1.966 0 0 1 .99 5.038c0-.596.27-1.127.69-1.488l-.036-.615A2.476 2.476 0 0 0 .47 5.038a2.488 2.488 0 0 0 2.49 2.488c1.01 0 1.876-.61 2.265-1.476l-.35-.606c-.188.89-.97 1.56-1.916 1.56"/><path d="M6.867 5.833h-.46L5.29 3.903a.38.38 0 0 0-.32-.188H3.313l-.018-.5H4.5c.165-.01.3-.136.3-.303a.3.3 0 0 0-.3-.3H3.262l-.043-.57a.644.644 0 0 0-.675-.6.642.642 0 0 0-.604.675l.116 2.01c.03.352.326.604.675.602H4.88l.878 1.518a.396.396 0 0 0 .34.18v.007h.77c.166-.01.3-.135.3-.302a.3.3 0 0 0-.3-.3"/></g></svg>