<svg xmlns="http://www.w3.org/2000/svg" version="1" viewBox="0 0 100 94.754"><path d="M55.176 8.508C53.916 3.624 49.456 0 44.18 0 37.887 0 32.8 5.063 32.8 11.346c0 1.06.123 2.025.396 2.977h4.56c.34.786.7 1.24.7 1.24a7.6 7.6 0 0 0 6.245 3.262 7.64 7.64 0 0 0 7.64-7.635c0-.966.25-1.844-.16-2.68h3v-.002zm-.318 67.832c-1.196 1.22-2.838 2.14-4.703 2.14V53.766l17.11-4.914 4.278 8.444L54.858 76.34z" fill="#1A1A1A"/><path d="M40.5 19.79a6.12 6.12 0 0 0-4.594-2.047c-1.945 0-3.69.9-4.806 2.313l-13.57 20.74a6.077 6.077 0 0 0-.868 3.148 6.15 6.15 0 0 0 2.724 5.116l18.212 10.106V76.36A4.406 4.406 0 0 0 42 80.776c2.42 0 4.394-1.978 4.394-4.414V54.887s.584-3.42-3.307-5.293l-11.353-5.936 8.27-12.637 4.396 6.9c.872 1.39 2.06 1.937 3.14 1.91l11.282-.04c4.59 0 4.59-5.962 0-5.94H49.68L40.5 19.79zm49.904 28.19c.18.174.295.403.295.69 0 .54-.46.994-1 .994-.15 0-.248 0-.36-.043-1.95-.83-3.19-1.35-5.45-1.35-1.505 0-3.35.52-5.49 2.26l-1.98-3.915c2.47-.745 4.5-1.4 6.61-1.4 3.38 0 5.16.7 7.363 2.776z" fill="#1A1A1A"/><path d="M14.683 50.99l19.113 10.54.042 4.23L12.01 53.742c-1.58-.814-3.705-1.29-5.21-1.29-2.254 0-3.5.52-5.44 1.354-.12.044-.22.044-.358.044A1.005 1.005 0 0 1 0 52.865c0-.294.115-.52.295-.697 2.21-2.076 4.466-2.774 7.846-2.774 1.73 0 3.84.2 6.55 1.598zm1.77 38.772c6.226 0 11.27-5.043 11.27-11.28S22.68 67.2 16.453 67.2c-6.222 0-11.266 5.04-11.266 11.28 0 6.23 5.043 11.28 11.267 11.28zM.193 78.482c0-8.984 7.285-16.28 16.26-16.28 9 0 16.28 7.296 16.28 16.28 0 8.983-7.28 16.272-16.28 16.272C7.48 94.756.193 87.464.193 78.48zm83.525 11.28A11.27 11.27 0 0 0 95 78.482 11.275 11.275 0 0 0 83.717 67.2c-6.207 0-11.252 5.045-11.252 11.283 0 6.236 5.045 11.28 11.252 11.28zm-16.25-11.28c0-8.984 7.27-16.28 16.25-16.28C92.7 62.2 100 69.497 100 78.48s-7.3 16.272-16.283 16.272c-8.98 0-16.25-7.29-16.25-16.273zm12.67-18.595L72.235 44.08a6.13 6.13 0 0 0-5.374-3.198h-5.15a1.834 1.834 0 0 0-1.82 1.843c0 1.016.81 1.824 1.825 1.824l5.156-.03c.874 0 1.846.59 2.207 1.44l7.444 15.18 3.627-1.26z" fill="#1A1A1A"/></svg>