<svg xmlns="http://www.w3.org/2000/svg" version="1" viewBox="0 0 95.559 100"><path d="M47.945 13.65a6.644 6.644 0 0 0 6.653-6.643c0-3.66-2.98-6.653-6.653-6.653a6.657 6.657 0 0 0-6.657 6.653 6.64 6.64 0 0 0 6.657 6.644M89.66 89.93a14.346 14.346 0 0 0-6.06-1.35c-2.128 0-4.196.498-6.06 1.35-1.774.777-3.77 1.253-5.863 1.253-2.09 0-4.11-.474-5.897-1.25a14.353 14.353 0 0 0-6.06-1.35c-2.154 0-4.222.497-6.06 1.35-1.8.776-3.795 1.252-5.886 1.252-2.093 0-4.088-.475-5.89-1.252a14.418 14.418 0 0 0-6.058-1.35c-2.14 0-4.208.498-6.058 1.35-1.79.777-3.784 1.253-5.863 1.253-2.094 0-4.113-.475-5.89-1.252a14.43 14.43 0 0 0-6.058-1.35c-2.165 0-4.234.5-6.058 1.35-1.82.778-3.81 1.254-5.9 1.254V100c2.09 0 4.08-.45 5.9-1.253a14.17 14.17 0 0 1 6.06-1.362c2.15 0 4.22.498 6.05 1.362A14.336 14.336 0 0 0 23.9 100c2.08 0 4.074-.45 5.863-1.253a14.34 14.34 0 0 1 6.056-1.362c2.152 0 4.22.498 6.06 1.362A14.44 14.44 0 0 0 47.77 100c2.09 0 4.088-.45 5.888-1.253a14.252 14.252 0 0 1 6.06-1.362c2.165 0 4.233.498 6.06 1.362A14.42 14.42 0 0 0 71.676 100c2.093 0 4.09-.45 5.864-1.253a14.432 14.432 0 0 1 6.06-1.362c2.167 0 4.234.498 6.06 1.362a14.533 14.533 0 0 0 5.9 1.253v-8.82c-2.093 0-4.087-.475-5.9-1.252"/><path d="M89.805.086a1.294 1.294 0 0 0-1.375.292L64.196 24.635a3.02 3.02 0 0 0-1.24-.267H53.76c-1.57-1.594-9.877-9.902-9.877-9.902-.427-.427-.974-.67-1.522-.815-1.91-1.65-4.78-1.63-6.6.2L21.39 28.2a2.99 2.99 0 0 0-.876 2.117v10.548H.318v3.344H20.51v23.55a5.355 5.355 0 0 0 5.354 5.36c2.944 0 5.4-2.4 5.4-5.37V44.21H47.53v31.228H.317v5.693h50.57V44.21h5.793v-3.345H31.265V37.87l13.393-13.405 5.462 5.464c.597.61 1.437.94 2.312.94h10.524a3.25 3.25 0 0 0 3.26-3.25c0-.428-.097-.84-.243-1.217L88.066 4.32v76.91h2.53V1.276c0-.52-.316-.972-.79-1.19"/></svg>