<svg xmlns="http://www.w3.org/2000/svg" viewBox="0 0 11 11"><title>path4606 + path4610 + path4614</title><g fill="#231F20" fill-rule="evenodd"><path d="M1.936 7.972C4.832 9.19 7.032 9.9 10.13 10.877c.063.01.122-.034.132-.1a.12.12 0 0 0-.097-.137A90.306 90.306 0 0 1 .578 7.008a.175.175 0 0 0-.23.092.166.166 0 0 0 .092.222c.217.098.43.193.638.283L.39 8.13a.24.24 0 0 0 .07.34c.087.058.208.05.292-.003l1.184-.495zM7.726 2.83a.826.826 0 1 0-.003-1.65.826.826 0 0 0 .003 1.65"/><path d="M6.002 4.838l1.758-.864 1.63 1.502a.41.41 0 0 0 .282.115.397.397 0 0 0 .26-.693l-2.334-2.14a.91.91 0 0 0-.267-.183l-1.814-.646L4.69.734a.395.395 0 0 0-.656.44l.843 1.22c.04.05.088.09.146.118L6 2.894l-1.604.822a.865.865 0 0 0-.428.612l.008 1.468-1.484.668a.517.517 0 0 0-.292.444.51.51 0 0 0 .737.48l1.815-.82a.506.506 0 0 0 .26-.344l-.004-.912 1.26 1.127-.232 1.92c0 .013-.003.026-.003.038a.513.513 0 0 0 1.022.09l.27-2.192.003-.03a.52.52 0 0 0-.158-.39L6.002 4.838z"/></g></svg>