<svg xmlns="http://www.w3.org/2000/svg" viewBox="0 0 25 25"><title>Shape</title><path d="M17.976 8.68a4.463 4.463 0 0 1-2.128-5.953 4.472 4.472 0 0 1 5.95-2.123 4.476 4.476 0 0 1 2.126 5.957 4.465 4.465 0 0 1-5.948 2.12zm4.164 6.227a2259.6 2259.6 0 0 1-3.273 6.892c-1.32 2.78-4.658 3.97-7.452 2.66-.905-.44-1.6-1.11-2.183-1.84-.884-1.12-1.478-4.1-1.478-4.1-.93.652-3.303 2.15-4.285 2.85a1.986 1.986 0 0 1-2.76-.48 1.978 1.978 0 0 1 .47-2.76 833.77 833.77 0 0 1 5.33-3.654 2.63 2.63 0 0 1 3.67.634l1.663 3.38 2.65-5.344-2.31-.677a1.926 1.926 0 0 1-1.174-.966l-2.26-4.35a1.93 1.93 0 1 1 3.42-1.785l1.89 3.633c1.243.365 6.31 1.84 6.31 1.84.274.084.505.24.712.42a2.863 2.863 0 0 1 1.057 3.64v.002z" fill-rule="evenodd"/></svg>