<svg xmlns="http://www.w3.org/2000/svg" version="1" viewBox="0 0 94.42 100"><path d="M20.15 63.002c4.86-.01 8.808-3.96 8.83-8.83-.022-4.876-3.97-8.825-8.83-8.833a8.817 8.817 0 0 0-8.828 8.83c-.007 4.87 3.943 8.82 8.828 8.83z"/><path d="M29.576 56.23v7.638H16.034c-6.55.046-6.56 8.458 0 8.448h17.768c2.598.01 4.224-2.083 4.225-4.44V56.23c-.002-6.366-8.44-6.366-8.45 0zm9.59-4.55H74.43c5.194-.013 8.242 3.318 8.234 7.8v12.73H39.166V51.68z"/><path d="M9.64 44.312c-.01-6.947-9.647-6.947-9.64 0V100h9.858V85.645H84.83v14.247h9.59V56.88c.025-7.328-9.72-7.328-9.696 0v17.17H9.64V44.313z"/><path d="M47.02 0C34.96.014 25.165 9.906 25.19 22.104c-.024 12.204 9.77 22.092 21.83 22.1 12.097-.008 21.893-9.896 21.885-22.1C68.912 9.906 59.115.014 47.02 0zm0 39.113c-9.277-.008-16.81-7.618-16.793-17.01C30.21 12.72 37.743 5.11 47.02 5.09c9.313.02 16.85 7.628 16.847 17.014 0 9.39-7.534 17-16.848 17.01z"/><path d="M44.744 29.9h4.93v-3.844c.028-1.034.51-2.015 1.786-2.87 1.318-.845 4.934-2.568 4.932-7.096.002-4.54-3.795-7.656-6.988-8.343-3.193-.635-6.653-.2-9.1 2.49-2.207 2.408-2.67 4.314-2.654 8.505h4.927v-.975c-.018-2.233.24-4.597 3.468-5.254 1.718-.34 3.355.205 4.333 1.135 1.105 1.106 1.115 3.554-.65 4.77l-2.763 1.896c-1.64 1.036-2.193 2.19-2.22 3.9V29.9zm0 6.99v-5.036h4.984v5.037h-4.984z"/></svg>