<svg xmlns="http://www.w3.org/2000/svg" viewBox="0 0 9 8"><title>Fill 2545 + Fill 2546 + Fill 2547</title><g fill="#1A1918" fill-rule="evenodd"><path d="M2.874 1.808a.764.764 0 1 0 0-1.53.764.764 0 0 0 0 1.53"/><path d="M.056 5.984c.18 0 .35-.04.505-.11a1.235 1.235 0 0 1 1.046 0 1.242 1.242 0 0 0 1.015 0 1.233 1.233 0 0 1 1.046 0 1.246 1.246 0 0 0 1.014 0 1.24 1.24 0 0 1 1.044 0 1.25 1.25 0 0 0 1.016 0 1.26 1.26 0 0 1 .974-.032A1.392 1.392 0 0 0 6.69 3.51l-.155.017c-.17.694-.866.724-.866.724H2.49l-.265-.156.64-1.075.702.405c.42.272.638-.11.638-.11L4.91 2.17c.303-.5-.345-.9-.65-.4l-.49.805-1.17-.647c-.81-.453-1.155.296-1.155.296L.525 3.8c-.156.326-.016.466-.016.466H.055v1.72zm8.234 1.52c-.18 0-.353-.04-.506-.11a1.23 1.23 0 0 0-1.045 0 1.247 1.247 0 0 1-1.015 0 1.236 1.236 0 0 0-1.045 0 1.243 1.243 0 0 1-1.015 0 1.23 1.23 0 0 0-1.045 0 1.243 1.243 0 0 1-1.016 0 1.224 1.224 0 0 0-1.043 0 1.25 1.25 0 0 1-.505.11v-.76c.18 0 .352-.04.507-.11a1.24 1.24 0 0 1 1.043 0 1.243 1.243 0 0 0 1.016 0 1.243 1.243 0 0 1 1.047 0 1.224 1.224 0 0 0 1.014 0 1.25 1.25 0 0 1 .523-.116c.186 0 .363.043.522.116a1.234 1.234 0 0 0 1.017 0 1.243 1.243 0 0 1 1.044 0c.153.07.326.11.506.11v.76z"/></g></svg>