<svg xmlns="http://www.w3.org/2000/svg" viewBox="0 0 10 11"><title>path5996 + path6000 + path6004</title><g fill="#231F20" fill-rule="evenodd"><path d="M7.963 2.523a.828.828 0 0 0 0-1.655.828.828 0 0 0 0 1.655M5.94 4.752l1.756-.866L9.33 5.39c.072.07.17.114.28.114a.397.397 0 0 0 .26-.693L7.537 2.668a.902.902 0 0 0-.268-.18L5.45 1.838 4.627.642a.398.398 0 0 0-.715.188c-.01.092.014.18.06.253l.844 1.22c.038.05.087.09.146.117l.976.386-1.606.82a.877.877 0 0 0-.428.616l.01 1.467-1.483.668a.513.513 0 1 0 .442.925l1.817-.82a.515.515 0 0 0 .257-.345l-.005-.912L6.205 6.35l-.233 1.927-.002.035a.513.513 0 0 0 1.02.092l.272-2.195c.003-.01.003-.02.003-.03a.507.507 0 0 0-.16-.393L5.94 4.752z"/><path d="M.45 6.17a.52.52 0 0 0-.328.66c.15.45.493.805.935.974l6.946 2.64c.444.17.935.133 1.344-.102a.518.518 0 1 0-.518-.9.53.53 0 0 1-.456.032L1.427 6.83a.537.537 0 0 1-.32-.332.52.52 0 0 0-.658-.328"/></g></svg>