<svg xmlns="http://www.w3.org/2000/svg" version="1" viewBox="0 0 96.127 100"><path d="M46.21 49.882c-1.84 1.713-16.58 16.014-16.58 16.014l3.935 3.88S46.66 57.69 48.628 55.863c.487-.45 1.31-1.31 2.833-1.31h44.67V48.37H49.91c-1.35 0-2.632.53-3.698 1.514zM72.673 16.26c5.237 0 8.095-3.626 8.095-8.094 0-4.467-3.627-8.09-8.095-8.09a8.094 8.094 0 0 0 0 16.185zM60.668 30.172h2.715l-3.978 14.29H85.94l-3.98-14.29h2.714l4.128 14.29h7.015L90.18 25.5c-.745-2.62-4.058-7.258-9.792-7.258H64.953c-5.73 0-9.04 4.64-9.79 7.258l-5.63 18.963h7.014l4.12-14.29zM37.72 43.712l-3.44-6.415-3.686-6.87s-.418-.634-1.194-.26c-.698.337-.383 1.124-.383 1.124l2.364 4.513 1.47 2.81-1.694-.763c-3.004-1.355-4.66-1.934-5.326-2.23-.12-.055-.702-.376-.978-.984-.787-1.76-4.15-10.27-4.904-12.15-.637-1.593-2.21-3.853-5.444-4.654-3.68-.91-7.39 1.41-8.267 5.104l-5.02 21.166C.767 45.808 0 50.426 0 52.372s.032 41.343.032 41.343c.025 3.488 2.543 6.3 6.027 6.285 3.48-.01 5.86-2.847 5.85-6.332 0 0-.003-22.514-.007-35.024l5.354-22.605c.626 1.527 1.4 3.39 1.653 3.837.605 1.055 1.2 1.78 2.416 2.354 0 0 7.01 2.9 9.722 4.14a3.89 3.89 0 0 0 4.442-1.23l.375-.776.13.247s.797 1.407 1.978 1.47c.337-1.074-.253-2.37-.253-2.37z"/><circle cy="8.095" cx="18.789" r="8.097"/><path d="M30.532 60.925l15.775-14.682-2.05-2.2L28.48 58.727z"/></svg>