<svg xmlns="http://www.w3.org/2000/svg" viewBox="0 0 6 10"><title>Group</title><path d="M2.766 2.213A.66.66 0 1 0 2.764.89a.66.66 0 0 0 .002 1.323m-1.116.11a.19.19 0 0 0-.14-.23l-.55-.13a.188.188 0 0 0-.23.136L.27 4.013a.19.19 0 0 0 .14.23l.552.132c.1.025.203-.037.226-.14L1.65 2.32zm2.54 6.814v.01a.152.152 0 0 0 .302.02l1.11-6.018v-.014a.15.15 0 0 0-.15-.15c-.077 0-.136.058-.152.132L4.19 9.136zM.5 8.742a.463.463 0 0 0 .902.227l.8-3.308.762 3.287a.463.463 0 0 0 .904-.216L2.822 4.366l.09-.385.068.304c.062.197.242.217.242.217l1.076.274a.317.317 0 0 0 .14-.62l-.933-.234-.256-1.04c-.123-.58-.678-.566-.678-.566-.54-.013-.674.553-.674.553L.5 8.742z" fill="#1A1918" fill-rule="evenodd"/></svg>