<svg xmlns="http://www.w3.org/2000/svg" viewBox="0 0 10 9"><title>Group</title><g fill="#1A1918" fill-rule="evenodd"><path d="M9.19 8.003c0 .222-.184.4-.404.4H2.2v.27h6.585a.672.672 0 0 0 .676-.668l-.27-.002zm-1.967-6.13A.662.662 0 1 0 7.22.55a.662.662 0 0 0 .003 1.324M3.03 7.57L.827 5.36v.387l2.05 2.056c.235.255.638-.04.638-.04l-.193-.207s-.19.125-.29.02l-.004-.007zm.07-4.165H.847v.27H3.1v-.27zm6.09-.643l.257.108L6.89 8.018h-.284L9.19 2.762z"/><path d="M4.945 2.365l-1.03 1.188a.332.332 0 1 1-.478-.46l1.11-1.278a.333.333 0 0 1 .256-.12H6.41a.43.43 0 0 1 .303.122L7.737 2.84l.85-.847a.343.343 0 0 1 .487.48L8.05 3.507c-.31.31-.56.046-.56.046l-.63-.63-.98 1.134.9.9s.188.176.08.526L6.356 7.73a.43.43 0 1 1-.833-.194l.414-1.843-1.02-.994-.88.98s-.143.175-.52.162l-1.782.004a.43.43 0 0 1-.425-.335.42.42 0 0 1 .428-.52l1.533.007 2.27-2.63-.593-.002z"/></g></svg>