<svg xmlns="http://www.w3.org/2000/svg" version="1" viewBox="0 0 93.343 99.999"><path d="M49.828 11.8h-14.57c-2.632.008-2.535 3.907 0 3.885h14.57v1.99h-14.57c-2.62-.02-2.523 3.877 0 3.887h14.57V23.6h-14.57c-2.62 0-2.523 3.897 0 3.884h14.57v1.945h-14.57c-2.564.01-2.523 3.91 0 3.93h14.57v1.94h-14.57c-2.564-.01-2.573 3.883 0 3.88h14.57v1.94h-14.57c-2.564.01-2.573 3.91 0 3.885h14.57V47h-14.57c-2.564-.018-2.573 3.88 0 3.887h14.57v1.942h-14.57c-2.564-.008-2.523 3.89 0 3.88h14.57v37.84c.008 5.76 8.816 5.66 8.84 0V6.02C58.644 3.39 56.47.06 52.888.05h-17.63c-2.635.003-2.538 3.9 0 3.884l14.57.048v1.943h-14.57c-2.63-.018-2.533 3.88 0 3.884h14.57v1.99zm-16.9 76.39c-.466 3.188.62 8.926 2.913 11.026 2.37 2.163 5.19-.607 4.04-2.865-1.19-2.22-2.672-3.44-1.406-8.79l-5.54.63z"/><path d="M28.315 69.594v-25.74L23.41 1.406C23.294.283 22.595.02 21.952 0c-.667.02-1.364.283-1.507 1.407l-4.76 42.446v25.74C6.743 64.906.007 72.19 0 78.82c.007 5.895 4.355 10.743 10.54 10.732 6.228.01 10.473-5.418 10.49-10.733V52.93h1.99v25.89c-.013 6.136 4.952 10.672 10.296 10.686 6.662-.014 10.92-4.72 10.927-10.64-.008-6.725-6.946-13.96-15.928-9.272zM10.49 84.162c-2.925-.014-5.29-2.378-5.293-5.296.004-2.915 2.368-5.277 5.294-5.29 2.91.013 5.27 2.375 5.3 5.29-.02 2.918-2.384 5.282-5.29 5.296zm23.264 0a5.326 5.326 0 0 1-5.295-5.296 5.324 5.324 0 0 1 5.29-5.29 5.315 5.315 0 0 1 5.29 5.29 5.318 5.318 0 0 1-5.29 5.296zm48.03-73.818A4.962 4.962 0 0 0 86.74 5.39c0-2.745-2.22-4.966-4.955-4.954A4.932 4.932 0 0 0 76.83 5.39c-.006 2.73 2.212 4.95 4.955 4.954zm-5.292 1.066c-3.527.025-6.352 2.888-6.362 6.46v15.202c.01 2.98 4.343 2.98 4.32 0v-13.89h1.07v38.122c-.022 3.938 5.746 3.822 5.73 0V35.16h1.02v22.144c-.014 3.822 5.787 3.938 5.78 0V19.182h1.02v13.89c-.01 3.002 4.298 3.002 4.273 0V17.968c.016-3.302-2.54-6.527-6.412-6.508l-10.43-.05z"/></svg>