<svg xmlns="http://www.w3.org/2000/svg" version="1" viewBox="0 0 100 84.18"><path d="M11.835 31.495H5.728C2.564 31.495 0 34.185 0 37.502v28.836c0 3.317 2.564 6.006 5.728 6.006h6.107v-40.85zm0 40.85v6.107c0 3.163 2.69 5.728 6.006 5.728h28.84c3.32 0 6.01-2.564 6.01-5.728v-6.108H11.84zm72.138-61.848H64.23l-5.247 5.155h5.248V16.8c0 6.006 4.88 10.877 10.89 10.877C81.13 27.677 86 22.805 86 16.8v-6.31h-2.02zm2.02-3.437H63.756L58.983 0h27.01zm8.28 24.435h-1.047l-27.37 34.742h22.307v6.106H60.128V84.18H100V37.502c0-3.318-2.563-6.007-5.728-6.007zm-9.426 0H56.335v.013c-1.18-.022-2.388.496-3.405 1.783L30.162 62.08c-4.074 5.153 3.168 12.5 7.29 7.287l21.53-27.224v22.19L84.847 31.5z"/></svg>