<svg xmlns="http://www.w3.org/2000/svg" version="1" viewBox="0 0 87.422 99.575"><path d="M0 6.38h37.01v3.587h-3.59v3.952L0 16.823V6.38zm52.543 10.692a8.507 8.507 0 0 0 8.522-8.525c0-4.71-3.81-8.547-8.522-8.547a8.55 8.55 0 0 0-8.55 8.547c.002 4.727 3.822 8.525 8.55 8.525"/><path d="M59 16.593a6.276 6.276 0 0 1 8.82 0l18.466 18.44a3.88 3.88 0 0 1 1.136 2.75v55.333c0 3.812-3.072 6.885-6.882 6.885s-6.937-3.07-6.937-6.883V47.47L56.39 30.245l-6.88 6.883a4.238 4.238 0 0 1-3.282 1.54 4.237 4.237 0 0 1-3.125-1.385l-11.855-11.88c-1.51-1.794-1.382-4.518.402-6.03 1.793-1.51 4.466-1.253 5.978.53l9.014 9.05L59 16.595zm-35.898 2.622a1.795 1.795 0 0 0-3.525.052l-2.88 16.478v63.83h24.366v-9.05H26.11l-.104-54.78-2.904-16.53z"/></svg>