<svg xmlns="http://www.w3.org/2000/svg" viewBox="0 0 26 99"><title>Shape</title><path d="M16.51 11.752H1.94c-2.633.008-2.536 3.907 0 3.885h14.568v1.99H1.94c-2.62-.02-2.524 3.877 0 3.887h14.568v2.038H1.94c-2.62 0-2.524 3.897 0 3.884h14.568v1.945H1.94c-2.565.02-2.524 3.92 0 3.94h14.568v1.947H1.94c-2.565-.01-2.574 3.888 0 3.885h14.568v1.94H1.94c-2.565.01-2.574 3.908 0 3.885h14.568v1.99H1.94c-2.565-.02-2.574 3.88 0 3.887h14.568V52.8H1.94c-2.565-.006-2.524 3.893 0 3.88h14.568v37.83c.01 5.763 8.817 5.663 8.84 0V5.972C25.326 3.342 23.15.01 19.568 0H1.94c-2.635.003-2.538 3.9 0 3.884l14.57.048v1.943H1.94c-2.63-.018-2.533 3.88 0 3.884h14.568v1.99z" fill-rule="evenodd"/></svg>