<svg xmlns="http://www.w3.org/2000/svg" viewBox="0 0 45 90"><title>Shape</title><path d="M28.315 69.594v-25.74L23.41 1.406C23.294.283 22.595.02 21.952 0c-.667.02-1.364.283-1.507 1.407l-4.76 42.446v25.74C6.743 64.906.007 72.19 0 78.82c.007 5.895 4.355 10.743 10.54 10.732 6.228.01 10.473-5.418 10.49-10.733V52.93h1.99v25.89c-.013 6.136 4.952 10.672 10.296 10.686 6.662-.014 10.92-4.72 10.927-10.64-.008-6.725-6.946-13.96-15.928-9.272zM10.49 84.162c-2.925-.014-5.29-2.378-5.293-5.296.004-2.915 2.368-5.277 5.294-5.29 2.91.013 5.27 2.375 5.3 5.29-.02 2.918-2.383 5.282-5.29 5.296zm23.264 0a5.326 5.326 0 0 1-5.295-5.296 5.324 5.324 0 0 1 5.29-5.29 5.315 5.315 0 0 1 5.29 5.29 5.318 5.318 0 0 1-5.29 5.296z" fill-rule="evenodd"/></svg>