<svg xmlns="http://www.w3.org/2000/svg" version="1" viewBox="0 0 100 87.882"><path d="M99.772 23.34l-8.198 64.542H63.896L55.724 23.34h33.802L96.216 0 100 1.062l-6.4 22.265 6.172.013zM51.815 60.924s1.037-9.387-13.32-9.387H15.622c-14.333 0-13.32 9.387-13.32 9.387h49.512zM2.302 78.47s-1.012 9.412 13.32 9.412h22.872c14.358 0 13.32-9.412 13.32-9.412H2.304zm47.363-4.542a4.25 4.25 0 0 0 4.25-4.25c0-2.328-1.897-4.226-4.25-4.226H4.25C1.91 65.452 0 67.35 0 69.677a4.26 4.26 0 0 0 4.25 4.25h45.415z"/></svg>