<svg xmlns="http://www.w3.org/2000/svg" version="1" viewBox="0 0 75.942 100"><path d="M11.386 11.414c2.1 0 3.758-1.714 3.758-3.802 0-2.07-1.658-3.77-3.758-3.77a3.777 3.777 0 0 0-3.772 3.77c0 2.088 1.685 3.802 3.772 3.802m11.08 0c2.087 0 3.773-1.714 3.773-3.802a3.78 3.78 0 0 0-3.776-3.77c-2.07 0-3.757 1.7-3.757 3.77 0 2.088 1.687 3.802 3.757 3.802M72.488 0c1.906 0 3.454 1.533 3.454 3.426v11.746H.18V3.454C.18 1.56 1.726.014 3.605.014L72.488 0zM37.472 82.67c13.488 0 24.403-10.915 24.403-24.4 0-13.474-10.915-24.402-24.403-24.402-13.472 0-24.388 10.928-24.388 24.402 0 13.485 10.916 24.4 24.388 24.4M0 99.973V23.918a3.426 3.426 0 0 1 3.428-3.428h68.894a3.428 3.428 0 0 1 3.428 3.428V100L0 99.972z"/><path d="M57.248 52.037a20.79 20.79 0 0 1 .772 5.608c0 11.304-9.203 20.48-20.52 20.48-11.33 0-20.506-9.177-20.506-20.48 0-2.112.32-4.13.884-6.036v.04a7.138 7.138 0 0 0 5.28 2.307c1.823 0 3.455-.648 4.727-1.78h-.028a7.126 7.126 0 0 0 4.752 1.78c1.877 0 3.59-.704 4.86-1.92v.027c1.272 1.188 2.97 1.893 4.88 1.893 1.934 0 3.715-.76 4.973-2.017v.027c1.286 1.258 3.04 1.99 4.976 1.99a7.17 7.17 0 0 0 4.92-1.948l.027.026z"/></svg>