<svg xmlns="http://www.w3.org/2000/svg" version="1" viewBox="0 0 100 56.196"><path d="M80.347 51.4c8.365 0 15.167-6.774 15.167-15.152 0-8.393-6.802-15.182-15.167-15.182-8.405 0-15.18 6.79-15.18 15.182 0 8.378 6.775 15.152 15.18 15.152m-60.52 0c8.365 0 15.18-6.774 15.18-15.152 0-8.393-6.815-15.182-15.18-15.182-8.39 0-15.18 6.79-15.18 15.182 0 8.378 6.79 15.152 15.18 15.152M61.45 21.202H38.766v15.125H61.45V21.202zM76.442 5.158h-52.48v9.793h52.48V5.16zm6.06 9.78H100v41.26H0v-41.26h17.915l.027-8.89c0-3.34 2.68-6.048 6.02-6.048H76.43c3.313 0 6.02 2.708 6.02 6.048l.054 8.89z"/></svg>