<svg xmlns="http://www.w3.org/2000/svg" viewBox="0 0 45 82"><title>Shape + Shape + Shape</title><g fill-rule="evenodd"><path d="M.364.686v81.217H45V.686H.364zM42.2 70.413H3.154V39.736H42.2v30.677zm0-36.18H3.154V3.56H42.2v30.672z"/><path d="M39.367 6.176H5.955v25.456h33.412V6.176zM28.102 14.71H17.1c-.857 0-1.55-.69-1.55-1.552 0-.854.692-1.55 1.55-1.55h11a1.55 1.55 0 0 1 0 3.1zm11.286 27.636H5.978v25.45h33.41v-25.45zm-11.286 8.54H17.1a1.552 1.552 0 0 1 0-3.104h11a1.552 1.552 0 0 1 0 3.104z"/></g></svg>