<svg xmlns="http://www.w3.org/2000/svg" viewBox="0 0 120 120"><path d="M112.65 71.172l-5.5-9.526-15.645 9.036L73 60l18.504-10.683 15.656 9.037 5.5-9.526-10.16-5.862 12.6-7.27-6.5-11.258-12.596 7.27v-11.72h-11v18.07L66.5 48.743V27.375l15.652-9.036-5.5-9.53L66.5 14.67V.137h-13v14.54L43.35 8.812l-5.5 9.526 15.65 9.035V48.74L34.997 38.057V19.985h-11v11.72l-12.59-7.268-6.5 11.257 12.59 7.27-10.152 5.862 5.5 9.526 15.653-9.037L47 60 28.497 70.683l-15.65-9.037-5.5 9.526 10.15 5.86-12.59 7.27 6.5 11.26 12.59-7.27v11.727h11V81.94L53.5 71.26v21.365l-15.65 9.035 5.5 9.53 10.15-5.87v14.54h13v-14.54l10.15 5.87 5.5-9.53-15.65-9.034v-21.37L85.004 81.94v18.07h11V88.29l12.596 7.27 6.5-11.257-12.6-7.27z"/><path stroke="#000" stroke-width="13" stroke-miterlimit="10" d="M-90.257 60v59.86" fill="none"/><path stroke="#000" stroke-width="11" stroke-miterlimit="10" d="M-90.257 95.223l19.4 11.197" fill="none"/><path stroke="#000" stroke-width="13" stroke-miterlimit="10" d="M-90.257 60V.135" fill="none"/><path stroke="#000" stroke-width="11" stroke-miterlimit="10" d="M-90.257 24.777l-19.403-11.2m19.403 11.2l19.402-11.2m-19.402 81.646l-19.403 11.197" fill="none"/><path stroke="#000" stroke-width="13" stroke-miterlimit="10" d="M-90.257 60L-142.1 89.933" fill="none"/><path stroke="#000" stroke-width="11" stroke-miterlimit="10" d="M-120.76 77.61v22.41" fill="none"/><path stroke="#000" stroke-width="13" stroke-miterlimit="10" d="M-90.257 60l51.845-29.933" fill="none"/><path stroke="#000" stroke-width="11" stroke-miterlimit="10" d="M-59.753 42.39V19.986m0 22.404l19.402 11.2m-80.41 24.02l-19.4-11.2" fill="none"/><path stroke="#000" stroke-width="13" stroke-miterlimit="10" d="M-90.257 60L-142.1 30.064" fill="none"/><path stroke="#000" stroke-width="11" stroke-miterlimit="10" d="M-120.76 42.388l-19.4 11.2" fill="none"/><path stroke="#000" stroke-width="13" stroke-miterlimit="10" d="M-90.257 60l51.845 29.93" fill="none"/><path stroke="#000" stroke-width="11" stroke-miterlimit="10" d="M-59.753 77.61l19.4-11.2m-19.4 11.2v22.4m-61.007-57.622V19.985" fill="none"/></svg>