<svg xmlns="http://www.w3.org/2000/svg" viewBox="0 0 110 114"><title>Shape + Shape</title><g fill="#000" fill-rule="evenodd"><path d="M0 44.208v69.752h110V44.208H0zm60.876 32.918V97.19h-11.89V77.12c-2.485-1.828-4.105-4.766-4.105-8.09 0-5.55 4.5-10.05 10.06-10.05s10.05 4.5 10.05 10.05c0 3.324-1.62 6.264-4.104 8.094l-.01.002z"/><path d="M37.434 4.077c-22.27 9.453-32.697 35.26-23.244 57.53l16.69-7.084L94.963 27.32C85.51 5.05 59.702-5.375 37.434 4.078zm-6.68 50.5c-5.574-13.135.575-28.355 13.71-33.93s28.356.573 33.93 13.707L30.76 54.574l-.005.002z"/></g></svg>