<svg xmlns="http://www.w3.org/2000/svg" version="1" viewBox="0 0 100 47.275"><path d="M98.923 20l-8.05-8.123H43.728C39.698 4.775 32.13-.02 23.448 0 10.505-.027.027 10.56 0 23.6c.03 13.07 10.507 23.655 23.446 23.675 8.66-.014 16.21-4.793 20.247-11.876h9.483l7.512-7.51 5.747 5.747 5.517-5.518 5.67 5.666 5.746-5.744 5.747 5.744 9.81-9.805c1.415-1.476 1.455-2.512-.002-3.982zM13.18 29.807c-3.458-.032-6.24-2.846-6.207-6.286-.032-3.486 2.75-6.3 6.207-6.282 3.4-.02 6.182 2.795 6.208 6.282-.025 3.44-2.806 6.253-6.208 6.286z" fill="#010101"/></svg>