<svg xmlns="http://www.w3.org/2000/svg" version="1" viewBox="0 0 99.94 98.44"><path d="M40.883 0H21.858v13.612h19.024V0zm21.465 58.74a3.255 3.255 0 0 1-3.26-3.26V17.873h28.74l12.112 51.31-.062 3.32V95.18a3.17 3.17 0 0 1-3.17 3.17H68.775a3.17 3.17 0 0 1-3.17-3.17V58.74h-3.032m-25.04.076c1.804 0 3.26-1.44 3.26-3.245V17.94h-28.71L-.06 69.248 0 72.59v22.68a3.178 3.178 0 0 0 3.17 3.168h27.935c1.774 0 3.2-1.426 3.2-3.17v-36.45h2.986m17.57-40.885h-9.85v34.94h9.86v-34.94zM78.13 0H59.09v13.612h19.037V0z"/></svg>