<svg xmlns="http://www.w3.org/2000/svg" version="1" viewBox="0 0 100 97.902"><path d="M4.188 8.774v20.842h-3.12A1.068 1.068 0 0 1 0 28.546V1.652C0 .742.68 0 1.61 0h13.78C16.32 0 17 .738 17 1.648v1.58h21.307c.593 0 1.07.477 1.07 1.065v6.048h-18.19V8.76c0-.908-.677-1.648-1.613-1.648H5.8c-.934 0-1.612.75-1.612 1.664z"/><path d="M47.754 42.238c0 .59-.477 1.065-1.07 1.065H9.448c-.593 0-1.07-.475-1.07-1.065V15.34c0-.91.68-1.65 1.61-1.65h13.778c.932 0 1.614.738 1.614 1.648v1.58h21.304c.593 0 1.07.478 1.07 1.065v24.255zM31.238 26.926v-6.344h-6.346v6.344h-6.346v6.346h6.346v6.344h6.346v-6.344h6.343v-6.346h-6.34zm24.126-10.24v81.217H100V16.686H55.364zM97.2 86.413H58.154V55.736H97.2v30.677zm0-36.18H58.154V19.56H97.2v30.672z"/><path d="M94.367 22.176H60.955v25.456h33.412V22.176zM83.102 30.71H72.1c-.857 0-1.55-.69-1.55-1.552 0-.854.692-1.55 1.55-1.55h11a1.55 1.55 0 0 1 0 3.1zm11.286 27.636h-33.41v25.45h33.41v-25.45zm-11.286 8.54H72.1a1.552 1.552 0 0 1 0-3.104h11a1.552 1.552 0 0 1 0 3.104z"/></svg>