<svg xmlns="http://www.w3.org/2000/svg" version="1" viewBox="0 0 84.166 100"><path d="M66.078 16.94c-1.845 1.81-4.336 2.516-7.098 2.516-3.506 0-6.695-1.445-8.527-4.18-1.817 2.79-5.02 4.18-8.572 4.18-3.5 0-6.66-1.475-8.49-4.21-1.82 2.822-5.02 4.21-8.61 4.21-2.59 0-4.966-.59-6.755-2.197l-1.36-9.84c1.858 2.48 4.805 4.09 8.114 4.09 3.59 0 6.793-1.78 8.612-4.6 1.83 2.732 4.99 4.6 8.498 4.6 3.552 0 6.756-1.78 8.573-4.57 1.833 2.733 5.02 4.57 8.528 4.57 3.578 0 6.74-1.865 8.544-4.687l-1.444 10.11z"/><path d="M68.67 100L84.165 0 73.733.102 59.64 89.455H24.525L10.43.102 0 0l15.496 100H68.67z"/></svg>