<svg xmlns="http://www.w3.org/2000/svg" viewBox="0 0 120 120"><path d="M118.27 98.503v-.026s-22.666-22.64-22.68-22.65a4.54 4.54 0 0 0-6.44.01L78.72 86.315c-4.056 4.057-9.286.457-19.325-7.73-6.642-5.415-14.284-12.698-20.91-20.91-4.65-5.76-8.762-11.81-4.514-16.057.01-.01 10.48-10.45 10.48-10.46l.01-.022c1.88-1.878 1.698-4.755-.02-6.472v-.026L21.1 1.33c-1.797-1.796-4.67-1.756-6.44.013L4.15 11.853C-.18 17.273-9.803 43.1 31.452 85.387c43.46 44.55 71.505 35.02 76.333 29.994 0 0 10.5-10.37 10.5-10.38l.008-.02c1.88-1.88 1.69-4.76-.02-6.48z"/></svg>