<svg xmlns="http://www.w3.org/2000/svg" version="1" viewBox="0 0 100 93.182"><path d="M51.95 26.513l-.003 3.258c3.077-.43 2.77-3.18.003-3.25zm-3.19-3.92V19.72c-2.28.398-2.235 2.837 0 2.872z"/><path d="M50.343 12.16c-7.053 0-12.772 5.72-12.772 12.772 0 7.054 5.72 12.772 12.78 12.772 7.057 0 12.77-5.718 12.77-12.772 0-7.053-5.72-12.77-12.77-12.77zm1.57 20.85v2.28h-3.17v-2.313c-1.815-.266-5.137-2.017-5.343-5.78h3.335c.21.962.49 2.126 2.008 2.558l-.004-3.78c-2.09-.3-5.09-1.212-5.09-4.56 0-3.76 4.16-4.933 5.083-4.933v-2.274h3.137v2.274c2.115.123 5.186 1.89 5.186 5.252h-3.3c-.085-.998-.858-1.98-1.85-2.048v3.466c2.52.258 5.48 1.22 5.48 4.61 0 2.957-2.97 5.115-5.48 5.248zm10.832 34.628c-7.054 0-12.772 5.72-12.772 12.772s5.718 12.77 12.772 12.77 12.77-5.718 12.77-12.77c.002-7.054-5.716-12.772-12.77-12.772zM68.47 82.37v3.12h-3.978v4.376h-3.388V85.49h-4.247v-3.065h4.3l-5.59-9.848h3.71l3.44 6.073 3.733-6.073h3.417L64.33 82.37h4.14zm-46-29.205c-7.054 0-12.772 5.72-12.772 12.772S15.416 78.71 22.47 78.71s12.772-5.72 12.772-12.772-5.72-12.773-12.772-12.773zm.405 10.337v3.037h-2.293v7.28H17.33v-7.26h-1.937v-3.03h1.936v-2.72c0-1.05 1.02-4.25 4.86-4.25 3.92 0 4.76 3.09 4.76 5.673h-3.19c0-1.658-.23-2.528-1.54-2.528-1.41 0-1.64.97-1.64 2.5v1.29h2.29zm7.33 3.01c-2.63.323-3.227 1.726-3.227 3.465v3.85h-3.226V63.5h3.226v1.613c.7-.808 1.505-1.668 3.226-1.668v3.066z"/><path d="M0 0v49.564h58.72c1.11 5.925 6.306 10.41 12.552 10.41s11.44-4.485 12.55-10.41H100V0H0zm69.967 45.132h2.903v2.753h-2.366c.296 2.516-1.155 3.574-1.236 4.422h7.903v2.753H65.35v-2.753c1.344-.9 2.043-3.178 1.612-4.396h-2.474v-2.8h1.99c-.54-1.27-.54-1.69-.54-2.8s.916-4.737 5.7-4.712c4.406.023 5.686 3.653 5.686 6.248l-3.354.003c-.225-1.57-.842-2.86-2.3-2.86-2.23 0-2.235 1.4-2.235 1.877s.08 1.64.538 2.278zm20.61-4.99h-8.664c-2.288-3.442-6.2-5.71-10.642-5.71S62.92 36.7 60.63 40.14H9.423V9.423h81.153V40.14z"/></svg>