<svg xmlns="http://www.w3.org/2000/svg" viewBox="0 0 9 9"><title>Fill 340 + Fill 342 + Fill 344</title><g fill="#1A1918" fill-rule="evenodd"><path d="M.63 4.97c.563-.663 1.59-1.128 2.468-.98.098-1.21-.04-2.338.563-3.45C1.794.66.927 3.514.63 4.97M7.252 2.852c.392-.467 1.32-.705 1.807-.268C7.79.81 6.22-.328 3.986.43c1.745.53 2.968 2.16 3.265 2.422"/><path d="M6.9 2.924C6.29 2.072 4.37.712 3.948.797c-.45.09-.575 2.645-.534 3.193.267-.502.676-.88 1.15-1.116l1.947 5.3.267-.067-1.965-5.34c.65-.24 1.397-.22 2.088.157"/></g></svg>