<svg xmlns="http://www.w3.org/2000/svg" viewBox="0 0 57 87"><title>campfire</title><path d="M56.466 85.455v-12.91L.404 53.817v12.92l56.062 18.718zm-43.13-31.622c-1.93-2.176-14.746-16.99-1.815-29.81C22.3 13.333 23.87 4.353 20.24 0c0 0 27.434 11.274 11.298 37.422-2.762 4.44-9.66 9.683-6.054 20.492l-12.148-4.08zm16.846 3.547c-.59-2.193-3.22-6.97 4.804-16.472 4.29-5.064 5.902-12.573 6.29-15.398 0 0 14.21 8.146.072 28.08l-11.166 3.79zm3.018 3.058l23.266-7.77v12.91l-3.945 1.3-19.32-6.44zM23.676 78.84L.404 86.592v-12.91l3.958-1.29 19.314 6.446z" fill-rule="evenodd"/></svg>