<svg xmlns="http://www.w3.org/2000/svg" version="1" viewBox="0 0 35.311 99.949"><path d="M22.047 0C17.362.534.263 8.35-.243 48.663c-.517 42.43 17.605 51.363 22.34 51.286V71.91c-3.894-.02-4.68-4.278-5.598-13.058-.57-5.827-.743-13.026 0-20.173.56-5.03 1.492-9.933 5.595-9.938L22.045 0zm10.135 100c1.833-.023 3.13-1.498 3.127-3.177 0 0 .002-21.843 0-21.836.002-1.752-1.4-3.12-3.13-3.13h-7.916V100s7.917-.01 7.917 0zm0-71.256c1.833.005 3.13-1.472 3.127-3.126 0 0 .002-22.497 0-22.492 0-1.75-1.4-3.118-3.13-3.126h-7.917v28.744s7.917.015 7.917 0z"/></svg>