<svg xmlns="http://www.w3.org/2000/svg" version="1" viewBox="0 0 100 70.749"><path d="M0 70.75V57.024h85.67V70.75zm88.218-13.942h4.594v13.886h-4.594zm11.727-2.234v-8.44c.005-5.036-1.84-10.027-5.053-13.694-3.563-4.066-8.598-6.305-14.174-6.305h-3.33c.938-2.17 1.44-4.446 1.426-6.575.01-4.102-1.572-7.898-4.46-10.683-2.878-2.78-6.88-4.335-11.287-4.41V9.06c6.495.142 11.172 4.514 11.156 10.51.017 2.396-.965 5.21-2.62 7.526a2.294 2.294 0 0 0 1.867 3.63h7.248c5.426 0 8.824 2.58 10.722 4.743 2.488 2.835 3.916 6.722 3.912 10.663v8.44h4.593zm-4.535 2.234H100v13.886h-4.59z"/><path d="M80.56 37.083h-.062s-3.075-.005-6.152-.007c-1.54-.003-3.08-.003-4.234 0l-1.403.002c-.16 0-.335 0-.52.012v-.007c-2.772-.007-4.253-1.583-5.01-2.905-1.302-2.28-1.32-5.4-.04-7.58a2.297 2.297 0 0 0-2.12-3.452c-3.466.214-6.4-.712-8.488-2.674-1.813-1.705-2.853-4.082-2.855-6.524.002-3.18 1.86-9.144 8.816-9.35V0c-5.323.115-8.49 2.653-10.22 4.79-2.024 2.5-3.185 5.837-3.187 9.156.002 3.706 1.57 7.303 4.3 9.872 1.685 1.58 4.422 3.354 8.5 3.83-.632 2.94-.193 6.178 1.31 8.81 1.89 3.305 5.164 5.208 8.984 5.218.043.002.083 0 .124-.003.676-.012 7.615-.005 12.198.003 2.682-.015 4.777.66 6.06 1.936 1.096 1.09 1.653 2.657 1.657 4.645v6.32h4.592V48.25c-.008-3.21-1.05-5.94-3.015-7.895-2.15-2.142-5.347-3.272-9.24-3.272zm-10.547 3.684z"/></svg>