<svg xmlns="http://www.w3.org/2000/svg" version="1" viewBox="0 0 86.043 100"><path d="M29.353 67.038V49.745c0-7.023 5.69-12.727 12.753-12.727 7.024 0 12.714 5.703 12.714 12.727v17.293H29.353z"/><path d="M43.02 9.483c18.497 0 33.487 14.99 33.487 33.485v43.178h9.535l-.025-43.178C86.017 19.24 66.75 0 43.02 0 19.28 0 .027 19.24.027 42.97L0 86.173l9.523-.026v-43.18c0-18.494 15.002-33.485 33.498-33.485"/><path d="M44.683 70.74H39.49l-.628 3.635h6.487l-.668-3.636zm1.607 9.195h-8.356l-.968 5.44h10.24l-.915-5.44zm2.173 12.778H35.71L34.493 100h15.25l-1.28-7.287z"/></svg>