<svg xmlns="http://www.w3.org/2000/svg" version="1" viewBox="0 0 61.091 100"><path d="M48.144 73.858h-3.79v14.574c.025 2.58 3.793 2.58 3.79 0V73.858zm-4.332 0h-3.79v14.574c.015 2.562 3.782 2.562 3.79 0V73.858zm-9.206 0h-3.79v14.574c.023 2.58 3.792 2.58 3.79 0V73.858zm-4.333 0h-3.79v14.574c.016 2.562 3.784 2.562 3.79 0V73.858zm-9.205 0h-3.79v14.574c.022 2.58 3.792 2.58 3.79 0V73.858zm-4.332 0h-3.79v14.574c.014 2.562 3.784 2.562 3.79 0V73.858z"/><path d="M52.97 39.006H8.17C3.43 39.024 0 42.73 0 47.178v44.747c-.01 4.543 3.688 8.09 8.17 8.075h44.847c4.462.016 8.1-3.327 8.073-8.075V47.178a8.105 8.105 0 0 0-8.12-8.172zm-.298 52.526H8.417v-43.96H52.67v43.96zM41.597 4.4c-.038-5.833 8.423-5.9 8.467 0l-.147 17.77 4.58-5.56c3.135-3.47 8.66 1.335 5.265 5.216l-11.03 13.142c-1.767 1.76-4.032 1.748-5.758 0L31.998 21.776c-3.428-3.88 2.15-8.74 5.216-5.218l4.53 5.613-.147-17.77zm-30.72 27.517c-.035 5.846 8.426 5.913 8.468 0l-.097-17.77 4.53 5.61c3.137 3.434 8.663-1.373 5.266-5.266L18.017 1.35c-1.766-1.744-4.033-1.733-5.76 0L1.28 14.54c-3.426 3.894 2.15 8.754 5.218 5.267l4.53-5.66-.15 17.77z"/><path d="M50.558 72.776a1.46 1.46 0 0 1-1.48 1.48s-9.906.012-9.943 0a1.475 1.475 0 0 1-1.476-1.48v-10.78a2.033 2.033 0 0 1 2.06-2.068c-.018-.013 8.76 0 8.76 0a2.03 2.03 0 0 1 2.07 2.067v10.78zm-6.402-13.733c1.552 0 2.817-1.267 2.806-2.808a2.818 2.818 0 0 0-2.806-2.854 2.867 2.867 0 0 0-2.854 2.86 2.852 2.852 0 0 0 2.854 2.81zm-7.138 13.733a1.454 1.454 0 0 1-1.476 1.48s-9.907.012-9.944 0a1.476 1.476 0 0 1-1.477-1.48v-10.78a2.034 2.034 0 0 1 2.07-2.068c-.01-.013 8.76 0 8.76 0a2.026 2.026 0 0 1 2.07 2.067v10.78zM30.62 59.043c1.55 0 2.817-1.267 2.805-2.808a2.818 2.818 0 0 0-2.806-2.854 2.87 2.87 0 0 0-2.86 2.86 2.854 2.854 0 0 0 2.85 2.81zm-7.14 13.733a1.455 1.455 0 0 1-1.476 1.48s-9.907.012-9.943 0a1.475 1.475 0 0 1-1.47-1.48v-10.78a2.033 2.033 0 0 1 2.07-2.068c-.01-.013 8.764 0 8.764 0a2.027 2.027 0 0 1 2.067 2.067v10.78zm-6.4-13.733c1.554 0 2.82-1.267 2.808-2.808a2.82 2.82 0 0 0-2.807-2.854 2.866 2.866 0 0 0-2.85 2.86 2.85 2.85 0 0 0 2.86 2.81z"/></svg>