<svg xmlns="http://www.w3.org/2000/svg" version="1" viewBox="0 0 100 83.648"><path d="M90.925 28.696L82.728 7.53C81.195 3.476 77.845.03 71.505 0H28.428c-6.312.03-9.662 3.477-11.223 7.53l-8.2 21.166C5.752 29.116-.01 32.94 0 40.186V67.14h8v8.603c-.02 10.607 14.988 10.48 14.984 0V67.14h53.964v8.603c.033 10.48 15.042 10.607 15.052 0V67.14h8V40.19c-.025-7.247-5.79-11.072-9.075-11.492zM15.727 50.874c-3.834.01-6.938-3.187-6.922-7.12-.016-3.96 3.088-7.16 6.922-7.128 3.822-.033 6.926 3.168 6.92 7.128.006 3.933-3.1 7.13-6.92 7.12zM50 28.497H17.54l6.183-16.668c.746-2.37 1.904-4.06 4.64-4.1H71.64c2.693.04 3.854 1.73 4.636 4.1l6.184 16.66H50zm34.274 22.377c-3.86.01-6.967-3.187-6.988-7.12.02-3.96 3.127-7.16 6.988-7.128 3.795-.033 6.898 3.168 6.922 7.128-.024 3.933-3.127 7.13-6.922 7.12z"/></svg>