<svg xmlns="http://www.w3.org/2000/svg" version="1" viewBox="0 0 96.039 100"><path d="M54.76 98.19c4.908-2.144 7.2-1.854 11.223.26 4.066 2.117 8.11 2.117 12.903-.316 4.745-2.434 8.628-1.046 10.805.263 1.78 1.088 3.583 1.524 6.297 1.522v-9.707c-4.078-.017-5.823-1.414-5.823-1.414-4.198-2.58-8.05-2.063-13.322.68-3.03 1.576-7.81 1.162-11.224-.577-4.64-2.46-7.282-1.863-12.17.315-3.792 1.68-7.21 1.677-10.96 0-4.912-2.186-7.432-2.775-12.115-.316-3.368 1.74-8.222 2.153-11.225.577-5.3-2.743-9.082-3.26-13.27-.68 0 0-1.824 1.39-5.824 1.413v9.705c2.526 0 4.493-.49 6.192-1.523 2.146-1.322 6.155-2.696 10.908-.263 4.787 2.434 8.83 2.434 12.852.316 4.065-2.113 6.308-2.496 11.223-.368 4.767 2.428 9.483 2.208 13.533.107zm35.455-23.555c-8.252-4.522-11.843.962-16.26.943V53.655l6.818-15.79c1.043-2.41.006-4.63-2.466-5.713l-4.144-1.678V16.836H66.14V9.65H54.97V0H41.067v9.65h-11.17v7.186h-8.025v13.638l-4.144 1.678c-2.48 1.083-3.52 3.303-2.467 5.714l6.82 15.79V75.58c-4.422.017-8.195-5.38-16.26-.89 0 0-2.315 1.302-5.82 1.363v9.44c2.74-.215 4.05-.653 6.136-1.784 2.19-1.256 6.21-2.45 10.962 0 4.787 2.414 8.83 2.414 12.85.312 4.066-2.13 7.593-2.234 11.383-.313 4.765 2.414 8.505 2.44 13.323.052 3.87-1.98 7.358-1.868 11.38.26 4.066 2.103 8.108 2.103 12.904-.312 4.744-2.447 8.747-1.22 10.962 0 1.95 1.022 3.316 1.57 6.136 1.786V76c-3.586-.092-5.825-1.365-5.825-1.365zM68.24 27.955l-20.248-8.338-20.195 8.338v-5.508h7.973v-7.08h24.495v7.08h7.975v5.508z"/></svg>