<svg xmlns="http://www.w3.org/2000/svg" viewBox="0 0 99 35"><title>Shape</title><path d="M75.24 15.593l-1.813 3.1s-.33.67-1.38.67H66.77l-3.013-8.953c.235-.046.482-.094.647-.117 1.885-.342 2.533-.342 3.935.376 0 0 6.006 3.097 6.42 3.332.506.247.823.99.48 1.59zm-14.428-4.606l2.838 8.375H42.66c-.46 0-.94-.27-.94-.99v-1.13c0-.613.257-.99.81-1.26.637-.295 4.442-1.814 6.74-2.416a247.64 247.64 0 0 1 11.542-2.58zm11.07 23.463c2.733-.436 7.893-1.26 10.86-2.108 1.284-.33 2.593-1.66 2.97-2.426l7.078-10.79v13.51c0 1.52 2.263 1.52 2.263 0V18.692h.965c2.71 0 2.71-4.063 0-4.063h-.965V1.14c0-1.52-2.263-1.52-2.263 0v13.487h-.66c-2.414-.236-13.758-1.45-15.948-2.58-2.202-1.154-4.512-2.46-6.667-3.568-1.98-.99-3.133-.92-5.277-.556-1.213.235-8.35 1.566-15.266 3.32-8.54 2.157-19.082 7.128-19.082 7.128l-12.05.047c-2.757-.8-3.84-5.96-5.042-8.234L9.76 4.062c-.223-.507-.777-.66-1.308-.684l-7.68-.46c-1.154-.07-.718.896-.554 1.45l5.266 20.647c.553 2.31 3.758 4.512 6.007 4.748l31.016 4.76h.39l28.987-.073z" fill-rule="evenodd"/></svg>