<svg xmlns="http://www.w3.org/2000/svg" version="1" viewBox="0 0 100 62.582"><path d="M35.987 23.397a1.62 1.62 0 0 0 1.613-1.613l.023-10.153a1.62 1.62 0 0 0-1.613-1.61H12.703a1.62 1.62 0 0 0-1.613 1.612l-.023 10.154A1.62 1.62 0 0 0 12.68 23.4h23.307zm33.37-13.424c.408 0 .727-.34.727-.75a.75.75 0 0 0-.137-.432l-3.68-5.29a.773.773 0 0 0-.592-.272h-8.11c-.726 0-1.315.59-1.315 1.317v4.112c0 .727.59 1.318 1.316 1.318h11.79zM66.902.023c.75 0 1.43.34 1.886.862l7.018 10.086c.16.25.272.524.272.843 0 .75-.636 1.386-1.408 1.386l-12.062-.024a7.514 7.514 0 0 0-7.52 7.52v12.22H.006V7.678S-.45 0 7.48 0l59.423.022z"/><path d="M83.645 34.55l-15.537-.02a2.49 2.49 0 0 1-2.5-2.5v-7.996c0-1.386 1.113-2.5 2.477-2.5h8.45c.433 0 .818.206 1.09.523l7.134 10.29c.157.228.27.5.27.818 0 .773-.614 1.386-1.386 1.386zm13.515 8.59v-5.293a4.932 4.932 0 0 0-3.248-4.634l-4.588-1.544-9.155-13.22a2.453 2.453 0 0 0-1.888-.888H63.768a4.266 4.266 0 0 0-4.27 4.27l.022 15.492H.005V48.5a2.938 2.938 0 0 0 2.93 2.93h7.86c.432-6.52 6.974-11.698 13.607-11.698s13.175 5.18 13.63 11.7h29.166c.478-6.476 6.997-11.608 13.63-11.608 6.61 0 13.13 5.133 13.606 11.607h2.612A2.942 2.942 0 0 0 100 48.498v-5.36h-2.84z"/><path d="M80.783 57.494a3.907 3.907 0 0 0 0-7.814c-2.158 0-3.885 1.75-3.885 3.907s1.727 3.907 3.885 3.907zm-8.996-3.907c0-4.975 4.043-8.996 8.996-8.996 4.975 0 9.018 4.023 9.018 8.998s-4.04 8.995-9.016 8.995c-4.953 0-8.996-4.02-8.996-8.995zm-47.385 3.748a3.907 3.907 0 1 0 0-7.813 3.907 3.907 0 0 0 0 7.813zm-8.996-3.907c0-4.975 4.043-8.995 8.996-8.995 4.975 0 8.995 4.02 8.995 8.995s-4.02 8.995-8.995 8.995c-4.952 0-8.996-4.02-8.996-8.995z"/></svg>