<svg xmlns="http://www.w3.org/2000/svg" version="1" viewBox="0 0 100 68.387"><path d="M52.648 7.46V5.426h2.657V4.14c0-2.29 2-4.14 4.474-4.14 2.47 0 4.46 1.85 4.46 4.14v1.286h2.6V7.46h-14.2zM76.094 49.4c-5.244 0-9.495 4.25-9.495 9.492a9.495 9.495 0 0 0 9.49 9.495c5.24 0 9.48-4.25 9.48-9.495 0-5.243-4.247-9.493-9.487-9.493zm-.002 14.035a4.54 4.54 0 0 1 0-9.08 4.536 4.536 0 0 1 4.537 4.538 4.54 4.54 0 0 1-4.54 4.542zM21.738 49.307c-5.24 0-9.49 4.254-9.49 9.495a9.49 9.49 0 0 0 9.49 9.49c5.244 0 9.494-4.246 9.494-9.49 0-5.24-4.25-9.495-9.494-9.495zm.02 14.046a4.54 4.54 0 0 1 0-9.08 4.54 4.54 0 0 1 0 9.08z"/><path d="M92.027 31.896c2.835.552 4.533 1.777 5.813 8.774l2.024 12.63c.73 4.11-1.594 5.61-4.49 5.61H88.42c0-6.81-5.517-12.35-12.326-12.35-6.81 0-12.333 5.54-12.333 12.35H34.04c0-6.81-5.52-12.35-12.33-12.35-6.813 0-12.333 5.54-12.333 12.35H3.61C1.583 58.91 0 57.372 0 55.39V13.862c0-2.263 1.786-4.08 3.975-4.08h74.627c2.835 0 4.91 1.407 5.934 3.874l7.49 18.24zM67.15 14.014v17.25H87.1l-7-17.25H67.15zM49.308 29.05V18.467H38.722V29.05H28.135v10.59h10.587v10.584h10.585V39.638h10.585V29.05H49.307z"/></svg>