<svg xmlns="http://www.w3.org/2000/svg" version="1" viewBox="0 0 100 53.863"><path d="M78.565 47.35c2.726 0 4.92-2.24 4.92-5.007 0-2.733-2.194-4.974-4.92-4.974-2.736 0-4.93 2.24-4.93 4.972.002 2.766 2.194 5.007 4.93 5.007zm-11.387-5.007c0-6.336 5.09-11.493 11.388-11.493 6.273 0 11.364 5.157 11.364 11.493 0 6.366-5.09 11.52-11.364 11.52-6.297 0-11.388-5.154-11.388-11.52z"/><path d="M95.493 30.036l-.022-11.6c0-4.62-4.062-4.132-4.062-4.132H68.415L60.025 0H55.09l8.388 14.304-6.354 10.868-14.485-.023c-5.005-10.388-15.177-9.737-15.177-9.737H0v24.69h3.925c.526-8.397 8.505-15.058 16.938-15.058 8.43 0 16.43 6.676 16.934 15.058l23.877.023c.505-8.407 8.504-15.082 16.937-15.082 8.434 0 16.455 6.674 16.94 15.096l1.483.015c1.645 0 2.97-1.352 2.97-3.01v-7.112h-4.507v.003z"/><path d="M20.817 47.35c2.73 0 4.942-2.24 4.942-5.007 0-2.733-2.215-4.974-4.944-4.974-2.712 0-4.93 2.24-4.93 4.972.003 2.766 2.217 5.007 4.93 5.007zm-11.37-5.007c0-6.336 5.096-11.493 11.37-11.493 6.298 0 11.372 5.157 11.372 11.493 0 6.366-5.08 11.52-11.374 11.52-6.274 0-11.37-5.154-11.37-11.52z"/></svg>