<svg xmlns="http://www.w3.org/2000/svg" viewBox="0 0 29 23"><title>path12327 + path12329 + path12331</title><g fill="#000" fill-rule="evenodd"><path d="M22.463 9.632a6.278 6.278 0 1 0 0 12.555 6.278 6.278 0 0 0 0-12.555zm0 9.576a3.298 3.298 0 1 1 0-6.596 3.298 3.298 0 0 1 0 6.596zM4.263 15.155a3.51 3.51 0 1 0 0 7.022 3.51 3.51 0 0 0 0-7.022zm-.002 5.292a1.778 1.778 0 1 1 0-3.555 1.778 1.778 0 0 1 0 3.555z"/><path d="M22.463 7.87c-.508 0-1.006.048-1.488.138-.165-2.738-.97-3.35-1.21-4.19-.082-.295.168-.874.168-1.418 0-.107-.03-1.427-1.16-1.427-1.084 0-1.35.82-1.35.82V3.57c0 .153.133.278.3.278h.392l-1.208 2.428-1.86 1.464-.528-.616-6.747 1.563V.973H7.02v7.89l-.062.013-6.182.316V13.4l.832 2.064a4.14 4.14 0 0 1 2.655-.96 4.16 4.16 0 0 1 3.476 1.878h7.813a6.698 6.698 0 0 1-.018-.472c0-3.82 3.108-6.93 6.928-6.93 1.45 0 2.8.45 3.913 1.216l.637-.915a8.002 8.002 0 0 0-4.55-1.41z"/></g></svg>