<svg xmlns="http://www.w3.org/2000/svg" version="1" viewBox="0 0 100 89.383"><path d="M100 3.417V0L0 38.24v3.423zM43.87 16.965c2.987 0 5.426-2.467 5.426-5.507 0-3.034-2.44-5.476-5.425-5.476-3 0-5.44 2.442-5.44 5.476 0 3.04 2.44 5.507 5.45 5.507zM77.553 45.47H53.32V25.602l-3.386 1.364V45.47H25.477c-1.915 0-3.477 1.575-3.477 3.515V85.86c0 1.94 1.562 3.523 3.477 3.523h52.077c1.916 0 3.484-1.584 3.484-3.523V48.984c0-1.94-1.57-3.515-3.485-3.515zm-36.97 20.025c0 1.052-.832 1.916-1.87 1.916H27.248c-1.04 0-1.892-.86-1.892-1.91V53.94c0-1.05.854-1.915 1.89-1.915H38.71c1.04 0 1.87.864 1.87 1.915v11.555zm18.628-.144a1.885 1.885 0 0 1-1.89 1.9H45.89a1.884 1.884 0 0 1-1.895-1.89V53.77c0-1.048.846-1.883 1.893-1.883H57.32c1.044 0 1.892.835 1.892 1.884v11.58zm18.49 0c0 1.06-.82 1.9-1.87 1.9H64.37a1.89 1.89 0 0 1-1.892-1.89V53.77c0-1.048.854-1.883 1.893-1.883h11.46c1.05 0 1.877.835 1.877 1.884v11.58zM56.85 12.07c3 0 5.44-2.467 5.44-5.507s-2.44-5.51-5.44-5.51c-2.985 0-5.424 2.467-5.424 5.507s2.44 5.507 5.424 5.507z"/></svg>