<svg xmlns="http://www.w3.org/2000/svg" version="1" viewBox="0 0 100 67.681"><path d="M96.043 67.68a14.2 14.2 0 0 1-5.713-1.225 13.91 13.91 0 0 0-5.866-1.307c-2.085 0-4.088.482-5.866 1.307a14.086 14.086 0 0 1-5.7 1.226c-2.003 0-3.96-.46-5.69-1.224a14.065 14.065 0 0 0-5.866-1.307 13.96 13.96 0 0 0-5.865 1.306c-1.744.766-3.676 1.226-5.7 1.226-2.027 0-3.982-.46-5.703-1.225a13.982 13.982 0 0 0-5.866-1.307c-2.097 0-4.1.482-5.878 1.307a14.08 14.08 0 0 1-5.7 1.226 13.99 13.99 0 0 1-5.678-1.225c-1.803-.824-3.804-1.307-5.866-1.307-2.096 0-4.1.483-5.866 1.308-1.755.766-3.687 1.226-5.712 1.226v-8.54c2.025 0 3.958-.46 5.712-1.225a13.906 13.906 0 0 1 5.866-1.308c2.062 0 4.063.482 5.866 1.307a13.97 13.97 0 0 0 5.677 1.225c2.025 0 3.98-.46 5.7-1.225a14 14 0 0 1 5.877-1.307c2.085 0 4.087.482 5.866 1.307a14.09 14.09 0 0 0 5.702 1.226c2.025 0 3.957-.46 5.7-1.225a13.974 13.974 0 0 1 5.866-1.306c2.075 0 4.076.482 5.867 1.307 1.73.767 3.688 1.227 5.69 1.227a14.1 14.1 0 0 0 5.7-1.225 13.982 13.982 0 0 1 5.866-1.307c2.097 0 4.1.482 5.866 1.307a14.18 14.18 0 0 0 5.712 1.226v8.54zM75.24 15.593l-1.813 3.1s-.33.67-1.38.67H66.77l-3.013-8.953c.235-.046.482-.094.647-.117 1.885-.342 2.533-.342 3.935.376 0 0 6.006 3.097 6.42 3.332.506.247.823.99.48 1.59m-14.427-4.606l2.838 8.375H42.66c-.46 0-.94-.27-.94-.99v-1.13c0-.612.257-.99.81-1.26.637-.294 4.442-1.813 6.74-2.415a247.64 247.64 0 0 1 11.542-2.58M42.2 43.7l3.404-9.176h23.582l3.404 9.14-30.39.036zm56.88-.083l-23.77.023-3.428-9.188c2.733-.436 7.893-1.26 10.86-2.108 1.284-.33 2.593-1.66 2.97-2.426l7.078-10.79v13.51c0 1.52 2.263 1.52 2.263 0V18.692h.965c2.71 0 2.71-4.063 0-4.063h-.965V1.14c0-1.52-2.263-1.52-2.263 0v13.487h-.66c-2.414-.236-13.758-1.45-15.948-2.58-2.202-1.154-4.512-2.46-6.667-3.568-1.98-.99-3.133-.92-5.277-.556-1.213.235-8.35 1.566-15.266 3.32-8.54 2.157-19.082 7.128-19.082 7.128l-12.05.047c-2.757-.8-3.84-5.96-5.042-8.234L9.76 4.062c-.223-.507-.777-.66-1.308-.684l-7.68-.46c-1.154-.07-.718.896-.554 1.45l5.266 20.647c.553 2.31 3.758 4.512 6.007 4.748l31.016 4.76h.39l-3.404 9.175-24.382.023c-.6 0-1.084.33-1.084.91v1.554c0 .647.39 1.084 1.084 1.296 2 .6 8.02 2.25 15.207 4.003.248-.094.506-.14.754-.26a16.773 16.773 0 0 1 7.138-1.59c2.46 0 4.876.53 7.102 1.567 1.4.648 2.945.966 4.464.966s3.016-.317 4.417-.942a17.11 17.11 0 0 1 7.15-1.59c2.416 0 4.9.554 7.09 1.566a10.86 10.86 0 0 0 4.467.966c1.52 0 3.062-.317 4.417-.942 2.25-1.036 4.712-1.59 7.15-1.59 2.31 0 4.63.507 6.75 1.426 5.924-1.956 8.02-3.558 8.02-3.558.46-.377.766-.766.766-1.367v-1.602c0-.6-.33-.918-.92-.918"/></svg>