<svg xmlns="http://www.w3.org/2000/svg" version="1" viewBox="0 0 81.59 99.992"><path d="M77.62 14.775c-1.1-5.528-4.623-7.73-9.932-9.93C62.498 2.668 50.02.08 40.794 0 31.55.08 19.072 2.668 13.846 4.846c-5.27 2.2-8.795 4.402-9.875 9.93L0 45.284v42.09h6.84v6.565c-.027 8.07 11.745 8.07 11.75 0v-6.57H63v6.56c-.014 8.07 11.76 8.07 11.75 0v-6.56h6.84V45.28l-3.97-30.51zm-53.624-7.06h33.597c3.286-.01 3.286 4.95 0 4.965H23.996c-3.302-.016-3.302-4.974 0-4.965zM12.686 74.19c-3.1-.014-5.63-2.54-5.626-5.68-.004-3.1 2.526-5.628 5.627-5.628 3.136 0 5.665 2.528 5.683 5.627a5.704 5.704 0 0 1-5.683 5.68zM40.38 48.482H10.428c-2.925.028-3.54-2.08-3.253-4.192l3.088-22.177c.426-2.67 1.337-4.443 4.855-4.468H66.48c3.497.025 4.41 1.797 4.853 4.468l3.09 22.177c.267 2.112-.347 4.22-3.255 4.192H40.38zm28.47 25.71c-3.1-.016-5.63-2.543-5.63-5.683a5.64 5.64 0 0 1 5.63-5.63c3.136 0 5.666 2.53 5.68 5.62a5.7 5.7 0 0 1-5.68 5.68zM40.38-.008c.136 0 .278.007.415.008.137 0 .278-.007.414-.007h-.83z"/></svg>