<svg xmlns="http://www.w3.org/2000/svg" viewBox="0 0 100 53"><title>Shape + Shape</title><g fill="#000" fill-rule="evenodd"><path d="M83.645 19.55l-15.537-.02a2.492 2.492 0 0 1-2.5-2.5V9.034c0-1.386 1.113-2.5 2.477-2.5h8.45c.433 0 .818.206 1.09.523l7.134 10.29c.157.228.27.5.27.818 0 .773-.614 1.386-1.386 1.386zm13.515 1.297c0-2.074-1.3-3.926-3.248-4.634l-4.588-1.544L80.17 1.45A2.453 2.453 0 0 0 78.28.56H63.768a4.267 4.267 0 0 0-4.27 4.27l.022 15.492H.005V38.5a2.938 2.938 0 0 0 2.93 2.93h7.86c.432-6.52 6.974-11.698 13.607-11.698s13.175 5.18 13.63 11.7h29.166c.478-6.476 6.997-11.608 13.63-11.608 6.61 0 13.13 5.133 13.606 11.607h2.612A2.94 2.94 0 0 0 100 38.498v-5.36h-2.84v-12.29z"/><path d="M80.783 47.494a3.907 3.907 0 0 0 0-7.814c-2.158 0-3.885 1.75-3.885 3.907s1.727 3.907 3.885 3.907zm-8.996-3.907c0-4.975 4.043-8.996 8.996-8.996 4.975 0 9.018 4.023 9.018 8.998s-4.04 8.995-9.016 8.995c-4.953 0-8.996-4.02-8.996-8.995zm-47.385 3.748a3.906 3.906 0 1 0 0-7.813 3.906 3.906 0 0 0 0 7.813zm-8.996-3.907c0-4.975 4.043-8.995 8.996-8.995 4.975 0 8.995 4.02 8.995 8.995s-4.02 8.995-8.995 8.995c-4.952 0-8.996-4.02-8.996-8.995z"/></g></svg>