<svg xmlns="http://www.w3.org/2000/svg" version="1" viewBox="0 0 91.135 100"><path d="M91.133 100c-1.974 0-3.9-.464-5.605-1.242a13.5 13.5 0 0 0-5.78-1.307c-2.048 0-4.02.48-5.765 1.31-1.73.777-3.633 1.24-5.63 1.24-1.973 0-3.904-.463-5.604-1.24a13.568 13.568 0 0 0-5.79-1.308c-2.04 0-4.017.48-5.764 1.308-1.723.778-3.634 1.242-5.63 1.242-1.998 0-3.9-.464-5.606-1.242a13.567 13.567 0 0 0-5.78-1.307c-2.06 0-4.04.48-5.78 1.308a13.597 13.597 0 0 1-5.62 1.24c-1.984 0-3.9-.464-5.614-1.242a13.563 13.563 0 0 0-5.78-1.307c-2.05 0-4.024.48-5.775 1.31C3.898 99.535 1.998 100 0 100v-8.516a13.47 13.47 0 0 0 5.61-1.242 13.95 13.95 0 0 1 5.775-1.276c2.057 0 4.028.478 5.78 1.276a13.525 13.525 0 0 0 5.614 1.242c1.994 0 3.91-.458 5.62-1.242a13.9 13.9 0 0 1 5.78-1.276c2.053 0 4.03.478 5.78 1.276a13.413 13.413 0 0 0 5.607 1.242c1.995 0 3.905-.458 5.628-1.242a13.9 13.9 0 0 1 5.764-1.276c2.06 0 4.037.478 5.787 1.276 1.7.784 3.632 1.242 5.605 1.242 1.996 0 3.9-.458 5.63-1.242a13.86 13.86 0 0 1 5.765-1.276c2.06 0 4.038.478 5.78 1.276a13.495 13.495 0 0 0 5.604 1.242V100zM59.48 15.158c15.27 7.178 33.403 26.315 31.023 49.278H59.48V15.158zM83.946 69.07h-69.03v12.665c.777.206 1.547.434 2.25.777 1.714.754 3.63 1.22 5.614 1.22 2 0 3.914-.466 5.622-1.22a13.56 13.56 0 0 1 5.78-1.307c2.053 0 4.03.483 5.78 1.307 1.707.754 3.61 1.22 5.607 1.22 1.993 0 3.903-.466 5.626-1.22a13.598 13.598 0 0 1 5.764-1.307c2.063 0 4.04.483 5.79 1.307 1.7.754 3.63 1.22 5.604 1.22.385 0 .75-.097 1.11-.14.044 0 .044.043.09.043.25 0 .435-.11.684-.11.454-.064.906-.117 1.364-.227 4.082-.854 6.717-4.067 6.717-4.067l7.936-10.156h-2.31v-.003zM54.73.068c-.127-.09-.294-.104-.426.047L54.3.118c-.003.002-.005.002-.007.005L2.4 64.173c-.195.24-.087.637.265.637h51.893c.204 0 .374-.17.374-.373V.387a.332.332 0 0 0-.202-.32z"/></svg>